<svg id="Layer_1" data-name="Layer 1" xmlns="http://www.w3.org/2000/svg" viewBox="0 0 1920 1080"><defs><style>.cls-1,.cls-10,.cls-2,.cls-3,.cls-4,.cls-5,.cls-7,.cls-8,.cls-9{fill:none;}.cls-1,.cls-10,.cls-2,.cls-3,.cls-4,.cls-5,.cls-6,.cls-7,.cls-8,.cls-9{stroke:#000;stroke-miterlimit:10;}.cls-1,.cls-5{stroke-linecap:round;}.cls-1{stroke-width:5px;}.cls-2,.cls-5{stroke-width:4px;}.cls-3{stroke-width:2px;}.cls-7{stroke-dasharray:2.96 2.96;}.cls-10,.cls-8{stroke-dasharray:3;}.cls-10,.cls-9{stroke-width:0.5px;}</style></defs><path class="cls-1" d="M1855.3,948.72q31.82-1.77,63.37-3.47"/><path class="cls-1" d="M482.64,1079.63c247.29-28.62,701.77-80.28,939.71-101.48,106.22-9.47,244.67-18.6,384.53-26.67"/><path class="cls-2" d="M1188.29,300h-20s-33.25-3.34-37.71,40.09-1.11,147-23.38,233.86-89.63,267.23-32.57,439.29"/><line class="cls-3" x1="1304.31" y1="299.97" x2="1248.2" y2="299.97"/><path class="cls-2" d="M1128.45,376s-81.53,157.22-121,280.58-116.1,358.89-53.28,369.75"/><path class="cls-2" d="M1187.41,328.66c.31-22.6,1.5-53.75,5.54-66.55,6.68-21.16,36.75-59,39-95.77"/><path class="cls-2" d="M1247.52,351.37c-2.76,13.93-1,44.19-.25,54.34a5.06,5.06,0,0,1-3,5c-5.19,2.34-16,6.56-28,7.35a97.35,97.35,0,0,1-27.36-2.35,5,5,0,0,1-3.9-4.83c-.17-10.71-.42-41,1.9-54.26"/><path class="cls-2" d="M1248.94,156.27c8.36,20.5,0,57.32-1.42,94.46-.76,19.17,1.07,51.21,1.25,75"/><path class="cls-2" d="M1233,125.14s-20-59,39-80.18,69,33.41,64.59,62.36"/><path class="cls-2" d="M1263.11,106.21s25.61-28.95,64.59-16.7"/><path class="cls-4" d="M1237.08,121.37c-2.42-9.64-12.51-61.49,46.57-74.4,0,0,50.73-11.6,44,57.23"/><path class="cls-2" d="M1334.07,70.49s21.49,32.45,26.23,50.68"/><path class="cls-4" d="M1244.34,350.92c-.15,27.27-.32,47.72,2.65,56.78"/><path class="cls-4" d="M1244.49,158.46a96.69,96.69,0,0,1,3,35.72c-2.23,20-7.45,40.14-5.57,64.59,1.81,23.55,2.33,46.05,2.43,66.21"/><path class="cls-2" d="M1263.52,300s-10.43-33.91-16-49.24"/><path class="cls-4" d="M1227.38,189.25a68.43,68.43,0,0,1-2.13-17.34"/><path class="cls-2" d="M1420.12,355.65C1429,233.16,1407.87,127.37,1295.4,139S1193,235.39,1195.84,254.77"/><path class="cls-2" d="M1423.46,359s10-86.86-8.9-154.78-82.6-64.31-108.12-66.12"/><path class="cls-4" d="M1382.26,165.23s-31.8-34.36-99.11-20-88.5,53.25-86,106.8"/><path class="cls-2" d="M1201.85,195.13l23.4-59.19s13.36-27.5,53.45-33.07,66.81,1.11,90.2,26.73,40.3,59.65,40.3,59.65"/><path class="cls-4" d="M1332.46,142.94s7.49,31.2,13,41.22,17.82,35.64,11.14,108"/><path class="cls-2" d="M1422.38,243.18s27.81,13.36,36.72,40.09,7.79,90.2,32.29,133.63"/><path class="cls-4" d="M1423.06,248.52s25.08,21.33,30.47,38.09c9.55,29.72,11,94.85,31.38,127.88"/><path class="cls-2" d="M1462.14,297.13s15.89,4.17,18.12,23,14.47,94.54,14.47,94.54"/><path class="cls-2" d="M1530.37,421.36s-44.54-56.7-46.77-76.24"/><path class="cls-2" d="M1357.35,227.05s-34.75-3.11-32.16,19.82c3.62,31.95,118.49,127.71,155.07,166.69"/><path class="cls-2" d="M1433.49,467s-120.27-116.92-129.18-133.07,2.13-38.81,2.13-38.81l20.22-57.65"/><path class="cls-2" d="M1596,964.7s-30-126.86-35.53-165.84c-4.5-31.49-16.27-86.25-20.63-106.12"/><path class="cls-2" d="M1606.09,669.69l97.6,76.93a9.69,9.69,0,0,0,13.1-1.15l48.16-53a9.69,9.69,0,0,0-.72-13.75l-92.44-82.57"/><path class="cls-5" d="M1764.23,678.76s76.83,66.65,92.42,98.94,10,44.55,7.8,59-10,63.48-10,63.48,0,23.38-27.84,34.52"/><path class="cls-2" d="M1710.38,748.61s75,68.07,96.16,89.23,50,56.49,46.16,71.12"/><path class="cls-2" d="M1820.57,852.79s-21.83,11.77-31.85,15.11"/><path class="cls-3" d="M1748.37,783.31l36.84,77.06q11.52,24.12,25.12,47.16l15.17,25.7"/><path class="cls-3" d="M1184.65,354.3a2.43,2.43,0,0,0,3.07,2.4c6.5-1.8,21.7-5.76,32-6.61,13.36-1.12,27.84,1.28,27.84,1.28,2.76.15,2.48-17.63,2.3-23.75a2.42,2.42,0,0,0-2.12-2.33c-16.59-2-51.59,2.23-60.45,3.37a2.43,2.43,0,0,0-2.11,2.36Z"/><path class="cls-4" d="M1184.58,354.34a125.38,125.38,0,0,1,32.87-6.48c18.93-1.12,31.55,1.05,31.55,1.05"/><path class="cls-3" d="M1580.48,649.64l22.13,18.56a4.39,4.39,0,0,0,6.06-.26c12.2-12.67,55.2-62.5,66.48-75.6a4.26,4.26,0,0,0-.4-6l-22.16-19.76a4.25,4.25,0,0,0-5.91.24l-42.11,44"/><line class="cls-2" x1="1643.76" y1="569.92" x2="1606.09" y2="532.71"/><path class="cls-2" d="M1608.86,519c6.58,10.71,12.7,22.17,16.62,32.91"/><path class="cls-3" d="M1579.31,477.45c2.52,3.11,7,8.77,12.31,16"/><path class="cls-3" d="M1421.63,517.06c-33.05-52.67-104.84-43.37-114-43.37-7,0-121.38-7.79-137,134.75s59,184.85,110.25,182.63,149-31.19,157-196a182.5,182.5,0,0,0-1.53-35.88"/><ellipse class="cls-6" cx="1228.2" cy="596.74" rx="28.4" ry="7.24" transform="translate(-54.1 127.41) rotate(-5.81)"/><ellipse class="cls-6" cx="1382.99" cy="580.04" rx="28.4" ry="7.24" transform="translate(-51.62 143) rotate(-5.81)"/><polyline class="cls-3" points="1496.64 421.36 1496.64 416.99 1503.79 414.67 1505.52 418.01 1505.52 423.16 1511.44 416.9 1519.83 418.92 1518.12 425.81 1521.46 428.04 1527.72 421.36 1534.82 422.47 1533.71 432.49 1537.05 433.61 1543.73 429.15 1547.07 432.49 1547.07 435.74 1552.39 435.74 1552.39 438.7 1555.98 439.17 1558.21 444.74 1555.98 449.19 1562.66 446.97 1564.47 449.19 1559.32 454.76 1566 451.42 1567.68 454.76 1563.78 460.33"/><path class="cls-3" d="M1559.32,463.67s18.93-3.34,32.3,14.48,16.7,52.34,13.36,83.52"/><path class="cls-3" d="M1591.62,478.15s19.23,16.94,18,58"/><path class="cls-3" d="M1557.1,469.24s24.49.53,34.52,24.21,6.68,50.4,6.68,50.4"/><path class="cls-3" d="M1481.37,491.51s-3.34-26.72-20-26.72S1430.15,478.15,1429,496s8.91,29.09,26.17,25.12,18.38-11.76,18.38-11.76,1.11,35.63,25.61,33.41,26.72-21.16,27.84-32.3S1514.78,465.9,1481.37,491.51Z"/><path class="cls-3" d="M1567.12,504.87s34.52,24.5,35.63,62.37c1.07,36.37-.94,71.72-26.78,82.34"/><path class="cls-3" d="M1586.31,523.73s20.9,28.32,20.9,52.62-1.12,61-31.18,75.73"/><path class="cls-3" d="M1561.55,510.44s33.41,21.16,34.52,61.25c.75,27-1,40.33-8,51.95"/><path class="cls-3" d="M1438.2,585.23s15.33,32.12,54.31,43.25c23.51,6.72,34.46,9.38,39.44,10.44"/><path class="cls-3" d="M1437.78,598.09a91.37,91.37,0,0,0,51.39,38.19c39,11.13,52.34,12.25,52.34,12.25"/><path class="cls-3" d="M1480.42,586.76a230.56,230.56,0,0,0,8.72,40.69"/><path class="cls-3" d="M1497.15,629.8a142.19,142.19,0,0,1-11.1-39.18"/><path class="cls-3" d="M1535,673.94c-9.43-5.12-18.53-12.17-25.32-21.86a131,131,0,0,1-7.57-12.2"/><path class="cls-3" d="M1542.47,688.19c17.64,7.21,30.79,8.11,36.14,8.13a2.62,2.62,0,0,0,2.62-2.63v-3.93a2.62,2.62,0,0,0-2.34-2.61,128.4,128.4,0,0,1-32.18-7.82"/><path class="cls-3" d="M1492.57,637.24c6.25,16.22,15.46,32,28.89,40.24q4,2.44,7.81,4.48"/><line class="cls-2" x1="1531.35" y1="646.86" x2="1535.7" y2="673"/><line class="cls-2" x1="1528.1" y1="627.3" x2="1529.96" y2="638.48"/><line class="cls-2" x1="1521.55" y1="583.91" x2="1526.46" y2="617.42"/><polyline class="cls-3" points="1566.2 476.19 1571.88 473.03 1575.33 478.15 1570.77 482.85 1577.14 483.84 1577.14 487.54 1573.85 487.54 1573.8 490.4 1577.96 490.4 1577.96 492.72 1573.8 495.96 1567.68 498.64 1559.32 500.62 1567.68 503.81 1566.2 509.99 1562.01 509.99 1563.78 514.9 1559.32 517.64 1563.78 521.58 1561.55 526.03 1562.66 529.37 1561.52 533.83 1567.68 536.17 1567.68 540.51 1561.55 541.62 1564.89 543.85 1563.78 548.3 1559.32 546.75 1557.1 548.3 1559.32 551.88 1557.1 556.61 1552.64 554.99 1554.87 561.67 1551.65 565.55 1548.19 561.67 1548.19 569.92 1543.73 571.69 1539.28 568.35 1535.94 569.92 1537.05 575.03 1533.89 577.04 1528.74 573.63 1523.28 577.04 1523.28 582.27 1521.55 585.23 1517.01 582.83 1517.01 586.95 1512.67 587.91 1509.46 585.23 1505.76 585.23 1505.87 589.51 1501.32 589.51 1496.64 587.91 1490.28 590.62 1488.74 587.91 1486.05 590.62 1474.69 582.83 1470.98 585.23 1468.01 583.94 1468.01 580.04 1463.58 580.04 1460.21 576.14 1460.21 571.41 1454.64 571.69 1454.64 567.22 1450.19 568.35 1444.62 563.89 1446.85 559.44 1440.15 560.55 1434.86 558.34 1434.86 553.16 1438.2 549.46 1427.92 548.3 1426.81 541.62 1428.95 536.38 1423.46 534.94 1423.46 527.5 1426.81 522.69 1420.12 521.58 1422.88 513.34 1420.12 509.5 1420.12 504.87 1422.35 502.65 1420.12 495.68 1420.12 491.24 1422.35 490.4 1423.46 484.83 1425.69 483.72 1424.11 478.7 1428.95 473.06 1431.51 473.03 1433.49 461.89 1436.83 458.1 1440.15 460.33 1441.28 451.42 1444.62 444.74 1446.85 446.97 1446.85 441.4 1450.19 439.17 1454.64 440.29 1457.41 439.17 1459.1 434.72 1464.67 432.49 1466.89 425.81 1470.49 421.36 1474.52 422.66 1473.58 418.01 1478.44 413.29 1485.54 414.67 1485.83 419.13 1489.17 416.9 1496.64 416.99"/><ellipse class="cls-6" cx="1496.4" cy="512.67" rx="5.57" ry="5.01" transform="translate(481.08 1725.59) rotate(-68.98)"/><ellipse class="cls-6" cx="1457.07" cy="496.25" rx="5.57" ry="4.2" transform="translate(471.17 1678.34) rotate(-68.98)"/><path class="cls-4" d="M1716.79,745.47l1.12,1"/><path class="cls-7" d="M1720.14,748.4c15.81,13.82,83.19,73,108.67,99.46,21.91,22.75,25.8,38.07,26.4,44.18"/><path class="cls-4" d="M1855.3,893.52a10.5,10.5,0,0,1,0,1.49"/><path class="cls-8" d="M1867.17,818.66c-.78-5.38-4-16.25-16.05-35.35-18.89-30-86.17-90.8-86.17-90.8"/><path class="cls-4" d="M1254.2,538.28s-5.57-3.34-16.7,8.91c-9,9.92-18.6,21.67-9.3,25.87s22.66,6.38,26-3.62S1263.11,540.51,1254.2,538.28Z"/><path class="cls-4" d="M1360,527.15s-6.68,3.34-5.57,13.36,3.34,26.73,17.82,22.27,17.5-10.4,12.65-17.45S1371.13,523.81,1360,527.15Z"/><path class="cls-4" d="M1360.59,602.88a.59.59,0,0,1,.25-1.13c4.67,0,16.6-.23,23.65-1.11,7.47-.93,18.08-4.22,21.31-5.25a.58.58,0,0,1,.74.74c-.79,2.39-4.53,8.09-22,9C1369.69,605.84,1363.25,604.12,1360.59,602.88Z"/><path class="cls-4" d="M1203.55,617.22a.43.43,0,0,1,.23-.82,130.6,130.6,0,0,0,20.62-.17c9.49-.88,19.15-2.46,22.76-3.08a.44.44,0,0,1,.35.77c-2.67,2.22-10.09,7.33-22.26,7.57C1213.84,621.72,1206.61,618.8,1203.55,617.22Z"/><path class="cls-4" d="M1231.93,634.05s11.13,0,6.68,15.59a117.52,117.52,0,0,0-4.45,29s1.45,8.49-6,9.26-17.43-20.39-20.77-38.21,9-15.59,9-15.59Z"/><path class="cls-4" d="M1366.39,639.62s-2.82-15.42,9.87-19.4,14.91-4,14.91-4,15.59-4.45,8.91,13.37-15.59,39-23.39,41.2-10-1.11-10-10S1366.39,639.62,1366.39,639.62Z"/><path class="cls-6" d="M1246,715.28c3.77-.08,7.53-.29,11.29-.66,6.85-.67,18.7-1.84,37-3.73,32.29-3.34,65.7-12.25,65.7-5.57s-27.84,17.82-65.7,21.16-59,1.11-60.13-5.57C1233.38,716.28,1241.18,715.39,1246,715.28Z"/><path class="cls-4" d="M1269.52,748.17a.75.75,0,0,1-.13-1.41c3.24-1.41,10.88-4.19,23.79-5.81a114,114,0,0,1,27.74-.29.74.74,0,0,1,.29,1.38c-3.53,2.11-12.55,6.66-26,7.64C1282.13,750.64,1273.24,749.05,1269.52,748.17Z"/><path class="cls-9" d="M1280.93,791.07s106.4-20.19,100.47-123.62"/><line class="cls-9" x1="1393.93" y1="615.74" x2="1395.48" y2="603.59"/><line class="cls-9" x1="1394.71" y1="598.58" x2="1392.77" y2="585.94"/><path class="cls-9" d="M1390.66,572.3a24.23,24.23,0,0,1,0-15.07c2.74-7.81,2.74-8.93,2.74-16.72s-7.8-22.27-15.59-32.3-19.61-32.09-19.61-32.09"/><path class="cls-9" d="M1263.61,487.81a2.21,2.21,0,0,1,1.47,4,241.65,241.65,0,0,0-28.7,24.21c-15.59,15.59-29,29-31.18,35.63-2,5.9-5.66,24.78-13.38,24.58a2.17,2.17,0,0,1-1.74-3.33,69.38,69.38,0,0,0,6.21-13.45c4.46-12.25,0-19.92,12.8-32.79C1220.26,515.43,1249.63,488.6,1263.61,487.81Z"/><path class="cls-9" d="M1278.86,484.56a12.28,12.28,0,0,1,12.76-2.56,1.29,1.29,0,0,1,.58,2c-1.72,2.1-5.8,5.48-13,2.65A1.28,1.28,0,0,1,1278.86,484.56Z"/><path class="cls-8" d="M1532,695.17c9.62,53.87,20.21,114.17,25.07,145.29,10,64.19,25.65,125.16,25.65,125.16"/><path class="cls-8" d="M1523,645.09l4.35,24.19"/><path class="cls-8" d="M1512.67,587.91s3.6,19.69,8.8,48.51"/><path class="cls-8" d="M1185.05,335.09a170.57,170.57,0,0,1,32.2-4.93,214,214,0,0,1,31.53,0"/><path class="cls-8" d="M1185.05,348.45a170.57,170.57,0,0,1,32.2-4.93c19.13-1.23,31.53,1.11,31.53,1.11"/><path class="cls-8" d="M1194.18,328.28c0-1.19.07-2.37.1-3.53.9-35.91,2-63.75,15.38-90.48s24.88-55.66,25.24-70.15"/><path class="cls-8" d="M1190.49,416s1.58-30.42,2.77-60.78"/><path class="cls-8" d="M1239.94,324.75c-.13-4.13-.29-8-.49-11.53-2-33.29-3.31-49.3-2.08-67.46,1.21-17.77,11.89-71.42,7.15-87.31"/><path class="cls-8" d="M1239.45,412.67s.93-31.66.86-62.2"/><path class="cls-8" d="M1473.58,418s-69-65.7-96.89-93.54-52.56-56.18-54.68-73.74"/><path class="cls-8" d="M1302.93,304.85s-3.07,16,7.51,29.52,100.78,102.35,125.27,125.29"/><path class="cls-8" d="M1081,1012.53s-22.82-62.22-18.37-150.19,44.18-254.61,53.45-292.88C1133.93,496,1134.18,394,1138,357.58s3.65-49.76,49.93-48.11"/><line class="cls-8" x1="1248.63" y1="309.33" x2="1301.87" y2="309.33"/><path class="cls-8" d="M1423.06,255s24.49,15.91,28.6,42.13,4.1,92.64,21.92,109.55"/><path class="cls-4" d="M1340.1,144.3s10.76,37.39,17,52.54,5.51,28.75,7.54,104.92"/><path class="cls-8" d="M1343.69,145.14s5.5,27.64,17,51.7,6.45,108,6.45,108"/><path class="cls-8" d="M1386.14,168.86s21,37.78,25.08,66.53c6.68,46.77,6.68,74.61,5,116.86"/><path class="cls-8" d="M1601.31,624.52l46.23-49.59a2.94,2.94,0,0,1,4.13-.17l15.26,13.91a2.94,2.94,0,0,1,.22,4.12L1608,659.71a3,3,0,0,1-4.13.29l-17.3-14.91"/><path class="cls-8" d="M1666.83,602l86.55,80.61a7.29,7.29,0,0,1,.42,10.24l-37.63,41.29a9.28,9.28,0,0,1-12.56,1.08l-91.33-71.11"/><path class="cls-3" d="M1525.59,687.08l11.34-15.79a3.09,3.09,0,0,1,3.29-1.2l5.86,1.46a3.13,3.13,0,0,1,2.13,4.2c-2,5-6.11,14.36-10.4,19.85a3.1,3.1,0,0,1-4.13.65l-7.26-4.74A3.11,3.11,0,0,1,1525.59,687.08Z"/><path class="cls-3" d="M1573.8,638.5l2.6,13.27a4.16,4.16,0,0,1-3,4.81h0a4.16,4.16,0,0,1-4.66-1.77l-5.38-8.45a2.78,2.78,0,0,0-2.13-1.28h0a2.79,2.79,0,0,0-2.73,1.58c-4.43,9.19-10.61,9.54-14.82,7.43-4.45-2.22-1.67-7.93-1.67-7.93s7.24-6.54,5.65-9.87-1.75-1.13-5.65-2.71a8.6,8.6,0,0,1-3.91-3.79,5.11,5.11,0,0,0-6-2.23h0a5.62,5.62,0,0,1-7.07-3.59,7.37,7.37,0,0,1-.33-2.17,8.2,8.2,0,0,1,3.94-6.68h7.37a5.58,5.58,0,0,0,4.8-2.72h0a5.59,5.59,0,0,0,0-5.71l-2.77-4.71s-1.11-4.68,2.23-8a7.58,7.58,0,0,1,7.32-2.07l9,6.09a9.15,9.15,0,0,0,5.83,1.57h0a9.19,9.19,0,0,0,6.17-3l3.2-3.53s4-3.16,7.4,0c1.71,1.59,1.71,3.83,1.28,5.67a3.44,3.44,0,0,0,2,3.9,4.12,4.12,0,0,1,2.4,2.51c1,3,.21,7.78-6.39,11.95a4.31,4.31,0,0,0-1.94,4.3c.48,3.13.76,7.94-1.52,9.81"/><path class="cls-3" d="M1582.71,612.42s9.43,13.51,4.71,20.91A34.41,34.41,0,0,1,1575,644.5"/><path class="cls-3" d="M1534.92,627.45s-7.68,13,1.68,17c0,0,1.56,1.52,5.46,1.66"/><path class="cls-3" d="M1752.36,845.84c8.53,15.51,29.91,51.6,56.33,75.52,16.6,15,39.67,22.29,48.22,24a1.29,1.29,0,0,1,.49,2.33l-9.2,6.37a5.7,5.7,0,0,1-5.64.48l-6.33-3"/><path class="cls-3" d="M1684,731.4s52.42,135.64,80.24,176.16c22.64,33,46.76,47.22,55,51.39a5.66,5.66,0,0,0,5.56-.26L1837,951a1.37,1.37,0,0,0,0-2.34c-9.73-6-54-34.58-72.08-74-19.52-42.48-45.32-106.19-52.59-124.26"/><path class="cls-2" d="M1733,955.88c22.86-.63,43.43-17.82,46.27-29.08"/><path class="cls-8" d="M1208.33,178.72s24.82-37.6,83.73-42.44c81.29-6.68,102.12,26.93,102.12,26.93"/><path class="cls-8" d="M1225.25,135.94s21.16-27.39,63.47-30.84c54.57-4.46,77.56,21.72,77.56,21.72"/><path class="cls-4" d="M1358.59,232.22s-20.25-3.95-26.13,7.4,1.57,26,1.57,26"/><circle class="cls-4" cx="1350.52" cy="339.51" r="5.01"/><polyline class="cls-4" points="1349.18 334.68 1337.72 323.36 1335.49 325.59 1346.16 337.05"/><path class="cls-9" d="M1355.12,341.51s-8.49,1.89-7.71-5.93l-10.76-11.15"/><polyline class="cls-4" points="1425.02 413.29 1413.44 403.54 1415.67 400.2 1428.95 411.23"/><circle class="cls-4" cx="1431.26" cy="416.9" r="6.68"/><line class="cls-9" x1="1414.74" y1="401.59" x2="1427" y2="411.75"/><path class="cls-9" d="M1429.74,410.4s-2.93,8.55,6,10.87"/><path class="cls-4" d="M1554.87,652.08s2.66.63,13,1.32"/><path class="cls-4" d="M1557.07,649.09c1.64.21,4.34.5,8.6.82"/><path class="cls-3" d="M215.32,732.72c-68.55,2-140.65,4.24-215.88,6.58"/><path class="cls-3" d="M991.18,711.45s-154.7.07-414.83,6.18"/><path class="cls-3" d="M369.5,293.5s100-1,159,2,68,4,68,4"/><path class="cls-3" d="M642.15,299.5s44.35,1,60.35,27,24,66,26,118,6,106,2,110"/><path class="cls-3" d="M330.84,293.34S293.5,294.5,269.5,305.5s-33,26-36,37-10,64-5,98"/><path class="cls-3" d="M246.05,321.37S217.5,328.5,206.5,358.5s-19,78-17,130,3,80,3,80"/><path class="cls-4" d="M325.5,307.5s-35-1-55,8c-14.73,6.63-33,21-33,66s1,250,1,279,2,79-4,79"/><path class="cls-3" d="M325.5,312.83s-46,.67-59,10.67-21,29-22,49,0,218,0,254c0,33.06,4.34,100.07-2,113.69a3.85,3.85,0,0,1-3.86,2.21c-2.09-.21-5.21-.85-5.56-2.85"/><path class="cls-4" d="M643.09,305.69c4.75.17,8.94.44,12.41.81,28,3,57,15,62,72s10.31,176,10.31,176"/><path class="cls-4" d="M376.64,309.49c38.5,0,116.86-.21,142.64-1,17.86-.54,47.79-1.94,76-2.66"/><path class="cls-4" d="M333.5,308.5s12,1,22,1h14.72"/><path class="cls-3" d="M643.6,309.34c18.87.32,36.77,2.67,46.9,14.16,15,17,25,28,28,96s11.42,193.59,13.71,207.3,2.29,64.7-11.71,73.7-38,4-57,6-62.3,11.89-72.15,5"/><path class="cls-3" d="M376.87,312.94c28.67.05,65.71.06,92.2-.11,39.79-.27,93.55-2.26,127.09-3"/><path class="cls-4" d="M333.5,312.83s15.37.06,36.86.1"/><path class="cls-4" d="M191.53,542s-4-17.51-14-13.51-6,16-1,22,15.9,15.14,15.9,15.14"/><path class="cls-3" d="M192.4,574.22s3.1,116.28,5.1,127.28,3,18,11,26,21.24,11.51,25.62,12.25"/><path class="cls-3" d="M544.89,179.35c15.73,27.73,21.39,65.25,16.61,106.15,0,0,9.07-.93,5,12"/><path class="cls-3" d="M376.33,153.46c28.67-19,63.36-26.82,103.67-20.21a97.07,97.07,0,0,1,10.55,2.33"/><path class="cls-3" d="M297.61,296.42s2.89-55.15,36.89-102c.63-.87,1.27-1.74,1.91-2.6"/><path class="cls-3" d="M334.5,286.65s-25-157.15,72-180.15,159,48,185,95,37,86,37,86h3.26a2,2,0,0,1,1.81,1.18c1.22,2.69,3.76,9.62,1.64,16.72a36,36,0,0,1,.81,10.38s3.48-.28,3.48,3.72v22.12h9a4.15,4.15,0,0,1,4.14,4l2.72,73.18a3.58,3.58,0,0,1-2,3.37"/><path class="cls-4" d="M341.5,286.5h-7.32a2.73,2.73,0,0,0-2.69,3.23,102.38,102.38,0,0,1,1.79,14.07,3,3,0,0,0,3.52,2.83,91.93,91.93,0,0,1,16.78-1.23c7.24.05,11.25.05,13.44,0a3,3,0,0,0,2.92-2.55c.49-3.48,1-9.84-1.17-14.32a3.61,3.61,0,0,0-3.25-2.07h-2.93s-9.8-27-4.95-79.5,34.86-81.5,83.86-83.5,100,42,134,97a186.71,186.71,0,0,1,17,35.59c15.05,42.16,12,83.41,12,83.41h-9.08a4.14,4.14,0,0,0-4.13,4.29l2.93,78.2a3.59,3.59,0,0,0,3.58,3.44h6"/><path class="cls-4" d="M604.76,288.16h-2.9a2,2,0,0,0-1.92,2.47l3.7,14.77"/><path class="cls-4" d="M594.1,260.67s-5.6,3.83-4.6,9.83,9.82,25.92,9.82,25.92"/><path class="cls-4" d="M621.13,265.77s9.34,8.73,9.35,21.73"/><path class="cls-4" d="M244.36,574.22s18.14-1.72,69.14-3.72,59-4,61,16,11,147-11,145"/><path class="cls-4" d="M726.55,557.23s-1-1.73-5-1.73-75,2-75,2-23-2-23,27S625,706.17,601.76,713.84"/><path class="cls-4" d="M646.5,557.5s-24-1-26,16,3,76-5,106-21.25,33.28-21.25,33.28-33.75-.28-77.75,2.72-107.6,8.63-145.3,8.31"/><path class="cls-3" d="M687.18,706.11s1.32,6.39,16.32,3.39,37-8,35-46-6.32-90-5.16-106c0,0-.12-6-7-3"/><path class="cls-4" d="M331.61,290.37s-9.72-19.18.58-28"/><path class="cls-4" d="M357.71,261.73s12.77,8.77,8.28,24.77"/><path class="cls-4" d="M360.42,189.33c20.34-22.1,49-39.74,89.08-41.83,93.92-4.9,114.2,79.69,113.6,114.85"/><path class="cls-4" d="M297.61,293.34s4.89-5.84,15.89-5.84a219.69,219.69,0,0,1,18.31-55.3"/><path class="cls-3" d="M358,203.49c19.77-26.2,50.18-48.76,96.49-50,102-2.71,86,136.87,86,136.87"/><path class="cls-3" d="M325.5,293.63s1.32-7.13-2.34-7.13a190.45,190.45,0,0,1,8.6-32.86"/><path class="cls-4" d="M366.65,283.49h10.41s12.35-8,16.4,0c0,0,5,1,5,6"/><path class="cls-4" d="M384.45,293.34v-3s3.77-4.87,10.41-.87"/><path class="cls-4" d="M332.42,295.21l-1.72.3a6.29,6.29,0,0,0-5.2,6.19v19.75a6.32,6.32,0,0,0,4.92,6.14,27.91,27.91,0,0,0,4.08.6"/><path class="cls-4" d="M333.28,303.79l2.22,37.54H321.72a2.76,2.76,0,0,0-2.76,2.84L321.37,425a4.54,4.54,0,0,0,4.67,4.41l61.83-1.74a4.56,4.56,0,0,0,4.42-4.76l-3.67-79.74a2.76,2.76,0,0,0-2.75-2.63H371.5l-1.56-37.63"/><path class="cls-4" d="M370.3,295.21s4.2-.71,5.2,3.29,2,26,2,26,.05,5.15-6.47,4.57"/><path class="cls-4" d="M559.9,297.16s-2.4-7.66-33.4-8.66c0,0-10.59-9-18.3,0H473.5"/><path class="cls-4" d="M517.5,292.5s8-4,11,3"/><line class="cls-4" x1="393.46" y1="283.49" x2="434.07" y2="286.5"/><path class="cls-4" d="M655,448.17c32.46,51.33,38.73,108,38.73,108"/><path class="cls-4" d="M391.43,404.33c28.59-21.66,66-36.72,114.86-37.41,34.89-.5,63.38,7.56,86.64,20.59"/><path class="cls-4" d="M301.18,571s9.55-82.55,64.1-142.65"/><path class="cls-8" d="M654.33,443.56c34.29,53,41.36,112.64,41.36,112.64"/><path class="cls-8" d="M391.27,400.89c28.78-22,66.27-37.28,115-38,34.77-.49,63.29,7.68,86.64,20.92"/><path class="cls-8" d="M299.18,571s10.06-81.64,63-142.65"/><path class="cls-8" d="M654.54,454.28c25.13,41.11,34.56,85.24,37.41,102"/><path class="cls-8" d="M391.43,409c28.55-22.58,65.95-38.36,114.8-39.06,35-.5,63.57,8,86.86,21.74"/><path class="cls-8" d="M303.11,570.92c3.89-22.12,19.41-91.48,67.3-142.57"/><path class="cls-4" d="M601,295l-3.41,3.2a8,8,0,0,0-2.34,7.46l3.28,15.43a8,8,0,0,0,5.21,5.87l1,.34"/><path class="cls-4" d="M604.5,339.5h2.29a.83.83,0,0,0,.82-.71c2.09-14.05-.66-21.24-2.09-23.87a.82.82,0,0,1,.72-1.21h5.13a1.53,1.53,0,0,0,1.54-1.53v-1.13a1.53,1.53,0,0,0-1.54-1.53h-7.54"/><path class="cls-4" d="M635.41,294.21s6.09.29,7.09,7.29c.81,5.66,2.27,15.89,2.27,21.72a3.28,3.28,0,0,1-3.28,3.28h-2"/><path class="cls-4" d="M635.73,303.17h0a1.75,1.75,0,0,1,1.74,1.58l1.23,12.12"/><path class="cls-4" d="M666.38,706.25v6a3.63,3.63,0,0,1-3.54,3.63l-20.63.48a3.63,3.63,0,0,1-3.71-3.62v-2.57"/><path class="cls-3" d="M240.42,742.13s2.24,4.21,14.66.29,41.42-6.92,60.42-7.92,46-2,49-4"/><path class="cls-4" d="M285,737.11v6.55a2.16,2.16,0,0,0,2.41,2.14l26.24-3.15a2.15,2.15,0,0,0,1.89-2.15l0-6"/><path class="cls-3" d="M361.5,731.5s121-8,159-10,64.76-2.4,65.38-8.7"/><path class="cls-4" d="M238.17,574.5a250.81,250.81,0,0,1-29.67,2c-15,0-17-3-17-3s-4-3,0-6c0,0,2,3,17,3a250.81,250.81,0,0,0,29.67-2"/><path class="cls-4" d="M192.14,558.56s-6.6-31-15.64-26.06c-11,6,15.64,29.83,15.64,29.83"/><path class="cls-8" d="M382.44,345.53l-55.75.79a2.13,2.13,0,0,0-2.1,2.22l2.83,72.83a2.14,2.14,0,0,0,2.21,2.06l56.69-1.86a2.14,2.14,0,0,0,2.07-2.25l-3.78-71.76A2.14,2.14,0,0,0,382.44,345.53Z"/><path class="cls-8" d="M652.21,418.25a2.19,2.19,0,0,0,.18-1l-2.78-69.76a2.14,2.14,0,0,0-2.17-2l-48.75.79a2.13,2.13,0,0,0-2.1,2.22l1.83,69.83a2.14,2.14,0,0,0,2.21,2.06l4.75-.08"/><path class="cls-8" d="M726.82,561.23,653.5,562.5s-26-1-25,26,2.38,105.67-21.31,125.34"/><path class="cls-8" d="M244.36,579l99.77-4.73s26.37-.72,27.07,24.52c.78,27.84,3.75,65.56-4.05,131.76"/><path class="cls-4" d="M466.5,472.5s-47,34-46,61,11,31,14,31,32.16,6,38-29C477.5,505.5,466.5,472.5,466.5,472.5Z"/><path class="cls-4" d="M428,560.71s-4.47,5.79-5.47,15.79-2,27-5,36-36,62-35,76-2.06,30.94,45.47,29,85.53-1,112.53-19c15.35-10.24,23.41-18.55,17.9-56.91"/><path class="cls-4" d="M546.85,544.37a28.16,28.16,0,0,0-4.53,20.53c2.18,12.6,5.18,29.52,5.18,29.52"/><path class="cls-4" d="M549.05,546.6a28.11,28.11,0,0,0-3.73,19.3c2.18,12.6,5.18,28.52,5.18,28.52"/><path class="cls-4" d="M466.5,472.5s26,13,24,59c0,0,10.83-4,32.92,0,0,0-5.56-53,27.76-59"/><path class="cls-4" d="M587.5,584.5a84.39,84.39,0,0,1,5.86,22.41,97,97,0,0,0,4.22,20.89,210.69,210.69,0,0,0,9.61,24.69c7.31,15,6.31,33-7.69,42s-32,12.4-35,18.7"/><path class="cls-4" d="M586.5,509.5s12.42-8.18,13.71-39.09,0-45,0-45"/><path class="cls-8" d="M588.5,510.5s12.42-8.18,13.71-39.09,0-45,0-45"/><path class="cls-8" d="M585.5,504.5s11.67-8.81,12-34c.22-16.28,0-36-.2-45.07"/><path class="cls-4" d="M586,508.69c9.5,22.81,2.5,45.81-8.33,49.54-11,3.79-34.81-9.59-41.86-33.67S533.18,477.4,548.14,473,576.91,486.86,586,508.69Z"/><ellipse class="cls-4" cx="549.5" cy="619" rx="23" ry="24.5"/><circle class="cls-4" cx="454" cy="621" r="24.5"/><ellipse class="cls-6" cx="549.5" cy="619" rx="7.04" ry="7.5"/><circle class="cls-6" cx="454" cy="621" r="6.5"/><path class="cls-10" d="M584.28,509.21c8.84,21.24,2.32,42.65-7.76,46.12-10.25,3.53-32.41-8.93-39-31.35s-2.45-43.91,11.49-48S575.81,488.88,584.28,509.21Z"/><path class="cls-10" d="M464.83,478.52a.86.86,0,0,0-1.34-.44c-6.31,4.75-41,31.9-40.19,53.86.9,24.16,9.84,27.74,12.53,27.74s28.78,5.4,34-25.95C473.78,510,466.57,484.23,464.83,478.52Z"/><path class="cls-4" d="M468.16,549.25c.57-3.68-5.6-27.09-7.26-33.26a.29.29,0,0,1,.52-.24l11.65,15.75"/><path class="cls-10" d="M469.14,472.06a2.24,2.24,0,0,0-3.5-1.16c-10.22,7.77-47.5,37.83-46.58,62.4C420.13,561.76,430.81,566,434,566s34.36,6.35,40.6-30.57C479,509.38,471.82,481.21,469.14,472.06Z"/><ellipse class="cls-10" cx="549.5" cy="619" rx="26" ry="27.7"/><circle class="cls-10" cx="454" cy="621" r="27.5"/><path class="cls-4" d="M624.36,374.29c2.09,2.18,6.82,8.84.15,19.88a1,1,0,0,0,.89,1.58h5.2a1,1,0,0,0,.93-.57c.79-1.61,2.78-6.59,2-14.68-.72-7.23-5.11-9-7.49-9.43a1.82,1.82,0,0,0-2,1.15l0,.12A1.85,1.85,0,0,0,624.36,374.29Z"/><path class="cls-4" d="M633.69,384.34c11,3.67,11.56,16.08,11.56,16.08V417.5"/><path class="cls-4" d="M611.5,417.5V395.75s1.46-13,16.44-12.4"/><path class="cls-4" d="M632.71,392c6.58,2.75,6.94,10.45,6.94,10.45v15.41"/><path class="cls-4" d="M617.1,417.83V399.3a9.66,9.66,0,0,1,9-8.25"/><path class="cls-4" d="M612,417.52l38.88.29a2.37,2.37,0,0,1,2.35,2.26l2,43a2.45,2.45,0,0,1-2.45,2.58H614.5a3.12,3.12,0,0,1-3.12-3L609.6,420A2.37,2.37,0,0,1,612,417.52Z"/><path class="cls-4" d="M611.5,417.5,607.6,419a5.92,5.92,0,0,0-3.83,5.91l2.54,41.06a3.14,3.14,0,0,0,3.22,2.93l40.71-1.29a5.48,5.48,0,0,0,4.72-3"/><line class="cls-4" x1="612.5" y1="464.68" x2="607.5" y2="467.95"/><path class="cls-4" d="M494.35,644h14.57a2.48,2.48,0,0,1,2,4l-7.28,9.7a2.49,2.49,0,0,1-4,0l-7.29-9.7A2.48,2.48,0,0,1,494.35,644Z"/><path class="cls-6" d="M488.82,713.55,495,691.9a2.14,2.14,0,0,1,2-1.4h0a2.12,2.12,0,0,1,2.1,2.41l-2.77,19.52Z"/><path class="cls-4" d="M540.28,535.13l9.43-15.57a.29.29,0,0,1,.53.2l-4.07,23.74"/><path class="cls-10" d="M588,508.23c10.21,24.5,2.65,49.21-9,53.23-11.85,4.07-37.47-10.28-45-36.15s-2.8-50.66,13.32-55.38S578.19,484.78,588,508.23Z"/><path class="cls-10" d="M561.58,639.85s6,37.89-5,49.27-31,21.48-53.5,25.43"/><path class="cls-4" d="M450.46,293.34s1.13-9.86-8.42-9.85-9.73,7.14-9.73,7.14"/><path class="cls-4" d="M388.14,293.38V289.5h50.08a1.9,1.9,0,0,1,1.9,1.9v2.23"/><path class="cls-4" d="M438.22,289.5s8.45-3.32,8.37,3.84"/><path class="cls-4" d="M456.18,293.34s-1.12-8.86,8.42-8.85,9.74,6.14,9.74,6.14"/><path class="cls-4" d="M518.5,295.38V291.5l-50.08-2a1.9,1.9,0,0,0-1.9,1.9v2.23"/><path class="cls-4" d="M468.42,289.5s-8.45-3.32-8.36,3.84"/><line class="cls-4" x1="449.99" y1="288.92" x2="456.89" y2="288.73"/><path class="cls-4" d="M197.38,391s19-54.41,44.56-64.95"/></svg>