<svg id="Layer_1" data-name="Layer 1" xmlns="http://www.w3.org/2000/svg" viewBox="0 0 1920 1080"><defs><style>.cls-1,.cls-2,.cls-3,.cls-4,.cls-5,.cls-6,.cls-7,.cls-8{fill:none;}.cls-1,.cls-10,.cls-2,.cls-3,.cls-4,.cls-5,.cls-6,.cls-7,.cls-8{stroke:#000;stroke-miterlimit:10;}.cls-2,.cls-3{stroke-width:9px;}.cls-3,.cls-4{stroke-linecap:round;}.cls-4,.cls-6{stroke-width:3px;}.cls-10,.cls-5{stroke-width:2px;}.cls-7{stroke-width:4px;}.cls-8{stroke-width:6px;}.cls-10,.cls-9{fill:#fff;}</style></defs><path class="cls-1" d="M1062.2,324.22c90-67.23,22.79-165.24-13.68-180.05-171.15-69.53-183.47,94.58-183.47,94.58-95.72-20.51-169.79,5.7-169.79,5.7s10.26-44.44-25.07-72.93-99.14-42.16-158.4,9.12-65,140.16,14.82,170.93c0,0-54.7,62.67-49,143.58s50.14,168.66,232.46,170.94c0,0-68.37,44.44-91.16,118.51,0,0-31.91,3.42-50.14,18.23,0,0-20.51-37.6-38.74-27.35s-3.57,27.35-3.57,27.35-24.92-18.23-36.32-4.56,5.7,23.93,5.7,23.93-28-5.74-28.83,11.38,42.5,39.9,42.5,39.9-6.83,31.91,6.84,53.56,35.33,37.61,66.1,39.89,143.44,0,143.44,0,29.77-1.14,41.16-10.26c0,0,38.83,10,81.52,11.27,0,0,10.79,18.36,26.74,14.94s10.26-19.37,10.26-19.37,57-2.88,70.08-21.39c0,0,48.43,28.23,79.2-7.1,0,0,11.39,21.65,35.32,21.65s55.84-5.7,67.24-4.56,8,6.84,43.3,8,135.61,1.14,135.61,1.14,41-2.28,55.84-38.75,13.67-119.65-53.56-120.79c0,0-14.82,0-26.21,6.84,0,0-2.28-18.23-10.26-28.49,0,0,103.7-5.7,139-54.7l30.76,12.54s18.24,8,25.07-1.14-4.55-27.35-37.6-36.47a93,93,0,0,1,4.56-12.53s27.73,11.78,35-2.09-7.6-23-27-26.4L1454.2,641s13.68,0,23.93,2.28,30.77,6.84,35.33-2.28,1.14-18.23-12.54-22.79-46.72-6.83-46.72-6.83,5.7-37.61-25.07-76.35c0,0,10.26-22.79,0-43.31,0,0,0-87.74-30.77-87.74s-74.07,20.51-74.07,20.51-23.93-34.19-54.69-29.63-42.17,43.3-42.17,43.3-53.56,0-69.51,1.14a100.05,100.05,0,0,0-43.3-34.18s-8-29.63-23.93-49S1062.2,324.22,1062.2,324.22Z"/><path class="cls-2" d="M559.65,342.45s-62.67-5.7-74.07-57,16-88.88,67.24-114c38.22-18.69,151.56-20.51,121.93,98"/><path class="cls-2" d="M883.29,257s-169.76-43.42-302,67.17-98,256.46,4.53,298.62c103,42.35,298.57,33.05,412.52-8"/><path class="cls-2" d="M1037.13,159c26.76,16,71.79,61.54,47.86,115.1-27.65,61.88-109.4,58.12-140.17,47.86s-93.44-64.95-49-135.61C935.89,122.64,1006.23,140.54,1037.13,159Z"/><path class="cls-2" d="M1031.31,321s57,46.94,60.46,94"/><path class="cls-2" d="M633.72,801.69s4.56-42.16,57-93.44,107.12-69.51,129.91-49c27,24.31-23.93,125.35-80.91,167.51"/><path class="cls-2" d="M784.15,897.41c0,20.57-17.1,46.73-65,49-60.37,2.87-135.68,0-135.68,0s-56.9-6.84-54.62-51.28S572.05,800.81,654.24,804C743.12,807.39,784.15,857.53,784.15,897.41Z"/><circle class="cls-2" cx="994.39" cy="894.57" r="42.73"/><path class="cls-2" d="M934,632.89s72.35,85.61,68.93,157.41c-3,62.61-8.55,61.53-8.55,61.53"/><path class="cls-2" d="M765.11,932.46S805.8,951,870.75,945.28C942.71,939,958,917,958,917"/><path class="cls-2" d="M1050.8,506.55c-9.12-20.51.07-84.1,28.92-92.65,25.78-7.63,69.08,45.93,69.08,45.93s58.06-7.93,88.86,0"/><path class="cls-2" d="M1061.54,497.17s-69.68,46.13-60.88,140c9.12,97.28,72.93,113.23,128.77,117.79s158.4,4.61,193.72-2.28c46.73-9.12,104.3-36.63,109.4-109.4,4.56-64.95-11.39-85.46-22.79-101.42"/><path class="cls-2" d="M1317.46,451.85s34.93-23.29,73.17-28a6.27,6.27,0,0,1,6.38,3.47c4.63,9.46,15.2,35.05,11.61,65.59"/><path class="cls-2" d="M1150.4,756.36s5.24,16.84-6.16,36.22-42.16,55.83-37.6,87.74,32.31,53.56,50.91,57,159.91,2.28,159.91,2.28,42.16-1.14,42.16-58.12-45.58-79.77-77.49-38.74"/><path class="cls-2" d="M1254.49,758.17s37.86,59.78,33.32,181.56"/><path class="cls-2" d="M1194.91,758.17s-1.9,80.83,84.25,70.16"/><path class="cls-2" d="M1200.92,787.2a23.23,23.23,0,0,0-13.37-3.74c-22.79,0-33,23.93-33,37.6V872s1.23,27.77,28.54,27.77c0,0,15.9,3.39,21.6-18.26,0,0,18.23,3.42,19.37-12.53s-12.44-20-12.44-20V807.39"/><circle class="cls-2" cx="1244.53" cy="851.83" r="15.95"/><path class="cls-2" d="M1322,471.22s-10.25-61.53-48.34-58.06c-12.05,1.09-29.42,8.8-40.54,67.18-13.67,71.79,60.4,37.6,60.4,37.6"/><ellipse class="cls-2" cx="1326" cy="504.84" rx="31.34" ry="33.62"/><path class="cls-2" d="M1355.29,492.87s62-14.81,62.77,13.68-36,75-54.66,75.1c-27.71.11-32.17-43.19-32.17-43.19"/><path class="cls-3" d="M1389.25,630.76s58.12-17.09,114,3.42"/><path class="cls-3" d="M1393.81,665s25.07-8,72.93,13.67"/><path class="cls-3" d="M1383.55,696.85s35.33,1.76,83.19,32.22"/><path class="cls-3" d="M1042.82,646.71s-68.3-9.89-89.42,12.15"/><path class="cls-3" d="M1047.38,685.46s-54.15,8.35-65.82,21.27"/><path class="cls-3" d="M1064.48,711.67s-37.61,28.49-52.42,42.16"/><path class="cls-3" d="M1107.64,885.68s-24.93-3.08-38.61,3.76-18.79,16.32-18.51,27.53,6.59,19.19,20.53,19.19,47,0,70.12-5.44"/><path class="cls-3" d="M564.42,829.4s-9.79-29.11-23.83-39.27a.5.5,0,0,0-.75.6C543,797.94,553.38,828,551,839.64"/><path class="cls-3" d="M552.11,842.16s-27.3-33-47.75-33.62a.24.24,0,0,0-.19.39c3.77,4.25,33.77,42,34.35,48.52"/><path class="cls-3" d="M531.9,877.11S494.74,844.36,483.16,838a.54.54,0,0,1,.26-1c9.05,0,41.44,1.42,58,22.85"/><path class="cls-1" d="M823.66,644.5s161.46-5,167.52-124.45-70-239.43-244.51-233.58-222.3,101.89-222.3,101.89"/><line class="cls-4" x1="608.65" y1="549.85" x2="601.82" y2="556.69"/><path class="cls-4" d="M605.24,553.27s24,19.29,52.42,21.65c27.34,2.28,52.26-3.42,75.13-18.23"/><line class="cls-4" x1="730.89" y1="553.27" x2="737.42" y2="561.25"/><path class="cls-5" d="M654.24,514.52s-19.38,0-19.38-14.81,39.51-14.87,39.7,0S654.24,514.52,654.24,514.52Z"/><path class="cls-1" d="M991.18,520.05s28.85,8.15,30-27.18S998,430.65,999.89,415s38.52-25.24,72.63,2.37"/><path class="cls-1" d="M730.89,675.43s29.33-8.21,45.28,7.75,2.28,30.77,13.67,39.88a52.14,52.14,0,0,0,23,10.71"/><path class="cls-1" d="M707.46,693s12.53,53.66,78.79,85.15"/><path class="cls-1" d="M678.8,720.6s-4.52,81.95,86.31,83.23"/><path class="cls-1" d="M822,711.67s47.2-35.85,77.29-44.45c39.89-11.39,59.76,0,59.76,0"/><path class="cls-1" d="M710.27,813.8s-36.66,3.85-37.8,28.92,55.84,27.35,55.84,57-30.7,46.67-30.7,46.67"/><path class="cls-1" d="M657.66,804s-40,48.9-25.68,142.39"/><path class="cls-1" d="M604.58,809.36s-44.93,39-49.48,76.66,4.28,53.36,4.28,53.36"/><path class="cls-1" d="M955.65,596.67s22.76-12.14,25.91-1.56-30.77,31.35-54.27,39.2"/><path class="cls-6" d="M547.12,307.13l-31.91,4.55s-44.44-74.07-3.42-107.11,96.86-30.77,95.73,5.69-60.4,60.4-60.4,60.4Z"/><path class="cls-6" d="M524.37,217.64c7.39-6.52,26.17-21,37.56-11.93s-5.65,29.15-18.78,35.66-25.26,8.54-29.81,0C509.51,234.19,519.46,222,524.37,217.64Z"/><path class="cls-1" d="M581.33,182s31-16.31,43.4-17.37"/><line class="cls-1" x1="607.52" y1="210.26" x2="677.27" y2="212.67"/><line class="cls-1" x1="602.33" y1="227.98" x2="679.63" y2="227.98"/><line class="cls-1" x1="513.34" y1="241.37" x2="550.97" y2="236.25"/><path class="cls-1" d="M547.12,274.69s60.4-5.17,123.07-5.17"/><path class="cls-1" d="M528.89,332.2s32.61-23,85.25-32"/><path class="cls-1" d="M849.31,300.06s-28.7-8.89-28.7-15.73,17.74-4.55,31.66,0,34.54,19.77,53.29,10.46"/><path class="cls-1" d="M688.68,265.59s-13.49,23.59-7.44,28"/><ellipse class="cls-7" cx="1213.76" cy="684.32" rx="19.37" ry="13.67"/><ellipse cx="1097.52" cy="643.86" rx="13.1" ry="18.23"/><ellipse cx="1336.83" cy="650.7" rx="13.1" ry="18.23"/><circle class="cls-7" cx="1291.25" cy="483.76" r="13.1"/><circle class="cls-7" cx="1364.18" cy="527.06" r="13.1"/><path class="cls-1" d="M900.66,400.2c15.59,49.05-11.47,102.06-60.68,110.91s-108.13-26.76-117.5-78.87,20.44-93.48,69.64-102.32S885.57,352.71,900.66,400.2Z"/><path class="cls-1" d="M629.89,442.12c-22.14,47.51-58,77.85-85.63,64.95s-32.14-61.86-10-109.38,61.49-73.51,89.05-60.39C648.54,349.29,652,394.61,629.89,442.12Z"/><path class="cls-8" d="M864.81,406.18c9.43,29.66-6.94,61.72-36.69,67.07s-65.39-16.18-71.06-47.69,12.36-56.54,42.12-61.89S855.69,377.46,864.81,406.18Z"/><path class="cls-8" d="M610.25,431.81c-13.67,29.35-35.8,48.08-52.89,40.12s-19.85-38.21-6.17-67.56,38-45.4,55-37.3C621.77,374.48,623.93,402.47,610.25,431.81Z"/><path d="M836.87,412.23c4.06,12.78-3,26.59-15.81,28.9s-28.18-7-30.62-20.55,5.33-24.36,18.15-26.67S832.94,399.85,836.87,412.23Z"/><path d="M598.67,428.48c-6.74,14.46-17.64,23.69-26.06,19.77s-9.78-18.83-3-33.29,18.71-22.36,27.1-18.37C604.34,400.24,605.41,414,598.67,428.48Z"/><circle class="cls-9" cx="806.94" cy="407.41" r="8.55"/><circle class="cls-9" cx="813.2" cy="417.09" r="4.56"/><circle class="cls-9" cx="822.89" cy="430.2" r="6.27"/><path class="cls-9" d="M589,414.34c-2.41,5.18-6.32,8.49-9.34,7.08s-3.5-6.75-1.09-11.93,6.71-8,9.72-6.59C591.05,404.21,591.43,409.15,589,414.34Z"/><path class="cls-9" d="M591.19,437.51c-1.73,3.72-4.53,6.09-6.69,5.08s-2.51-4.83-.78-8.55,4.8-5.74,7-4.71C592.64,430.26,592.92,433.8,591.19,437.51Z"/><path class="cls-1" d="M1022.31,765.23s3.42,22.79,2.28,37.6-5.71,38.85-5.71,38.85,23.94,7.87,29.64,37.5c0,0,13.68-13.67,37.61-11.39,0,0,1.19-20.22,9.71-34s29-40,31.31-59.41c0,0-54.7-2.28-86.6-25.07Z"/><polygon class="cls-1" points="1003.06 711.67 1012.06 735.8 1022.31 728.76 1005.22 709.39 1003.06 711.67"/><path class="cls-1" d="M974.79,662.1l12.45-3.24s5.22,21.53,8.75,28l-4.81,2.78S980.82,668.36,974.79,662.1Z"/><path class="cls-6" d="M918.75,293.6s-31.78-99,0-126,95.59-12.08,100.14,18.68-9.42,51.48-57.13,70.18l-3.63,37.09Z"/><ellipse class="cls-6" cx="955.65" cy="199.44" rx="29.06" ry="21.08"/><path class="cls-1" d="M939.3,182s24.9.9,26,6.6-14.63,10.41-13,14.89,6.23,5.77,31.84,0"/><path class="cls-1" d="M1019.71,194.69s36.93-5.35,52.81-2.3"/><path class="cls-1" d="M1011.65,223.61a254.07,254.07,0,0,1,75.46-6.11"/><path class="cls-1" d="M886.44,265.36S899.35,255.17,909,253.8"/><line class="cls-1" x1="1080.18" y1="283.3" x2="959.14" y2="283.3"/><line class="cls-1" x1="916.22" y1="284.97" x2="904.63" y2="289.08"/><path d="M856.58,389.06s17.59-5.58,18.73-19.26c0,0,1.4,19.3-14.11,27.31Z"/><path d="M863.21,398.86s25.77-4,29.19-9.69c0,0-6.18,14.64-27.59,17Z"/><path d="M867.48,408s11.33,10.83,28.38,4.56c0,0-9.58,8.93-27.6,5.89Z"/><path d="M554.21,398.43s-8.8-7.55-7.66-15.52c0,0-3.16,20.45,3.55,23.9Z"/><path d="M549.35,408.58s-12.88-2.37-15.82-6c0,0,8.66,12.23,13.69,11.68Z"/><path d="M545.81,418.7S534,423.45,528.32,422c0,0,11.86,5.84,15.61,4.47Z"/><path class="cls-1" d="M1032.54,875.3s-6.81-.68-11.37-.68c-6.83,0-15.21,13.86-2.51,21a.57.57,0,0,1-.08,1c-2.58.82-7.66,3.39-7.66,11,0,10.26,13.24,11.77,20.87,7.59"/><path class="cls-1" d="M1032.54,905.1s-7.1-.21-7.1-9.07,9.41-5.45,9.41-5.45"/><ellipse class="cls-5" cx="854.23" cy="862.09" rx="23.36" ry="20.51"/><ellipse class="cls-5" cx="845.68" cy="852.4" rx="3.42" ry="2.56" transform="translate(-315.36 1158.58) rotate(-60)"/><ellipse class="cls-5" cx="863.91" cy="852.4" rx="2.56" ry="3.42" transform="matrix(0.87, -0.5, 0.5, 0.87, -310.46, 546.16)"/><path class="cls-5" d="M841.12,864.37s-1.14-4.79,13.11-4.79,13.1,3.65,13.1,3.65-3.42,12.25-13.1,12.25S841.12,864.37,841.12,864.37Z"/><path class="cls-5" d="M850.18,841.89s-6.78-19.69,9.18-19.69,5.69,21.22,5.69,21.22"/><path class="cls-5" d="M865.85,844.29s3.76-22.09,18.58-14.11c10.85,5.84,1.14,22.79-9.29,22.76"/><path class="cls-5" d="M875.75,854.11s23.32-14.91,24.63,3.42c1.14,16-23.3,8.84-23.3,8.84"/><path class="cls-5" d="M849.07,829.84s-4.53-8.78-13.64-4.22-4.92,18.21,2.66,21.64"/><path class="cls-5" d="M831.27,839.51s-14.08-4.77-14.08,6.62S831.6,857,831.6,857"/><path class="cls-5" d="M820.71,853.84s-11.49.27-11.49,11.67,12.88,10.25,12.88,10.25"/><path class="cls-5" d="M833.92,872.23s-16.73.11-14.45,11.51,20.51,5.7,20.51,5.7"/><path class="cls-5" d="M845.68,881.18s-5.86,2-5.78,9.68,4.64,10,11.48,10,10.26-5.69,10.26-9.11"/><path class="cls-5" d="M862.77,881.18s-1.13,2.56-1.13,8.26,5.69,8,9.11,8S883.29,894,881,883.74"/><path class="cls-5" d="M873.28,874s2,10.92,13.43,10.92,13.1-13.65,4.27-17.08"/><path class="cls-10" d="M855.8,899.92s-1,8.89.38,31.75c1.38,22.7,28.39,36.85,18,39.82-8,2.27-19.37-18.24-23.4-29.27s-2.7-41.39-2.7-41.39h4A11.92,11.92,0,0,0,855.8,899.92Z"/><path class="cls-10" d="M855.6,919.25c14.48,1.32,39.08-7,29.33-18.42s-29.48,10-29.48,10Z"/><path class="cls-10" d="M848,921.09c-25,2-27.4-8.86-27.4-11.14s0-6.84,9-7.37,18.24,11.27,18.24,11.27Z"/><path class="cls-10" d="M851.78,944.81c-4.15-.46-28.12-6-24.33-15.49,4.56-11.39,21.26,2.35,21.26,2.35A34.5,34.5,0,0,0,850.1,940,32.85,32.85,0,0,0,851.78,944.81Z"/><path class="cls-10" d="M856.72,935.79s17.45-22.42,24.65-11c6.61,10.5-18.42,16.09-22.58,16.94l-1.19-3.42Z"/><path class="cls-10" d="M853.33,948.33S840,940,840,948.33,856.72,955,856.72,955Z"/><path class="cls-10" d="M865.92,954.4c4.29,0,17.37-5.71,11.43-9.78-5.27-3.61-13.13,3.33-14.82,4.93Z"/></svg>