<svg id="Layer_1" data-name="Layer 1" xmlns="http://www.w3.org/2000/svg" viewBox="0 0 1920 1080"><defs><style>.cls-1,.cls-2,.cls-3,.cls-4,.cls-5,.cls-7,.cls-8{fill:none;stroke:#000;stroke-miterlimit:10;}.cls-1{stroke-width:3px;}.cls-3,.cls-8{stroke-width:0.75px;}.cls-3,.cls-4{stroke-dasharray:3;}.cls-5{stroke-width:0.5px;}.cls-6{fill:#fff;}.cls-7{stroke-width:2px;}</style></defs><path class="cls-1" d="M635.9,293.37s-34-3.92-52.37-18.33-26.19-24.88-31.43-28.81-15.72-9.16-18.33-13.09-3.93-10.48-6.55-15.71-11.79-23.57-7.86-32.74,18.33-74.64,27.5-78.57,28.81,5.24,45.83,7.86,23.57,3.93,23.57,3.93"/><path class="cls-1" d="M612.33,129.69s1.31-13.09,9.17-14.4,65.47-1.31,76-2.62,31.42-3.93,38-2.62,29.71,15.71,31.88,19.64,12.64,47.14,10,68.09-9.16,41.91-35.35,58.93-35.36,37.15-84.46,38.22"/><path class="cls-2" d="M550.71,109.69s.08,8.22.08,13.46,3.93,11.78,3.93,19.64"/><path class="cls-1" d="M639.83,229.21s-2.62,0-2.62-3.93-5.23-34.73,0-35.7,39.29-7.51,41.91-6.2,2.61,6.55,2.61,6.55"/><path class="cls-2" d="M641.14,226.59s-3.93-1.31,3.93-9.16,28.81-34.05,34-34.05"/><path class="cls-2" d="M655.55,210.88s-17,13.09-17,23.57h3.42s.32-5.24,5.65-5.24,5.34,9.17,5.34,9.17H656Z"/><path class="cls-1" d="M696.14,195.17s-14.41-7.86-18.33-5.24-22.26,20.95-22.26,20.95"/><path class="cls-1" d="M655,238.38s.58,45.83.58,61.54-1.31,113.92-1.31,133.57,2.61,148,2.61,172.84,2.62,295.94,2.62,322.13v30.12s1.31,2.62,14.41,2.62,78.56,1.31,95.59,2.61,48.45,2.62,69.4,6.55S952.79,975.6,962,974.29s7.85-11.78,7.85-11.78l.07-18.5"/><path class="cls-2" d="M638.32,245.57s1.51,53,2.82,58.28c0,0,11.79,1,13.1-6.69l1.31-58.78"/><path class="cls-2" d="M721,119.22s-5.24,6.54-5.24,9.16,5.24,49,5.24,49"/><path class="cls-2" d="M715.78,130.61s3.93.92,5.24,0,3.93-12.7,9.16-14"/><path class="cls-1" d="M757.68,142.79s-9.16,11.78-11.78,14.4-15.72,17-18.33,18.33-26.13,8.1-28.78,13.87-4.85,7-3.75,19.48"/><path class="cls-1" d="M777.74,186.42s.75-2.2,15.23,0,98.53,21.76,102.33,22.45,10.35.7,18.21,8.56c0,0,7.85,7.85,11.78,7.85s10.48,5.24,13.1,6.55,9.16,2.62,11.78,11.79,45.83,87.73,51.07,98.2,7.86,27.5,10.48,31.43,14.4,19.64,21,31.43,2.62,28.81,2.62,28.81"/><path class="cls-1" d="M1036.37,418.93a36.86,36.86,0,0,1,4.15,8c1.31,3.93,13.1,19.64,21,39.28s36.66,85.12,40.59,100.83,23.57,69.4,24.88,73.33-15.71,31.43-28.81,40.59"/><path class="cls-1" d="M1127,640.38s7.86,10.48,6.55,17-2.48,2.71-3.2,11.18-7.28,17.63-11.21,22.87-14.4,52.38-26.19,52.38S954.1,739.9,941,737.28"/><path class="cls-1" d="M1092.9,743.83s5.24,17.13,0,32.79-6.54,30.06-9.16,39.23-11.79,40.59-14.41,49.76-3.93,18.33-5.24,22.26-13.09,11.78-14.4,15.71-9.17,5.24-9.17,5.24-11.76-1.31-15.7,0-13.1,7.85-22.27,7.85a95.78,95.78,0,0,1-19.64-2.61s0-7.86-5.24-6.55-1.31,7.86-13.09,7.86-25.35,2.61-30.35,1.3a55.07,55.07,0,0,0-11.56-1.3,454.44,454.44,0,0,1,0-91.78c5.24-48.34,1.31-56.19,1.31-61.43s3.93-9.17,3.93-13.1-3.93-9.16-2.62-17,3.93-20.95,3.93-27.5S927.91,664,927.91,660s2.62-41.9,2.62-53.69,1.31-34,1.31-48.45S939.7,403.37,941,381.11s6.54-48.45,5.23-60.24-9.16-24.88-10.47-34,1.31-24.88-2.62-34"/><path class="cls-2" d="M908.27,222.66s-13.09,27.5-14.4,43.22"/><path class="cls-2" d="M893.87,214.48V271c0,11.95-6.55,34.21-6.55,61.71s5.24,101.69,6.55,117,9.16,24.45,10.47,31,13.68,23.44,16,25.47c0,0,5.79,23.92,12.57,24.76"/><path class="cls-1" d="M922.67,915.37s-5.23,27.49,19.65,28.8,35.35-1.31,57.61-2.62,34.05,2.62,38-6.54,9.16-21,11.78-31.43"/><path class="cls-1" d="M518.4,191.44s-31.77-.2-48.8,3.73-51.07,15.71-62.85,17-24.88,9.16-26.19,13.09,13.09,28.81,14.4,39.29,10.48,44.52,11.79,65.47-3.93,69.4-3.93,79.88-1.31,61.54-2.62,64.16S374,495,372.7,505.51"/><path class="cls-1" d="M382.43,222.75s-11-1.4-17.58,7.77S290.21,352.3,287.59,373.25c0,0-11.79,13.1-15.71,18.33s-5.24,11.79-7.86,15.72-56.31,116.54-60.24,154.51c0,0-10.47,27.5-15.71,36.67s-6.55,14.4-7.86,26.19c0,0-7.85,10.47-7.85,14.4s11.78,24.88,14.4,32.74,9.17,23.57,14.4,30.11,3.93,30.12,14.41,40.6A152,152,0,0,0,226,785.73a464.81,464.81,0,0,1,15.72,45.83"/><path class="cls-1" d="M247,783.11s-7.86,41.9-3.93,57.62,9.16,20.95,9.16,20.95"/><path class="cls-1" d="M300.68,898.34c-2.62,7.86-35.35,17-40.59,13.1S252.23,897,250.92,880s5.24-60.24,5.24-60.24"/><path class="cls-1" d="M258.51,910.27s.27,30,13.37,30a129.66,129.66,0,0,0,24.87-2.61s38-1.31,44.53-1.31,21-1.31,27.49-3.93c4.39-1.76,7.86-11.79,7.86-27.5"/><path class="cls-1" d="M364.85,237.07s0,48.45-1.31,53.69"/><path class="cls-1" d="M359.61,276.35c0,1.31,5.24,18.83,5.24,24.48s-3.93,4.33-3.93,22.66-2.62,40.59-6.55,45.83"/><path class="cls-1" d="M351.75,366.7s2.62,2.62,5.24,14.41,6.55,36.66,6.55,57.61c0,0,9.16,52.14,9.16,71.25s1.31,31.15,0,36.26c0,0-1.45,14.38.59,23.49s3.34,7.81,3.34,40.54V702A43.09,43.09,0,0,1,374,716.33l-2.62,10.47s6.55,10.48,7.86,31.43,5.24,52.38,5.24,79.88,0,58.92-3.93,62.85-6,3.93-16.07,3.93-40.61,5.24-54.83,0"/><path class="cls-2" d="M296.75,937.63s-10.47-14.71,0-27.65"/><path class="cls-2" d="M311.16,910.13s10.41,14.33,6.51,26.81"/><path class="cls-2" d="M322.71,910s18.21,5.08,30.17,0c0,0-10.29,18.48-11.6,26.34"/><path class="cls-2" d="M216.88,739.9s6.55-5.24,14.4-6.55,7.86,3.93,18.33-2.62"/><path class="cls-2" d="M242,728.68s6.82,3.36,23.6,2.05,61.3-5.24,65.23-5.24,3.93-1.31,9.17-1.31A16.59,16.59,0,0,0,351.75,719"/><path class="cls-2" d="M347.07,714.76s6,.26,6,9.42-1.31,14.41,5.24,18.34"/><path class="cls-2" d="M339.83,714.76S366.16,698,372.7,700.61L375,713.48"/><path class="cls-2" d="M372.7,546.23s-14.78.12-31.61,0S253.54,550,231.28,554s-24.79,4-24.79,4"/><path class="cls-2" d="M350.44,310.4s9,12.94,10.41,18.25"/><path class="cls-2" d="M350.44,355.36s-5.69,11.34-4.81,14,4.81,5.18,4.81,5.18"/><path class="cls-2" d="M299.22,366.7s31.58-7.85,42.06-7.85"/><path class="cls-2" d="M377.94,229.21s-13.09,7.64,6.55,23.46"/><path class="cls-2" d="M368.84,240.94s5,15.23,24.09,16.16"/><path class="cls-2" d="M367.68,249s7.64,15.37-2.83,21.35"/><path class="cls-2" d="M634.05,395.49s-3.89-1.34-5.6,0-1.71,3.95-12.19,5.26-213.24,4-213.24,4"/><path class="cls-2" d="M655.55,394.89s2.61-.69,9.16,1.93,213.54,8.48,225.93,7.51"/><path class="cls-2" d="M439.27,602.3l23.17,5.56a4.36,4.36,0,0,1,3.16,5.53C460,631.57,439,700.73,435.56,731c-3.93,35.06-13.1,118.86-13.1,118.86S395,844.65,392.35,842c0,0,15.71-113.93,19.64-130.95s7.85-38,10.47-49.76S431.78,637,431.78,637l2.11-30.71A4.37,4.37,0,0,1,439.27,602.3Z"/><path class="cls-2" d="M837.89,611.14c5.67-.83,18.11-2.61,24.84-3.26a4.11,4.11,0,0,1,4.4,3.23c1.15,5.33,3.17,15.41,3.17,20.1,0,6.55,14.4,54.25,17,74.27s5.24,50.13,9.16,64.54c3.62,13.23,11.45,56.55,13.3,71a3.81,3.81,0,0,1-2.58,4.1c-4.72,1.58-14.09,4.58-20.16,5.67a3.81,3.81,0,0,1-4.39-2.94c-3.89-17.6-21.95-99.19-25.45-113.19-3.75-15-25.41-94.46-22.8-119.86A4.11,4.11,0,0,1,837.89,611.14Z"/><path class="cls-1" d="M330.26,936.56v25.15s3,7.64,16.81,6.18,7.3-.78,29.56.19,129.64-.34,161.06-4.27a672.63,672.63,0,0,1,81.09-5.23h21.05c-1.31-18.34-1.31-259.27-1.31-282.85s-2.62-184.63-3.93-222.6,0-77.26,1.31-110.82,2.62-107.86,2.62-107.86"/><path class="cls-1" d="M862.44,972.63s-80.09,2.64-126.47,2.15-132-1.19-167.08-2.15S492.52,971.52,483,967"/><path class="cls-2" d="M337.8,943.14s8.68-6.89,17.21-6.2,74.7,5.92,160.12-.62,55.53-8.07,118.92-10.58"/><path class="cls-2" d="M669.06,925.74s27.08,2.72,49.34,2.72,62.47,5.72,89.51,8.1,62.78,7,92.05,8,53.37,0,53.37,0"/><path class="cls-2" d="M882.35,846.5s-18.6-105.29-21.22-122.32-9.17-61.54-11.79-69.4-15.52-31.49-9.72-43.9"/><path class="cls-2" d="M1102.07,567.05s-123.09-3.93-151.9-3.93"/><path class="cls-2" d="M931.51,573.83s-61.21-4.16-75.62-4.16-145.8,5.7-166.52,4.16"/><path class="cls-2" d="M927.91,749.06s-24.75,1.31-35.29,0"/><path class="cls-2" d="M860.24,749.65s-35.31-.73-62.39,0-101.35-2-121.83,0"/><path class="cls-2" d="M634.05,752.47s-85.19-3.77-115.65-3.59-65.73,0-65.73,0"/><path class="cls-2" d="M634.05,571.88s-49.39-2.21-103.64-2.21-97.47,0-105.33-2.62-23.57-3.93-40.59,0"/><path class="cls-3" d="M410.32,394.89s93.33-3.31,120.83-3.31,93-1.31,98.21-2.62"/><path class="cls-2" d="M626.9,191.44a185.3,185.3,0,0,1,5,19.44c1.35,7.86,0,80.42,0,90.62s-2.57,86.74-2.57,115.26,3.71,113.24,3.16,131.11,1,91.76,1.53,111.77-.54,125.36,0,140.79,2.39,130.78.16,156.25"/><path class="cls-2" d="M666.5,200.14s-4.41,40.86-4.41,63.12S659.8,349.71,659.64,368s.16,67.74,0,103.26,1.14,292.18,1.14,326.22S663,960.25,663,960.25"/><path class="cls-2" d="M568,157.08s-.2-20.84-4.13-27.39c0,0,7-9.16,10-10.47s17.46,6.54,24,9.16,11.78,6.5,14.4,6.52.16-2.55,3.36-3.88,8-2.6,15.4,0,4.61,4.29,15.84,4.76,29.57-.85,34.8-2.16,15.28-5.2,27.94-2.6c0,0-29.25,16.66-30.55,28S669,184.08,669,184.08"/><path class="cls-2" d="M604.48,163.74s-3.39-7.3-3-12.16,10.86-10.87,10.86-10.87"/><path class="cls-2" d="M638.52,169.71s-7.85,10.36-1.31,19.87"/><path class="cls-1" d="M525.82,162.53s10.56-38.08,19.73-28.91c0,0,13.1,14.41,19.64,20.95s26.19,18.33,26.19,18.33,5.24,1.31,11.79,7.86,9.16,11.79,32.73,10.48"/><path class="cls-2" d="M550.71,116.6a79.35,79.35,0,0,1-5.16,17"/><path class="cls-2" d="M718.4,155.79s5.43,1.22,6.64,0,2.53-9.49,5.14-9.28a48,48,0,0,0,5.89,0s-2.62,19-4.25,25.34"/><path class="cls-2" d="M725,155.79s5.14,4,2.53,19.73"/><path class="cls-2" d="M726.22,119.22s13.13-1.31,14.44,5.23,4,20.53,5.27,22,2.16,8.24,2.16,8.24"/><path class="cls-2" d="M745.9,157.19s10.87-4.11,16.56-1.4,14,19.73,14,19.73"/><path class="cls-2" d="M698.79,189.39s13.06-5.39,24.19.19,26.85,27.85,32.08,31.77a102.57,102.57,0,0,0,13.16,7.86"/><line class="cls-2" x1="670.48" y1="294.13" x2="661.9" y2="278.78"/><path class="cls-2" d="M661.9,267.47s12-7.48,19.83-15.67,16.88-22.05,13-47.86"/><path class="cls-2" d="M655.62,215.06s15.58-8.37,16.92-6.93-.38,25-17.2,39.42"/><path class="cls-2" d="M719.79,166.43s-15,6.67-15.41,18.36"/><path class="cls-2" d="M771.29,222.66s12.33-13.17,24.24-13.79,36.79,4.63,47.27,4.63,51.07-2.62,53.68,3.93,19.67,2.44,19.67,2.44"/><path class="cls-2" d="M736.07,260.78a149.16,149.16,0,0,0,16.37-1.45c9.17-1.31,12.62-6.55,24,0s48,36.66,52,48.45c0,0,11.79-7.86,23.57-7.86s29.84-1.29,39.15-7.19"/><path class="cls-2" d="M887.83,352.75s-7.06,10-22.77,10c0,0,15.71,19.64,17,24.88s.76,16.78.76,16.78"/><path class="cls-2" d="M872.91,285.52s-2,19.08-1.67,23.94S886,362.78,886,362.78"/><path class="cls-3" d="M654.63,389s83.41,1.31,125.31,2.62,102.24,3.84,110.7,3.23"/><path class="cls-2" d="M696.14,288s3.93,15.12,0,17.43-36.67-8.81-40.59-7.83"/><path class="cls-2" d="M782,309.46S756.92,282.29,739,281.94s-8.79,23.22-8.79,23.22Z"/><path class="cls-2" d="M568.67,262.3s2.16,4.14,0,5.17-15.26,10.19-16.57,16.74-.44,13.18-2.84,19.69-7.64,17-5,26.14,5.24,15.71,5.24,30.12,13,30,8.48,34.65-9.79,2-15-8.46-7.85-11.79-7.85-11.79,11.95,21.92,11.86,28"/><path class="cls-2" d="M445.55,201.87s13.58,5.08,17.51,16.87,9.16,22.26,14.4,27.49,12.44,8.59,14.08,13.46,22.58,73,23.89,75.59c0,0-3.92-20.95,1.31-35.36s17-23.57,14.41-45.83c0,0-11.79,2.62-18.34-3.93s-9.16-11.78-14.4-18.33-17-7.86-19.64-14.4-6-17.18-14.13-21"/><path class="cls-2" d="M403.82,212.65s9.48,6.09,13.4,13.94,1.24,10.37,5.86,14.35,12.15,9.95,16.24,18.75,11.95,29.76,15.88,36.3,15.46,20.95,19.51,39.29,15.84,35.35,21.08,43.21,9.58,15.47,9.38,24.76"/><path class="cls-2" d="M406.94,335.28s1.71,6.46,3.38,11.09,5.6,5.93,5.6,11.17-1.31,12.27,0,14.64a24.37,24.37,0,0,1,2.61,11.55c0,5.23,10.65,9.3,11.22,21"/><path class="cls-2" d="M372.7,541.52s-9.2,12.52-9.18,16.41,1.33,13.05-5.22,20.91S340,607.64,338.66,609c0,0-10.48-15.71-21-18.33s-26.19-2.62-31.43-6.55-19.2-12.05-29.89-15.84-25.11-9-34.27-9a76.62,76.62,0,0,0-18.34,2.62"/><path class="cls-2" d="M203.78,586.55s3.93,18.47,3.93,29S209,644.31,209,644.31a111.46,111.46,0,0,0,17,6.55c9.17,2.61,22.27,5.23,30.12,9.16s23.57,14.41,23.57,14.41L315.09,643s-5.24-11.79-13.1-17-22.26-17-28.81-21-18.33-7.85-27.49-9.16S235.21,586.4,203.78,586.55Z"/><path class="cls-2" d="M214.26,670.5s9.17,44.52,24.88,51.07L259.44,696S248.72,680.45,242,677.44,219.5,673.12,214.26,670.5Z"/><path class="cls-2" d="M384,819.77s-15.23-17.56-32.25-25.15-39.28-16.2-51.07-26.3a90,90,0,0,1-18.33-21.87s13.75-1.31,25.86-6.55S340,724.18,340,724.18"/><path class="cls-2" d="M372.58,722s-10.13-6.52-21.37-4.8"/><path class="cls-2" d="M364.49,904.89c2.25-5.24,3-19.64,3-19.64s-13.1-2.62-26.19-6.55-30.12-21-44.53-34-27.12-22.32-27.12-22.32,6,14.09,6.09,21.45-1.23,48.78,25,49"/><path class="cls-2" d="M298.06,883.94s5.22,4.17,5.41,13.46a8.42,8.42,0,0,0,6.13,7.83,32.92,32.92,0,0,0,5.25,1"/><path class="cls-2" d="M639.83,958.58s15.72,1.31,19.64,0"/><path class="cls-2" d="M920.35,872.36s16.5,6.82,33,6.58,29.58-2.86,34.82-1.55,27.5,13.1,41.9,14.4,29.79,1.23,29.79,1.23"/><path class="cls-2" d="M921.34,838.88a139.4,139.4,0,0,0,23.59,4.47,254.18,254.18,0,0,1,38.86,7.5c10.9,3,18.76,6.9,42.33,9.52S1068,863,1068,863l3.93-22.26s-17,6.34-22.26,7.75-13.09,4-19.64,4-15.71-2.82-22.26-4-34-3.83-41.9-6.44-37.06-10.7-42.1-29.58"/><path class="cls-2" d="M924.55,758.62s4.67,15.32,13.84,19.25,22.26,14.41,38,13.1,20.95-5.05,31.43-5.14,44.52,1.21,47.14-1.41c0,0,1.31-21.31,0-27s-7.86-8.34-5.24-18.81,5.24-34.05-9.17-44.52-20.95-21-22.26-27.5,9.17-26.19,9.17-35.36-6.45-17.84-11.73-24.63-11.84-16-24.93-18.58-10-.94-14.81-3.09-15.31-8.69-15.31-8.69-13.1,9.16-15.72,13.09-5.23,6.55-6.54,9.17-8.29,8.88-8.08,16.22"/><path class="cls-2" d="M927.91,660s9.17,5.15,13.1,9.78,21,34.74,32.73,42.6"/><path class="cls-2" d="M946.24,687.52s9.17,17,22.26,27.5"/><path class="cls-2" d="M929.22,730.73s11.79-6.25,17-6.4,11.13,5,11.13,5"/><path class="cls-2" d="M1096.26,742.6s5.81-28.89,3.19-43.29-6.7-29.68-17.75-44.31-13.68-27.71-7.13-31.64,15.71,1.31,32.74,22.26,21.09,26.3,19.71,33.44"/><path class="cls-2" d="M937.71,439.74s4.61,22.55,25.56,23.86c16.22,1,38.73,6.74,48.06,9.28a5.83,5.83,0,0,1,4.32,5.63v16.37s-2.62,13.24-11.79,15.86-18.33,6.55-22.26,7.86-9,7.07-11.72,8.77-11.85-1.6-19.71,7.25c-5.27,6-4.64,15-3.66,20.29a8.55,8.55,0,0,1-2.67,7.88c-3.69,3.35-9.24,7.7-12.33,6.88"/><path class="cls-2" d="M1070.38,487.57s-8.9-8.25-16.76-9.56c0,0,7.86,33.88,0,41.82s-18.33,6.63-24.88,9.25-22.26,10.47-22.26,10.47,21,13.1,27.5,13.1,27,11.78,36.4,17c8.15,4.53,23.7,11.67,27.77,13.52a.2.2,0,0,0,.23-.32c-2.94-3-13.33-14.31-13.33-21.06,0-7.85-3.19-42.8-6.18-54.14"/><path class="cls-2" d="M1043.66,921.37s-7.85-1.72-10.08,2.68-16.27,15.61-19.72,17.21"/><path class="cls-2" d="M958.36,917s-1,26.41,1.94,27.43"/><path class="cls-2" d="M964.58,919.29s1.86,22.24,2.89,24.87"/><path class="cls-2" d="M980.79,917s-3.22,20-9.06,26.83"/><path class="cls-2" d="M996.64,921s0,18.93-4.25,21"/><path class="cls-2" d="M1016.73,912.73s-1.08,21-5,24.9"/><path class="cls-2" d="M1028.76,908.27s-6.2,14.49-5.08,25.85"/><path class="cls-2" d="M360.92,323.49s16.67-11.78,18.16-13.09-2.45-5.24-1.14-10.48,9.17-11.78,9.17-18.33,1.17-17.6,5.82-21.9c0,0,11.2,3.57,12.17,10.68s10.82,21.69,12.12,25.62a47.62,47.62,0,0,0,8.18,14.41c4.25,5.24,6.23,17,9.28,22s.88,14.64,2.19,18.57,13.09,24.88,19.64,35.36,2.83,16.9,2.83,16.9"/><path class="cls-4" d="M641.14,303.85s-1.31,117.34,0,156.23,2.62,358.64,8.51,484.87"/><path class="cls-4" d="M649,303.85s-3.93,117.34-2.62,156.23S649,818.72,654.89,945"/><path class="cls-2" d="M657.51,945h-12.4v10.57s9.13,2.18,14.36,0"/><path class="cls-5" d="M565.22,402.2s5.21,60.09,14.38,71.88,22.48,27.5,54.45,31.43"/><path class="cls-5" d="M403.82,418.88s9.48,26.39,18.64,25.08,18.68-8.43,23.09-19.27,8.95-19.94,8.95-19.94"/><path class="cls-5" d="M634.59,572.29c-22.85-2.62-73.33-15.72-125.32-20.22s-74,5.86-74,5.86,30.57,17.07,42.93,22.26,27.46,5.58,40.21,13.9,19.29,13.55,36.32,18.79,65.34,24.6,79.16,39.8"/><path class="cls-5" d="M396,478.22s1.59,14.19,5.52,20.74S446,546.1,451.27,548.72c0,0-43.21-27.5-51.07-38S389.53,493.6,389,484.49"/><path class="cls-5" d="M759.94,401.43s11,22.89,15.48,32.06,9.76,39.28,15,56.3,9.38,40.6,15.17,52.38,14.73,27.59,22,38,12.55,26.14,21.71,35.31,22.8,32.88,33,40.66,17.83,10.78,27.77,17.79a148.47,148.47,0,0,1,18.74,16.24"/><path class="cls-5" d="M804.43,402.77S814,411.23,815.3,423s2.62,24.88,5.24,31.43,2.64,37.78,7.87,50.32,17,36.1,30.1,51.81,16.25,32.74,23.84,45.83,15.9,25.75,27.46,30.56,19.41,7.42,19.41,7.42"/><path class="cls-5" d="M660.55,730.73s27.73,36.67,35.59,44.52,19.64,24.88,27.5,31.43,17,28.81,19.64,41.9,6.55,28.81,13.09,38,4.2,43.06,5.38,45.1,15.46,22.15,10.93,32.39"/><path class="cls-5" d="M659.59,697.93s56.19,45.9,69.28,62.92,30.07,46,39.26,68.2,24.91,37.87,27.53,68-2.62,36.87,0,40.7,9.12,20.21,7.18,28.39"/><path class="cls-2" d="M944.43,312.51s-10-2.67-15.21-3.05-9.17.94-15.71-4.3-19.94-10.61-21.76-16.43"/><path class="cls-2" d="M887.32,328.58s11.55,11.74,22.8,13.15,32.51,1.62,34.31,6.75"/><path class="cls-2" d="M943.91,352.75s-8.14.86-17.31,13.95-15.13,19-6.25,31.11,18.88,21.55,12.57,37.13l-6.32,15.57s-9.16-13.1-14.4-15.71-19.92-17-21.09-26.16"/><path class="cls-2" d="M893.38,443.65s11.27,17.65,18.23,22.77a3,3,0,0,1,1,3.57c-1,2.42-2.65,5.88-4.31,6.71,0,0-9-6-9.72-9.53"/><path class="cls-5" d="M659.7,518.86S683,531.7,694.83,539.55s40.59,31.43,52.38,36.67,78.36,34.41,93.52,56.48S876.51,657,880,671.61"/><path class="cls-5" d="M660,592s20.45,10.45,42.72,23.54,65.47,40.59,64.16,49.76S738,692.76,738,712.4s5.24,49.76,10.48,58.93,34,41.9,40.59,58.92,7.86,45.83,11.78,58.93,21.34,49.25,41.45,50.81,22.22,26.16,37.53,33.5"/><path class="cls-5" d="M862.18,756.1s-36.41-66-56-51.56,22.26,51.07,24.88,69.4,11.32,51.27,29.23,80.63,32.65,58.53,41.65,69.48,34.57,19.21,34.57,19.21"/><path class="cls-5" d="M403,564.57c19.79,1.45,61.4,35.22,75.42,42s71.09,28.56,89.42,36.42,59.09,35.21,59.09,35.21-31.59,22.4-52.54,32.88-64.16,44.52-79.88,45.83c0,0-34.72-61.49-48.13-76.58"/><path class="cls-5" d="M438.23,714.76s36.5,61,35.9,68-42.45,31.81-48.37,37"/><path class="cls-5" d="M406.07,846.41s-17.65,9.93-21.58,9.32"/><path class="cls-5" d="M372.58,938.1s6.67-12.26,15.84-20.12,35.35-40.59,43.21-47.14S480.84,823.7,485,822.39s9.44-2.62,9.44,5.24,23.57,72,34,86.43,17.46,18.88,19.86,29.08,7.35,16,7.35,16"/><path class="cls-5" d="M634.18,697.93s-31,26.25-46.73,38-68.09,41.9-69.4,51.07,31.43,68.09,41.91,85.11,26.18,55,32.73,60.24,11.39,26.19,11.39,26.19"/><g id="fO1EOa.tif"><path d="M796.94,323.41a1.81,1.81,0,0,0,.31,0,38.21,38.21,0,0,1,15.55,4A35,35,0,0,1,823.55,336a36.75,36.75,0,0,1,6.6,11.31,41.2,41.2,0,0,1,2.18,8.8,44.86,44.86,0,0,1,.38,6.95c-.09,3.64-.14,7.29-.21,10.93v.33L817.76,374v-.34c.06-3.38.13-6.76.19-10.14,0-.95,0-1.91,0-2.86a27.26,27.26,0,0,0-1.41-8.87,18.68,18.68,0,0,0-4.07-6.84,17.53,17.53,0,0,0-7.81-4.77,21.05,21.05,0,0,0-5.68-.9l-3.09-.06h-.34c0-.12,0-.21,0-.3l.3-15.23a2.4,2.4,0,0,1,0-.28Z"/><path d="M727.06,340l2.89.06h.45l5.72,10.51a.4.4,0,0,0,.06-.31c0-1.36.06-2.72.08-4.08l.11-5.63v-.36l2.89.06L739,355.23h-.29l-2.53-.05a.42.42,0,0,1-.43-.27c-1.85-3.4-3.72-6.8-5.58-10.21l-.16-.28-.06,0-.2,10.58-.19,0-2.61-.05-.16,0Z"/><path d="M816.47,374l-11.92-.23v-.35l.15-8a12.24,12.24,0,0,0-.6-4.21,7.84,7.84,0,0,0-1.47-2.63,6.21,6.21,0,0,0-3.85-2.09c-.64-.09-1.3-.09-1.95-.12-.41,0-.83,0-1.25,0h-.31l.3-15.82.22,0c1.35,0,2.71,0,4.05.1a17.43,17.43,0,0,1,9.42,3.19,16.22,16.22,0,0,1,5.34,6.52,22.1,22.1,0,0,1,1.88,6.76,30.22,30.22,0,0,1,.22,4.46q-.11,6-.23,12Z"/><path d="M795.28,357.6a32.19,32.19,0,0,1,3.26.13,5.09,5.09,0,0,1,3.85,2.72,8.6,8.6,0,0,1,.93,3,15.08,15.08,0,0,1,.11,2.23l-.15,7.73v.34l-8.3-.16C794.92,373.35,795.2,358,795.28,357.6Z"/><path d="M758,349.77l-.11,5.81-3-.05.29-14.92.21,0,7.42.14a5.76,5.76,0,0,1,1.7.28,3.93,3.93,0,0,1,2.76,3.28,4.22,4.22,0,0,1-.36,2.57,3.17,3.17,0,0,1-1.71,1.61l-.21.1.24.14a2.38,2.38,0,0,1,1.46,2.09c0,.51.07,1,.08,1.53,0,.69,0,1.39,0,2.09a1,1,0,0,0,.51.95c.15.08.06.23.07.35a26.86,26.86,0,0,1-3.45,0c0-.18-.09-.36-.13-.56a11.4,11.4,0,0,1-.14-2.11c0-.49,0-1,0-1.47a3.22,3.22,0,0,0-.15-.75,1.15,1.15,0,0,0-.69-.74,3,3,0,0,0-1.1-.23c-1.17,0-2.34-.06-3.51-.08Zm.13-6.55-.07,4,.23,0c1.21,0,2.42.06,3.63.06a4,4,0,0,0,1.08-.16,1.5,1.5,0,0,0,1.11-1.17,2.87,2.87,0,0,0,.06-1.09,1.69,1.69,0,0,0-1.23-1.48,3.63,3.63,0,0,0-1.09-.14l-3.43-.07Z"/><path d="M754.18,348.05a10.35,10.35,0,0,1-.5,3.17,6.37,6.37,0,0,1-5,4.4,7.84,7.84,0,0,1-4.24-.26,6.32,6.32,0,0,1-4.27-4.65,11.33,11.33,0,0,1-.25-4,8.63,8.63,0,0,1,.74-2.86,6.22,6.22,0,0,1,3.65-3.32,7.94,7.94,0,0,1,5.6.06,6.25,6.25,0,0,1,3.85,4.07A10.36,10.36,0,0,1,754.18,348.05Zm-11.26-.37a8.46,8.46,0,0,0,.28,2.54,4.23,4.23,0,0,0,1.1,1.91,3.81,3.81,0,0,0,3,1,3.66,3.66,0,0,0,2.46-1.14,4.52,4.52,0,0,0,1-1.92,9.17,9.17,0,0,0,.28-2.61,7,7,0,0,0-.32-2,3.78,3.78,0,0,0-3.58-2.79,3.72,3.72,0,0,0-3.67,2.25A7.15,7.15,0,0,0,742.92,347.68Z"/><path d="M781.18,341.09l3.08.06c0,.63,0,1.25,0,1.87l0,1.9,0,1.87,5.84.11.11-5.64,3.06.06,0,0a0,0,0,0,1,0,0,.19.19,0,0,1,0,.08q-.13,7.33-.28,14.67a.36.36,0,0,1,0,.1,24.93,24.93,0,0,1-3.09,0c0-.36,0-.72,0-1.08s0-.74,0-1.11l0-1.13,0-1.11,0-1.1,0-1.1c-.21-.06-5.45-.18-5.83-.13l-.13,6.63a28.82,28.82,0,0,1-3.07,0C780.85,355.82,781.11,341.46,781.18,341.09Z"/><path d="M769.7,323.46l3.08.06c0,.94,0,1.88,0,2.82s0,1.87-.05,2.82l5.83.11c0-.47,0-.94,0-1.41l0-1.41,0-1.39,0-1.43,3.09.06-.28,14.9a27.16,27.16,0,0,1-3.09,0l.13-6.63c-.23-.07-5.52-.19-5.84-.13l-.13,6.63a26.53,26.53,0,0,1-3.07,0C769.38,338.19,769.63,324,769.7,323.46Z"/><path d="M793.7,323.93l-.05,2.59c-.44,0-.87,0-1.3,0l-1.33,0-1.31,0-1.3,0-1.33,0-1.29,0a22.5,22.5,0,0,0-.09,3.16l1.2,0,1.19,0,1.21,0,1.22,0,1.19,0,1.23,0-.05,2.64-7.22-.14c-.07.23-.15,3.31-.1,3.87.32,0,.66,0,1,0l1.05,0,1,0,1,0,1,0,1,0,1,0,1,0a19.41,19.41,0,0,1,0,2.63l-11.3-.22.28-14.89C783,323.69,793.26,323.86,793.7,323.93Z"/><path d="M792.28,364.51l0,2.64c-.8,0-1.6,0-2.4,0l-2.44,0L785,367l-.07,3.87,8.25.16,0,2.64-11.28-.22c-.05-.2.21-14.57.28-14.92l10.93.21,0,2.6-7.86-.15a27.31,27.31,0,0,0-.08,3.17Z"/><path d="M763.09,358.18q2.49,7.51,5,15l-3.38-.07-.89-3.07-5.53-.11-1.1,3-3.23-.06c0-.2,5.35-14.4,5.58-14.83Zm-1.86,3.34h-.07l-2,5.85,3.82.08Z"/><path d="M777.65,368.29l3.05.06s0,.08,0,.11a7.16,7.16,0,0,1-1.73,3.45,5.76,5.76,0,0,1-3.06,1.67,7.8,7.8,0,0,1-3.78-.14,6,6,0,0,1-4-3.59,9.21,9.21,0,0,1-.66-2.89,11.44,11.44,0,0,1,.35-3.95,7.14,7.14,0,0,1,1.61-3,6.23,6.23,0,0,1,3.89-1.95,7.62,7.62,0,0,1,3.87.47,5.6,5.6,0,0,1,3.58,4.5,3.45,3.45,0,0,1,0,.38l-3.1-.06c-.06-.21-.12-.39-.18-.58a2.83,2.83,0,0,0-2.57-2,3.72,3.72,0,0,0-1.75.17,3.4,3.4,0,0,0-1.83,1.61,5.77,5.77,0,0,0-.62,1.85,9.38,9.38,0,0,0,.08,3.62,4.59,4.59,0,0,0,.86,1.86A3.09,3.09,0,0,0,774,371a3.72,3.72,0,0,0,1.29-.11,3,3,0,0,0,2-1.79C777.47,368.86,777.55,368.59,777.65,368.29Z"/><path d="M745.12,357.84l10.6.2-.05,2.62-7.49-.15-.06,3.38c.72,0,1.45,0,2.17.05l2.18,0,2.19,0,0,2.64-6.55-.13-.12,6.24a23.28,23.28,0,0,1-3.11,0Z"/><path d="M768.11,340.84l12.1.24-.05,2.62-4.49-.08c0,.84,0,1.65-.06,2.47s0,1.62-.05,2.44l0,2.46,0,2.43-.05,2.46a21.69,21.69,0,0,1-3.11-.05l.23-12.27-4.46-.08A19.54,19.54,0,0,1,768.11,340.84Z"/><path d="M763.94,338.29l-3.1-.06.24-12.3-.35,0-3.83-.08h-.34l.05-2.57,0,0,0,0h.08l11.87.23.13,0-.05,2.6c-.74,0-1.48,0-2.22,0l-2.28,0c0,.7,0,1.38,0,2s0,1.38,0,2.07l0,2,0,2,0,2.07Z"/></g><g id="wOMaxd"><path class="cls-6" d="M482,350.63c-.45.56-.77,1-1.1,1.36-5,5.89-10,11.76-14.95,17.67a11.46,11.46,0,0,0-1.75,2.75,3.61,3.61,0,0,0,.58,4.22,3.47,3.47,0,0,0,4.23,1.08,10.54,10.54,0,0,0,3.61-3c2.86-3.91,5.5-8,8.24-12,1.69-2.47,3.4-4.93,5.15-7.48.45.46.74.76,1,1.06,4.83,5.48,9.64,11,14.49,16.41a13.47,13.47,0,0,0,2.55,2.28,4.23,4.23,0,0,0,5.2-.48,3.82,3.82,0,0,0,.48-5,11.88,11.88,0,0,0-2-2.38c-4.31-4-8.65-8-13-12-1.75-1.61-3.48-3.25-5.24-4.9.44-.67.76-1.2,1.11-1.71l13.57-19.88a8.88,8.88,0,0,0,1.13-2,1.46,1.46,0,0,0-.32-1.35,1.94,1.94,0,0,0-1.53,0,3.93,3.93,0,0,0-1.1,1.09l-10.79,12.79-6.29,7.43a5.09,5.09,0,0,0-.59-.92c-6.26-5.82-12.51-11.65-18.83-17.41-.52-.48-1.82-.87-2.24-.57-1,.74-.24,1.7.35,2.41,1.43,1.72,2.93,3.39,4.4,5.07Zm66.72-8.18c-.6-.49-1.06-.82-1.48-1.21L529,324.35c-.66-.61-1.43-1.33-2.3-.52s-.23,1.64.36,2.33c1.76,2.06,3.55,4.09,5.33,6.13l12.69,14.47c-.36.48-.65.9-1,1.29-4.28,5.05-8.59,10.07-12.83,15.14a36.65,36.65,0,0,0-3.93,5.4,3.6,3.6,0,0,0,.87,4.56,4,4,0,0,0,4.8.41,10.62,10.62,0,0,0,2.73-2.7c4-5.77,8-11.59,11.94-17.39.46-.67.94-1.32,1.46-2.06.41.42.67.67.91.94,4.92,5.59,9.82,11.2,14.78,16.75a10.56,10.56,0,0,0,2.9,2.3,4,4,0,0,0,4.85-.95,3.76,3.76,0,0,0,.28-4.77,17.12,17.12,0,0,0-2.67-3Q562,355,553.78,347.5c-.86-.79-1.09-1.36-.32-2.44,2.61-3.64,5.09-7.37,7.62-11.07,2.29-3.35,4.59-6.7,6.84-10.08.53-.79,1.33-1.79.2-2.61s-1.7.26-2.32.94-1.42,1.66-2.13,2.49Z"/><path d="M482,350.63l-13.58-15.47c-1.47-1.68-3-3.35-4.4-5.07-.59-.71-1.38-1.67-.35-2.41.42-.3,1.72.09,2.24.57,6.32,5.76,12.57,11.59,18.83,17.41a5.09,5.09,0,0,1,.59.92l6.29-7.43,10.79-12.79a3.93,3.93,0,0,1,1.1-1.09,1.94,1.94,0,0,1,1.53,0,1.46,1.46,0,0,1,.32,1.35,8.88,8.88,0,0,1-1.13,2L490.66,348.5c-.35.51-.67,1-1.11,1.71,1.76,1.65,3.49,3.29,5.24,4.9,4.32,4,8.66,8,13,12a11.88,11.88,0,0,1,2,2.38,3.82,3.82,0,0,1-.48,5,4.23,4.23,0,0,1-5.2.48,13.47,13.47,0,0,1-2.55-2.28c-4.85-5.45-9.66-10.93-14.49-16.41-.27-.3-.56-.6-1-1.06-1.75,2.55-3.46,5-5.15,7.48-2.74,4-5.38,8.07-8.24,12a10.54,10.54,0,0,1-3.61,3,3.47,3.47,0,0,1-4.23-1.08,3.61,3.61,0,0,1-.58-4.22,11.46,11.46,0,0,1,1.75-2.75c5-5.91,10-11.78,14.95-17.67C481.23,351.6,481.55,351.19,482,350.63Z"/><path d="M548.72,342.45l14.95-17.72c.71-.83,1.39-1.69,2.13-2.49s1.29-1.69,2.32-.94.33,1.82-.2,2.61c-2.25,3.38-4.55,6.73-6.84,10.08-2.53,3.7-5,7.43-7.62,11.07-.77,1.08-.54,1.65.32,2.44Q562,355,570.21,362.64a17.12,17.12,0,0,1,2.67,3,3.76,3.76,0,0,1-.28,4.77,4,4,0,0,1-4.85.95,10.56,10.56,0,0,1-2.9-2.3c-5-5.55-9.86-11.16-14.78-16.75-.24-.27-.5-.52-.91-.94-.52.74-1,1.39-1.46,2.06-4,5.8-7.91,11.62-11.94,17.39a10.62,10.62,0,0,1-2.73,2.7,4,4,0,0,1-4.8-.41,3.6,3.6,0,0,1-.87-4.56,36.65,36.65,0,0,1,3.93-5.4c4.24-5.07,8.55-10.09,12.83-15.14.33-.39.62-.81,1-1.29l-12.69-14.47c-1.78-2-3.57-4.07-5.33-6.13-.59-.69-1.21-1.52-.36-2.33s1.64-.09,2.3.52l18.22,16.89C547.66,341.63,548.12,342,548.72,342.45Z"/></g><path class="cls-2" d="M639.59,281.24h4.67l.85-5.51h3.5s-.92,6,1,7.26a6.77,6.77,0,0,0,4.59.58"/><path class="cls-1" d="M1581.1,0s4.4,59.5,6.4,71.5,6,30,26,39,12,17,42,39,44,29,52,39,29,26,46,28a137.35,137.35,0,0,1,30,7"/><path class="cls-7" d="M1613.5,110.5s-4-16-7-22l-17-34s13.36-28,50.3-54.5"/><path class="cls-1" d="M1920,198.25s-35.5,18.25-60.5,20.25-91,5-91,5-2,23-2,75V399.83s3,1.67,3,4.67-3,147-3,173-4,99-5,130-3,157-4,193c-.9,32.51-2.62,145-3,180.43"/><path class="cls-2" d="M1769.5,395.5s23-10,38-11,45,2,45,2"/><path class="cls-2" d="M1859.5,218.5s-3,62-3,90v95.32c0,13.68-4,257.68-4,289.68s-5,157-6,180c-.91,20.83-2.28,168-2,207.43"/><path class="cls-1" d="M1600.63,101.64s12.74,41.86,16.8,47.86,5.07,20,6.07,30,26,68,47,95,37,37,44,46,25,18,25,18"/><path class="cls-1" d="M1638.51,218.5s5,21,10,29-1,16,11,30,48.35,55,57.18,61,21.82,14,29.82,17"/><path class="cls-7" d="M1730.54,347.33s3,78.17,4,136.17,3,85,3,85-260,2-267,3c0,0,40-37,36-117s-19-155.62-36-185.81"/><path class="cls-8" d="M1256.5,602.5c-5,10-6,41-5,53s23,66,25,84,9,38,10,53,14,99,20,119,25,50,27,70c1.79,17.86,3.57,78.75,6.78,99.43"/><path class="cls-1" d="M1640.28,225.32s-9.85-1.82-15.31-1.82-173.07,44-196.27,63.5-167.2,305.5-172.2,315.5"/><path class="cls-2" d="M1439.5,292.5s-9,3-14,4c0,0,3,62.5,7,76.75s5,48.42,7,80.34,11,120.91,13,147.91,4,161,8,224c3.69,58.14,15.9,208.24,17,255.43"/><path class="cls-2" d="M1756.75,935s-14.25,4.49-35.25,10.49-219.24,64.55-247.12,75.78"/><path class="cls-2" d="M1704.5,192.5s-14.4-15.46-22.2-19.73-31.1-15.27-39-23.27-26.85-26-26.85-26"/><path class="cls-2" d="M1660.5,177.42s27,47.08,46,58.08a252.44,252.44,0,0,1,35,25"/><path class="cls-2" d="M1896.5,259.5a121.13,121.13,0,0,0,23.5-10.78"/><path class="cls-2" d="M1904.5,285.5s8.9-2.23,15.5-7.51"/><path class="cls-2" d="M1920,302.14a155.42,155.42,0,0,1-15.5,17.94c-20,19.42-21,37.42-21,37.42"/><path class="cls-2" d="M1920,334.85s-14.5,11.65-26.5,19.65"/><path class="cls-2" d="M1901.22,349.13s-3.72,94.37-3.72,117.37-2,102-2,102,11.9-.3,24.5-.41"/><path class="cls-2" d="M1852,939.16s32.92,14.48,68,25.74"/><path class="cls-7" d="M1865,219s-5.45,119.54-3.45,190.54-4,311-6,365c-1.67,45.21-6.15,213.07-6.39,306.43"/><path class="cls-2" d="M1465.7,898.9s96.8-31.4,160.8-49.4,132.73-33.23,132.73-33.23"/><circle class="cls-2" cx="1794.5" cy="259.5" r="15"/><circle class="cls-2" cx="1790.5" cy="456.5" r="13"/><circle class="cls-2" cx="1790.5" cy="656.5" r="13"/><circle class="cls-2" cx="1785.5" cy="853.5" r="13"/><circle class="cls-2" cx="1779.5" cy="1052.5" r="13"/><path class="cls-2" d="M1854.33,811S1889,824.63,1920,836.62"/><path class="cls-8" d="M1256.5,602.5s22,51,55,77,92,65,119,70,27,7,27,7"/><path class="cls-1" d="M1277.88,1080.93c-6-21.32-18.27-76-26.73-100.42-9.35-27-31.65-83-43.68-122.93s-26-48.08-24-64.08,73-191,73-191"/><g id="wOMaxd-2" data-name="wOMaxd"><path class="cls-6" d="M1582.08,505.86c-.67.72-1.14,1.26-1.64,1.78q-11.06,11.55-22.1,23.11a16.89,16.89,0,0,0-2.64,3.65,5,5,0,0,0,.44,5.87c1.52,1.85,3.62,2.79,5.76,1.85a14.38,14.38,0,0,0,5.22-3.87c4.27-5.15,8.26-10.54,12.37-15.83,2.54-3.27,5.1-6.52,7.74-9.89.57.68,1,1.11,1.3,1.55q9.3,11.94,18.61,23.85a18.86,18.86,0,0,0,3.33,3.35,5.84,5.84,0,0,0,7.22-.22,5.29,5.29,0,0,0,1.08-6.86,16.23,16.23,0,0,0-2.54-3.46c-5.6-5.91-11.26-11.76-16.89-17.63-2.27-2.38-4.52-4.79-6.81-7.21.66-.89,1.15-1.59,1.67-2.27q10.2-13.14,20.39-26.28a12,12,0,0,0,1.73-2.72,2.06,2.06,0,0,0-.33-1.89,2.72,2.72,0,0,0-2.12-.07,5.33,5.33,0,0,0-1.6,1.42q-8,8.36-16,16.73l-9.29,9.72a7.6,7.6,0,0,0-.74-1.31c-8.15-8.56-16.28-17.13-24.51-25.6-.69-.71-2.45-1.35-3.06-1-1.47.93-.47,2.32.29,3.34,1.83,2.5,3.75,4.93,5.65,7.37Zm92.72-5.71c-.78-.72-1.39-1.22-1.93-1.79Q1661,486,1649.14,473.54c-.86-.9-1.85-2-3.12-.91s-.46,2.25.29,3.25c2.27,3,4.56,5.93,6.85,8.89,5.41,7,10.82,14,16.28,21-.53.63-1,1.19-1.45,1.7-6.33,6.6-12.7,13.16-19,19.81a51.84,51.84,0,0,0-5.88,7.12,5,5,0,0,0,.83,6.35,5.5,5.5,0,0,0,6.58,1,14.58,14.58,0,0,0,4-3.51c6-7.61,12-15.31,17.92-23,.69-.89,1.41-1.75,2.19-2.71.53.61.87,1,1.17,1.36,6.32,8.13,12.61,16.28,19,24.35a14.37,14.37,0,0,0,3.8,3.41,5.55,5.55,0,0,0,6.77-.9,5.19,5.19,0,0,0,.78-6.56,23.8,23.8,0,0,0-3.42-4.41q-10.63-11.19-21.39-22.27c-1.13-1.15-1.4-2-.25-3.38,3.91-4.8,7.65-9.74,11.44-14.63,3.44-4.44,6.9-8.86,10.29-13.34.79-1,2-2.36.49-3.58s-2.37.21-3.28,1.09c-1.09,1.05-2.1,2.17-3.15,3.27Z"/><path d="M1582.08,505.86l-17.43-22.49c-1.9-2.44-3.82-4.87-5.65-7.37-.76-1-1.76-2.41-.29-3.34.61-.38,2.37.26,3.06,1,8.23,8.47,16.36,17,24.51,25.6a7.6,7.6,0,0,1,.74,1.31l9.29-9.72q8-8.37,16-16.73a5.33,5.33,0,0,1,1.6-1.42,2.72,2.72,0,0,1,2.12.07,2.06,2.06,0,0,1,.33,1.89,12,12,0,0,1-1.73,2.72q-10.18,13.15-20.39,26.28c-.52.68-1,1.38-1.67,2.27,2.29,2.42,4.54,4.83,6.81,7.21,5.63,5.87,11.29,11.72,16.89,17.63a16.23,16.23,0,0,1,2.54,3.46,5.29,5.29,0,0,1-1.08,6.86,5.84,5.84,0,0,1-7.22.22,18.86,18.86,0,0,1-3.33-3.35q-9.35-11.88-18.61-23.85c-.35-.44-.73-.87-1.3-1.55-2.64,3.37-5.2,6.62-7.74,9.89-4.11,5.29-8.1,10.68-12.37,15.83a14.38,14.38,0,0,1-5.22,3.87c-2.14.94-4.24,0-5.76-1.85a5,5,0,0,1-.44-5.87,16.89,16.89,0,0,1,2.64-3.65q11-11.6,22.1-23.11C1580.94,507.12,1581.41,506.58,1582.08,505.86Z"/><path d="M1674.8,500.15,1696.91,477c1-1.1,2.06-2.22,3.15-3.27.91-.88,1.92-2.21,3.28-1.09s.3,2.54-.49,3.58c-3.39,4.48-6.85,8.9-10.29,13.34-3.79,4.89-7.53,9.83-11.44,14.63-1.15,1.42-.88,2.23.25,3.38q10.74,11.08,21.39,22.27a23.8,23.8,0,0,1,3.42,4.41,5.19,5.19,0,0,1-.78,6.56,5.55,5.55,0,0,1-6.77.9,14.37,14.37,0,0,1-3.8-3.41c-6.39-8.07-12.68-16.22-19-24.35-.3-.39-.64-.75-1.17-1.36-.78,1-1.5,1.82-2.19,2.71-6,7.67-11.89,15.37-17.92,23a14.58,14.58,0,0,1-4,3.51,5.5,5.5,0,0,1-6.58-1,5,5,0,0,1-.83-6.35,51.84,51.84,0,0,1,5.88-7.12c6.27-6.65,12.64-13.21,19-19.81.49-.51.92-1.07,1.45-1.7-5.46-7.05-10.87-14-16.28-21-2.29-3-4.58-5.91-6.85-8.89-.75-1-1.54-2.21-.29-3.25s2.26,0,3.12.91q11.88,12.4,23.73,24.82C1673.41,498.93,1674,499.43,1674.8,500.15Z"/></g><path class="cls-8" d="M1343.87,433S1386,410,1400,388s30-30.3,30-30.3"/><path class="cls-8" d="M1298.82,519.42s14.82,23.08,29.75,20.58,34.45-22.52,45.19-32.51,43.7-44.9,66.22-46.95"/><path class="cls-8" d="M1268.17,579.4s22,14.5,30.65,19.8,30.68,44.3,64.68,40.3,37-31,43-51,22.44-39,40.72-46"/><path class="cls-8" d="M1266.06,702.44s25.44,24.06,44.44,31.06,53,32,71,37,64.11,15.27,77.56,27.63"/><path class="cls-8" d="M1493.55,343.8s-13,65.7-9,85.7,17.56,64,16.78,82.51"/><path class="cls-8" d="M1456,708.62s53.51-18.12,66.51-22.12,45.52-22.23,64.76-22.62c0,0-27.84-72.38-32.3-92.38"/><path class="cls-8" d="M1594.84,708.62s-27.34,4.88-47.34,13.88-79,44-84,47,5,10,11,14,41,27.38,54,29.69,74,16.31,78,21.31C1606.5,834.5,1611.18,755.75,1594.84,708.62Z"/><path class="cls-8" d="M1462.14,849.8s3.4,7.87,22.38,7.78,52,3.92,79,14.92,68,13,90,14,85.08.79,103.54,33.9"/><path class="cls-8" d="M1464.45,881.87s30,12.63,56,27.63,54,38,74,47,26.87,18.66,26.87,18.66"/><path class="cls-8" d="M1589.52,569.79s34,78.71,36,82.71,34.34-3,49.17-5,79.3-16.16,90.06-15.07"/><path class="cls-8" d="M1763.27,665.2s-110.77,14.3-120.77,24.3,9.64,54.12,10.82,82.06,6.33,68.94,6.33,68.94,53.85-9,72.85-4,26.73,13.3,26.73,13.3"/><path class="cls-8" d="M1666.31,285.35c-.81-.85-103.11.84-110.46,0,0,0,74.67,109.8,82.66,110s57.09-62.07,58.54-75.94"/><path class="cls-8" d="M1489.77,325.86s19.73-11.36,24.73-11.36,90.6,103.82,92.3,113.41-89.3,97.59-90.3,105.59.25,16.7,5.13,17.85,12.87,1.15,20.87-5.85l13.2-11.1"/><path class="cls-8" d="M1616,472.74s13.51-10.24,20.51-10.24,47.62,28.6,47.62,28.6"/><path class="cls-8" d="M1688.61,494.64s37.72,29,46.81,27.44"/><path class="cls-8" d="M1730.78,353.72s-52.94,68.6-56.11,74.19,59.71,48.89,59.71,48.89"/><path class="cls-8" d="M1590.61,984.42s25.89,13.08,39.89,29.08,36.46,38,50.73,39,15.27,0,15.27-18-21-30-26-41-30.83-23.82-30.83-23.82"/><path class="cls-8" d="M1501.52,1012s54.24,38.51,65.11,40.51c8.15,1.5,18,13.69,25.18,26"/><path class="cls-8" d="M1471.24,975.16c.26.34-9.74,52.34-37.74,65.34s-94.69,27.37-94.69,27.37"/><path class="cls-2" d="M1716.68,192.5c6.17-33-56.18-131-63.8-141.15s-10.38-9.85-14.37-10.68S1618,18.14,1618,18.14"/><path class="cls-2" d="M1638.51,51.35s59,85.15,62.49,98.15"/><path class="cls-2" d="M1725,0s21.55,85.61,29.55,118.06,13,59.36,13,59.36"/><path class="cls-2" d="M1767.48,196.47s9,1,5-21-12-80-8-83"/><path class="cls-2" d="M1746.5,198.25s10,12.25,21,12.25,22.73,12,22.73,12"/><path class="cls-2" d="M1773.52,202.23s15-27.73,24-28.73,13.22,7.91,13.22,7.91"/><path class="cls-2" d="M1803.5,183.5s-17.76,12.09,14.62,37.55"/><path class="cls-2" d="M1812.82,187.83s17.68-22.33,22.68-41.33,35.23-83.29,41.11-95.15S1895.5,32.5,1901.5,27.5s16-19,16-19"/><path class="cls-2" d="M1803.26,206.1s17.24-4.6,22.24-15.6"/></svg>