<svg id="Layer_1" data-name="Layer 1" xmlns="http://www.w3.org/2000/svg" viewBox="0 0 500 500"><defs><style>.cls-1,.cls-2,.cls-3,.cls-4,.cls-5,.cls-6{fill:none;stroke:#000;stroke-miterlimit:10;}.cls-2{stroke-width:0.5px;}.cls-3,.cls-5,.cls-6{stroke-linecap:round;}.cls-3,.cls-4,.cls-5,.cls-6{stroke-width:0.25px;}.cls-3{stroke-dasharray:1 1;}.cls-6{stroke-dasharray:1 1;}</style></defs><path class="cls-1" d="M109.51,173.14a1.63,1.63,0,0,1,1.64-1.64s7,1,9.35,1c6,0,209.35.19,260,0,3.75,0,7-.5,10-.5a29.08,29.08,0,0,1,5,.5s.75,49.74,1,63c.35,18.68,0,41.72,0,75,0,19.26,1.4,39.4,2,53,.66,15,0,25-3,24,0,0-79-2-130-1-14.73.29-46.49,0-73,0-34.77,0-70.46-.23-81,0a2.39,2.39,0,0,1-1.85-.95,4.79,4.79,0,0,1-1.14-3.23s.87-8.11,1-10.82c.39-8.53-.16-21.85,0-35C110.2,277.84,109.61,186.4,109.51,173.14Z"/><path class="cls-2" d="M204.47,172.56s-1-30.06,6-42.06,18-21,18-21"/><path class="cls-2" d="M215.62,172.56S206.5,101.5,252.5,101.5s32.16,63,33.79,71.06"/><path class="cls-3" d="M212.63,127s-7.13,7.48-6.75,45.54"/><path class="cls-2" d="M214.5,172.5s-9.94-72,38-72,33.31,63.57,35,72"/><path class="cls-3" d="M213.65,172.5S208,134,224,114"/><path class="cls-2" d="M281.1,114.8a42.72,42.72,0,0,1,15.4,28.7,119.57,119.57,0,0,1,.5,18c-.05,5.1.22,11,.22,11"/><path class="cls-2" d="M295.81,172.5s.19-15.77,0-23.89c-.31-14.11-5-22.45-5-22.45"/><path class="cls-2" d="M215,153.93s8.53-33.43,36.53-32.43c20.68.74,31.36,19.65,35.52,29.49"/><path class="cls-4" d="M215,154.93s8.53-33.43,36.53-32.43c19.94.71,31,17.86,35.52,27.91"/><path class="cls-2" d="M215,155.93s8.53-33.43,36.53-32.43c20.68.74,31.36,19.65,35.52,29.49"/><path class="cls-5" d="M215,164s0-.17.07-.49"/><path class="cls-6" d="M215.23,162.52c1.26-7.33,8.42-39.41,36.77-38.52,20.11.63,30.42,19.88,34.65,31.06"/><path class="cls-5" d="M286.83,155.53c.06.16.11.32.17.47"/><path class="cls-2" d="M220.72,172.56a64.15,64.15,0,0,1,.78-21.06c2.61-11.74,9.89-24,27-24,14.9,0,24.14,8.85,29,19,5.83,12.16,5.69,26,5.69,26"/><path class="cls-2" d="M214.89,159.05c2-6.94,9.61-36.55,36.61-35.55,20.68.77,31.36,19.65,35.52,29.49"/><path class="cls-3" d="M220,172a67.6,67.6,0,0,1,1-21c2.61-11.74,10-24,28-24,14.9,0,24.14,8.85,29,19,5.83,12.16,6,26,6,26"/><path class="cls-2" d="M224,117.25s9.6-8.4,27.8-8.32a49.66,49.66,0,0,1,30.13,10.42"/><path class="cls-3" d="M226.91,113.12A37.18,37.18,0,0,1,253,102.72c16.54,0,26.91,12.75,26.91,12.75"/><path class="cls-3" d="M111.51,174.62a1.61,1.61,0,0,1,1.62-1.62s6.9,1,9.22,1c5.91,0,206.44.18,256.39,0,3.69,0,6.94-.5,9.86-.5a29.53,29.53,0,0,1,4.93.5s.74,49,1,62.12c.34,18.42,0,41.14,0,74,0,19,1.38,38.86,2,52.26.65,14.76,0,24.66-3,23.67,0,0-77.9-2-128.19-1-14.53.29-45.85,0-72,0-34.28,0-69.48-.22-79.88,0a2.36,2.36,0,0,1-1.82-.93,4.74,4.74,0,0,1-1.13-3.19s.86-8,1-10.67c.39-8.41-.15-21.55,0-34.51C112.19,277.87,111.6,187.69,111.51,174.62Z"/><path class="cls-2" d="M109.83,272.22A211.76,211.76,0,0,0,97.5,293.5c-5.37,10.84-9.65,22.72-7,34,4,17,19,18.82,19,18.82"/><path class="cls-2" d="M109.83,273.75A209.93,209.93,0,0,0,98.5,293.5c-5.37,10.84-9.65,21.72-7,33,3.37,14.33,14.55,17.88,18,18.64"/><path class="cls-2" d="M109.83,278.52c-2.39,3.92-5.51,9.29-8.33,15-5.37,10.84-10.48,22.81-7.5,34,2.57,9.62,10.27,13.89,15.47,15.72"/><path class="cls-3" d="M109.83,275.3A208.22,208.22,0,0,0,99.5,293.5c-5.37,10.84-9.65,21.72-7,33,3.09,13.15,12.76,17.22,17,18.39"/><path class="cls-2" d="M134.18,172.51s14.32-21,26.32-19c0,0,9,1,5,19"/><path class="cls-4" d="M134.82,172.61c2.9-4,15.18-19.86,25.68-18.11,0,0,7.23,1,4.65,18"/><path class="cls-2" d="M135.64,172.51c3.94-5.2,15.16-18.63,24.86-17,0,0,6.48.93,4.3,17"/><path class="cls-2" d="M141,172.51s14.53-13,22.77-14"/><path class="cls-3" d="M139.5,172.5s15.76-13.46,24-14.5"/><path class="cls-3" d="M136.5,172.5S150,155,161,156"/><path class="cls-2" d="M164.81,161.63a53.21,53.21,0,0,0-8.11,10.9"/><path class="cls-2" d="M165,162.5a52.36,52.36,0,0,0-7.29,10"/><path class="cls-3" d="M165.1,163.49a51,51,0,0,0-6.4,9"/><path class="cls-3" d="M165.36,157.8s2.69,4.22,1.16,14.71"/><path class="cls-3" d="M169.9,156.79c2,2,5.1,4.21,5.1,16.21"/><path class="cls-3" d="M175.67,157.55c1.82,1.88,3.77,4.86,3.83,15"/><path class="cls-3" d="M182,160c1.77,1.82,3.88,1.05,4.45,12.55"/><path class="cls-2" d="M162.59,154.37l5.91,2.13c9,1,7.75,16,7.75,16"/><path class="cls-2" d="M171.89,157.8a3.31,3.31,0,0,1,3.11.52c1.5,1.18,3.8,7.18,3.15,14.18"/><path class="cls-2" d="M172.67,158.46s4.83,0,5.59,12.09"/><path class="cls-2" d="M175.57,164.1s1.78-1.27,1.35-.93"/><line class="cls-2" x1="175.29" y1="163.11" x2="176.63" y2="162.43"/><path class="cls-2" d="M170.78,157.13a4.76,4.76,0,0,1,5,.49l5.69,1.88s6.15,1.09,6.57,13.05"/><path class="cls-2" d="M264.42,328.84A53.45,53.45,0,0,0,299.61,307a3.4,3.4,0,0,1,4.45-1l7,4a3.41,3.41,0,0,1,1.17,4.82,67.49,67.49,0,1,1,9.41-53,2.87,2.87,0,0,1-2.81,3.51h-53.7a1.66,1.66,0,0,0-1.67,1.66L263,327.64A1.2,1.2,0,0,0,264.42,328.84Z"/><path class="cls-2" d="M246.5,327.19a1.21,1.21,0,0,1-1.44,1.19,53.56,53.56,0,0,1-41.7-62,1.82,1.82,0,0,1,1.79-1.48h39.68a1.67,1.67,0,0,1,1.67,1.67Z"/><path class="cls-2" d="M296.81,248.32a1.3,1.3,0,0,0,1.06-2,50.49,50.49,0,0,0-84.24.71,1.3,1.3,0,0,0,1.1,2Z"/><path class="cls-2" d="M328.66,172.57a103.86,103.86,0,0,1,.84-14.07c.87-6.95,1-10.5,4-9.5a18.92,18.92,0,0,1,4-.5,7.26,7.26,0,0,1,3,.5s4.3-2.5,5.3,7.5c1.11,11.12-1.33,16.06-1.33,16.06"/><path class="cls-2" d="M340.5,172.5s-1-23,2-23c2,0,5,14,1.55,23"/><path class="cls-4" d="M340.46,172.5c-.15-4.42-.58-22,2-22,1.93,0,3.87,12.16.38,22"/><path class="cls-3" d="M330.48,172.57s0-23.07,3-23.57"/><path class="cls-3" d="M338.48,172.57S338,149.5,341,149"/><path class="cls-2" d="M329.35,159.73l-3.85-.23s-1.71-1.93-3.1,1.29-4.47,11.71-4.47,11.71"/><path class="cls-3" d="M325.5,159.5s.72,2.15.36,13.07"/><line class="cls-3" x1="323.64" y1="161.13" x2="319.35" y2="172.58"/><path class="cls-2" d="M324.83,172.5s1-15-1.65-13"/><path class="cls-2" d="M320.91,164.49s1.87-4.92,2.73-4,.59,12,.59,12"/></svg>