<svg id="Layer_1" data-name="Layer 1" xmlns="http://www.w3.org/2000/svg" viewBox="0 0 500 500"><defs><style>.cls-1,.cls-2,.cls-3{fill:none;stroke:#000;stroke-miterlimit:10;}.cls-1{stroke-linecap:round;stroke-dasharray:1 1;}.cls-1,.cls-3{stroke-width:0.25px;}.cls-2{stroke-width:0.5px;}</style></defs><path class="cls-1" d="M126.5,198.5c0,3,3,12.88,22.63-5.65"/><path class="cls-2" d="M129.5,191.5s-3,4-3,7"/><path class="cls-2" d="M148.73,190.92c-8.52,7.24-13.35,9.61-17.23,10.58s-5-3-5-3l17.19,63s14.81,7,43.81,9,48-1,49,5,6,36.82,2.5,47.41"/><path class="cls-2" d="M42.5,381.5s8,5,37,3,73-10,92-20,42-30,64-40,51-23,52-28c0,0-2.87-20.65-9-37-5.12-13.67-6.6-20.77-8.79-27.53a36.47,36.47,0,0,1-1.63-7.65l-.26-2.66"/><path class="cls-1" d="M42.5,382.5s8,5,37,3,73-10,92-20,42-30,64-40,51-23,52-28"/><path class="cls-2" d="M144.14,267.2c-2,3.85-12.32,22.88-26.64,36.3-16,15-55,39-66,46s-13,20-9,32"/><path class="cls-2" d="M262.5,157.5c-1-11-22-45-60-35-33.14,8.72-41.94,45.59-43.65,54.87a8.43,8.43,0,0,1-1.87,3.91l-8.25,9.64"/><path class="cls-2" d="M179.5,165.71h0s10-21.21,26-26.21c13.42-4.19,28.25,2.17,32.68,6.1a1.58,1.58,0,0,1-.44,2.65c-4.45,1.89-16.44,6.85-25.24,9.25-9.16,2.5-25.93,7.76-31.3,9.46A1.3,1.3,0,0,1,179.5,165.71Z"/><path class="cls-3" d="M239.52,298.36A102.18,102.18,0,0,0,248,286c4-7,17.14-55.44,21.07-56.22"/><path class="cls-3" d="M239.5,299.5A75.31,75.31,0,0,0,250,286c3.54-6.2,14.25-44.89,19.38-54.21"/><path class="cls-3" d="M232.59,262.06l1.85,11.08a17.22,17.22,0,0,1-3.57,6"/><line class="cls-3" x1="231.5" y1="261.5" x2="233.37" y2="272.72"/><path class="cls-2" d="M286.38,289.7s6.88,3.8,6.5,9.3-8.38,12.5-26.38,20.5-59.44,28.68-75,41c-24,19-60,31-98,33s-65,1-51.88-15"/><path class="cls-2" d="M40.6,389.79l.51,6.59A8.42,8.42,0,0,0,47,403.8c5,1.57,13.85,3.27,27.52,2.7,21.74-.91,35.28-3.45,37.63-3.92a.77.77,0,0,0,.54-.42l.52-1a1.41,1.41,0,0,1,1-.77l2.59-.52a1.44,1.44,0,0,1,1.72,1.41h0a.56.56,0,0,0,.66.55l11-2.06a2.24,2.24,0,0,0,1.73-1.51l.45-1.33a.74.74,0,0,1,.54-.5l2.64-.66a.76.76,0,0,1,.95.74v.5a.87.87,0,0,0,1.15.83l3.23-1.1a1.11,1.11,0,0,0,.73-.86l.17-1a.88.88,0,0,1,.69-.72l2-.41a.89.89,0,0,1,1.07.87v.25a.5.5,0,0,0,.63.48l5.5-1.57a1.32,1.32,0,0,0,.94-1c.2-1.15.9-2.92,3.42-.69a1.35,1.35,0,0,0,1.24.27l5.36-1.53a1.8,1.8,0,0,0,1.21-1.16l.56-1.68a.89.89,0,0,1,.55-.57l6.81-2.56a.93.93,0,0,1,1.15.45l.28.55a.91.91,0,0,0,1.1.47l3.32-1.08a.92.92,0,0,0,.64-.88v-1.4a1.08,1.08,0,0,1,.58-1l1.72-.91a1.09,1.09,0,0,1,1.49.47h0a1,1,0,0,0,1.46.43L187,379.8a1,1,0,0,0,.5-.88v-2a.81.81,0,0,1,.38-.69l6.74-4.21a.82.82,0,0,1,1.21.43l.35,1.06a.71.71,0,0,0,1.11.33l3.55-2.84a1.92,1.92,0,0,0,.7-1.28c.11-1.16.52-3.25,2-3.25h3.27a3,3,0,0,0,1.38-.33l4.6-2.29a1.37,1.37,0,0,0,.75-1.22v-1.49a1.64,1.64,0,0,1,.76-1.37l4.14-2.61a1.63,1.63,0,0,1,2,.23l.46.46a1.22,1.22,0,0,0,1.4.23l1.22-.61"/><path class="cls-2" d="M214.74,359.5s6.33-.78,7.54-1.39"/><line class="cls-2" x1="112.67" y1="402.16" x2="119.16" y2="401.8"/><path class="cls-2" d="M131.79,398.54a56.71,56.71,0,0,0,5.86-.73"/><path class="cls-2" d="M141.61,395.85a10.87,10.87,0,0,0,4.52-.53"/><line class="cls-2" x1="152.32" y1="393.27" x2="155.74" y2="391.81"/><path class="cls-2" d="M163.06,390.54l7.17-3.43a7.8,7.8,0,0,1,2.68-.73l1-.09"/><line class="cls-2" x1="196.69" y1="374" x2="192.62" y2="373.3"/><line class="cls-2" x1="292.51" y1="300.75" x2="294.5" y2="317.5"/><path class="cls-2" d="M130.5,191.5c-4,0-5-4-5-5A4.18,4.18,0,0,0,125,184c-.46-.56.47-1.45,0-4.45s2.42-3,1.42-6.11,0-4.89,1-5.89,1-5,1-6,2,0,2-5,2-4,2-5,1-1,1-2,2-4,3-6,2-2,3-3,1-1,2-1,2-2,3-4,1-3,2-4,0-2,1-2,2-2,4-4,4-3,4-4,2-1,3-1.5,1-1.5,2-1.5,3-2,5-3,3-3,5-3,2,2,5,0,1,2,5,0,4,0,6-1,2,1,4,1,5,0,6,1,2-1,4-1,2,2,5,1,6,2,6,2c5-2,7,1,7,1a5.64,5.64,0,0,1,6,0c1-1,2,0,4,0s5-1,7-1,3,1,4,1,0,6,2.42,6.6a8.74,8.74,0,0,1,4.58,2.4c1,1,2,5,5,6s2,3,4,4,3.08,5,3.08,5h1.92c1,0,2,5,2,5a52.77,52.77,0,0,1,2.5,5.74,4.32,4.32,0,0,1-.5,3.26l1,2s2,3-1,5c0,0-.16,4.05-1.08,5.52s-2.92,5.48-3.92,4.48-3,1-4,1-2-2-3-1-1,3.28-2.5,4.14-3.5-.14-4.5-.14-3,2.6-4.48,2.8a24.07,24.07,0,0,1-3.52.2c-1,0-4,1-4,2s1,3,0,4,0,11,1,12,0,2,0,3,2,1,2,3-1,3-1,4,2,5,2,7,0,3,1,3,3,0,4-1,4-5,4-6,2-12.07,3.5-13,2.57-6.44,4-6.2,4.47-2.76,5.47-2.76,1,2,2,2,4.31.63,4.65,1.31.35,3.69.35,4.69,1,1,1,3-1,2.22,0,3.61,1,1.93,0,2.66.5,5.66.75,8.2.25,7.53-.75,9.53-3,5-3,6-1,4.47-2,4.74-2,.26-2,1.26-4,9-5,10-3,0-3,1-1,4.69-2.5,5.35-.5,2.65-1.5,2.65-2.39-.93-2.69.54-1.31,2.46-4.31,3.46-2,2-4,3-3,2-4,2-2-2-2-1-1.38,3-4.19,1-2.27,3.29-5.54,3.15-2.92-1.37-5.09-1.26-5.9.89-6.54,0-4.64.11-6.64-.89-6-4-8-4-6-2-7-3-2-4-4-4-5-1-6-3-5-5-6-5-2-3-3-4-5-1.09-8.49-7a61.33,61.33,0,0,0-4.81-7.58,11.09,11.09,0,0,1-1.7-6.38c0-1-2-9-3-10s.32-4.37.16-5.68-1.74-2.88-.69-4.65a1.44,1.44,0,0,0,0-1.46,20.35,20.35,0,0,1-2.21-6.79"/><path class="cls-2" d="M141.5,193.5s1-4,3-5-4-.81-1.5-4.41,1.5-3.59,3.5-5.59,5-3,5-4a43.31,43.31,0,0,1,1-5,7.13,7.13,0,0,1,0-5.05c1-2.95,1-5.95,3-6.95a5.37,5.37,0,0,0,3-3.38c0-.62,4-9.62,6-10.62s4-5,5-5,3-5,5-6,2-3,4-3,2-4,3-5,4-6,6-5,3.36,2.36,4.18,1.18,3.82-2.18,4.82-2.18,1-4,3-4,7.56,1,8.28,0,3.72,1,3.72,1"/><path class="cls-1" d="M177.2,168.45h0a5.3,5.3,0,0,1,.38-2c1.82-4.59,10.33-23.67,27.64-28.83,14.65-4.37,30.45,3.55,35.22,8.17a2,2,0,0,1-.47,3.13,269.12,269.12,0,0,1-27.21,9.88c-9.86,2.93-27.94,8.13-33.73,10.13C178.12,169.24,177.2,169.5,177.2,168.45Z"/><path class="cls-1" d="M239,233.85a26.52,26.52,0,0,1-5,2.15l-11.59-59.89a2.56,2.56,0,0,1,1.6-2.88l35.51-13.66a1.76,1.76,0,0,0,1.06-2.13C258.16,149.3,244.67,112.52,201,125c-49,14-51.31,96.81-16,118,34.82,20.89,70.63,15.06,78.87-43.09a.92.92,0,0,0-.78-1L257,198"/><path class="cls-2" d="M251.88,235.85s7.62-12.35,8.62-15.35c.89-2.66,4.13-13.95,4.85-20a1.9,1.9,0,0,0-1.68-2.13c-1.05-.12-2.17-.37-2.17-.9,0-1-1.62,0-2.81-.48s-2.19.48-2.19,3.48,0,8-1,9-1,3-2,4-2,5-2,6-2,5-3,5-2,3-2,4-2,6-4,6-4-1-6-1a4.62,4.62,0,0,1-3.31-1.71"/><path class="cls-2" d="M143.69,261.5s-3.19,2-2.19,4,22,10,51,11,36,0,38,2,8,39.87,3,46.94"/><path class="cls-2" d="M265.37,160.75s-.87,16.75-.87,19.75,1.65,10.31,1.65,10.31"/><path class="cls-3" d="M145.45,262.24s-3.67,1.65-1.31,5"/><path class="cls-3" d="M147.73,263.09s-4.24,1.4-1.73,4.91"/><path class="cls-3" d="M150.54,264s-4.68,2.17-.86,5.33"/><path class="cls-3" d="M153.5,264.91s-3,1.67,0,5.63"/><path class="cls-3" d="M156.61,265.75s-1.89,3.56,0,5.65"/><path class="cls-3" d="M160.15,266.69s-.84,4.5.26,5.65"/><path class="cls-3" d="M163.91,267.41s-.41,3.76,1.09,5.92"/><path class="cls-3" d="M168.91,268.41s-.41,3.76,1.09,5.92"/><path class="cls-3" d="M173.23,269s2.09,5.49,1.68,6"/><line class="cls-3" x1="177.95" y1="269.62" x2="179.51" y2="275.56"/><path class="cls-3" d="M182.45,270.09A21.72,21.72,0,0,1,184.3,276"/><path class="cls-3" d="M186.74,270.45a30.42,30.42,0,0,1,2.35,5.9"/><path class="cls-3" d="M191.61,270.76s2.24,3.82,2.07,5.78"/><path class="cls-3" d="M196,271s2.61,3.88,2.07,5.71"/><path class="cls-3" d="M200.84,271.14a14.79,14.79,0,0,1,1.55,5.54"/><path class="cls-3" d="M204.84,271.14a14.79,14.79,0,0,1,1.55,5.54"/><path class="cls-3" d="M208.84,271.14a14.79,14.79,0,0,1,1.55,5.54"/><path class="cls-3" d="M213,271.14a9.73,9.73,0,0,1,1.7,5.88"/><path class="cls-3" d="M217,271.14a9.73,9.73,0,0,1,1.7,5.88"/><path class="cls-3" d="M221,271.14a9.73,9.73,0,0,1,1.7,5.88"/><path class="cls-3" d="M225.21,271.61a19.52,19.52,0,0,1,.58,5.68"/><path class="cls-3" d="M229.94,272s.19,4.86-1.12,5.68"/><path class="cls-3" d="M232.16,283.92A15.69,15.69,0,0,0,237,278.6"/><path class="cls-3" d="M231.5,281.26s4-2.76,5-5.76"/><path class="cls-3" d="M232.66,286.42s5.27-1.26,5.06-3.09"/><path class="cls-3" d="M233.37,290.58s4.79-1.45,5-2.77"/><path class="cls-3" d="M234,294.19s4.16,0,4.83-2.37"/><path class="cls-3" d="M234.79,322s4.37-.47,5-3"/><path class="cls-3" d="M235.44,318s3.51,0,4.79-2.22"/><path class="cls-3" d="M235.44,314.79s4.51-1.8,4.79-3.54"/><path class="cls-3" d="M235.44,310.79s4.51-1.8,4.79-3.54"/><path class="cls-3" d="M235.19,307.25s4.28-1,4.79-2.87"/><path class="cls-3" d="M234.94,303.32s5-2,4.76-2.92"/><path class="cls-3" d="M234.58,298.69s3.66-.64,4.79-1.91"/><path class="cls-1" d="M175.14,187.81l31.13-10a2.8,2.8,0,0,1,3.56,2l13.6,54.94a5,5,0,0,1-.86,4.21h0a5,5,0,0,1-4.37,2c-7.07-.53-25.73-3.57-34.84-20.61-8.38-15.7-9.91-25.57-10.14-29.66A2.79,2.79,0,0,1,175.14,187.81Z"/><path class="cls-2" d="M184.26,197.87a.82.82,0,0,1,.89-.87c1.29.11,3.35.18,3.35-.5,0-1,1-2,3-2s7-3,8-3,3,1,4,1,1,6,2,8a29.2,29.2,0,0,1,2,9c0,2,1.22,6,1.61,6s.39,3,.39,4,3,5,2,6-1.78,2-2.39,1-6.61-2-7.61-2-2-3-3-4-1-2-3-3-2-3-3-3-2-3-3-4-2-6-3-6-2.77-3.21-2.39-4.6A5.77,5.77,0,0,0,184.26,197.87Z"/><path class="cls-2" d="M323.5,179.5s-3.2,3.84-2.6,11.42,2.6,89.25,2.6,89.25"/><path class="cls-2" d="M321.14,195.69s4.36,13.81,15.36,13.81c7.85,0,15.7-3.81,23.55-15.4"/><path class="cls-1" d="M321.14,198.69s4.36,13.81,15.36,13.81c7.85,0,15.69-3.8,23.54-15.38"/><path class="cls-2" d="M392.43,184.59a1.26,1.26,0,0,1-1.06-1.86c2.54-4.68,10.71-17,26.13-16.23s19.72,12.31,20.73,16.49a1.25,1.25,0,0,1-1.18,1.56C431.25,184.73,409.45,185.32,392.43,184.59Z"/><path class="cls-1" d="M390.33,186a1.45,1.45,0,0,1-1.16-2.14C392,178.42,401,164.1,418,165s20.79,14.26,21.92,19.1a1.45,1.45,0,0,1-1.3,1.81C432.24,186.16,409.15,186.84,390.33,186Z"/><path class="cls-2" d="M453.8,351.5c7.74.24,9.07,9.53-.8,11.5s-25,7-33.89,9.54S390,387,379,391s-30,4-52.34,3.26S256,385,250,384.5s-29-3.5-33-4.5-3-5-.8-6.7,9,0,9,0,57.31,6.75,67.3,8.48,48.64,6.66,65.31,4.19S400.5,368.5,416.5,364.5c13.15-3.29,29.68-8.6,35.15-10.39a3.43,3.43,0,0,0,2.32-2.67,40.84,40.84,0,0,0,.53-6.94c0-11-6-28-9-36s-3-22-6-28"/><path class="cls-1" d="M360.55,386s20.95-3.47,30.95-8.47,17.34-9.46,38.17-15.23,27.73-9.28,23.78-9.53"/><path class="cls-3" d="M440.14,282S437,308,433,318c-3.72,9.3-4.84,14.27-8.2,16.53"/><path class="cls-3" d="M440.93,284.69c-.77,5.9-3.54,25.84-6.93,34.31-4,10-5,15-9,17"/><path class="cls-3" d="M419.5,292.5a100.75,100.75,0,0,1,1,15"/><path class="cls-1" d="M418.5,292.5a79,79,0,0,1,1,14"/><path class="cls-2" d="M217,380s-2.1,8-.91,12.39a1.8,1.8,0,0,0,1.48,1.28c8.83,1.45,69.82,11.4,78.45,11.82a.84.84,0,0,0,.74-.38l1.43-2.14a.85.85,0,0,1,.87-.36l3.76.75a.86.86,0,0,1,.68.84v1.09a.84.84,0,0,0,.77.84l13.63,1.31a.75.75,0,0,0,.79-.51l.59-1.77a.76.76,0,0,1,.9-.5l2.74.67a.75.75,0,0,1,.58.73v.68a.76.76,0,0,0,.76.76h3.84a.75.75,0,0,0,.68-.44l.52-1.12a.75.75,0,0,1,.68-.44h3a.75.75,0,0,1,.71.52l.67,2a.77.77,0,0,0,.66.51l10.66.89a1.08,1.08,0,0,0,1.11-.73l.49-1.47a1.07,1.07,0,0,1,1-.73h8.36a1.09,1.09,0,0,1,1.05.86l.26,1.28a1.07,1.07,0,0,0,1.05.86h3a1.08,1.08,0,0,0,1-.84l.29-1.32a1.06,1.06,0,0,1,1-.84h1.31a1.07,1.07,0,0,1,1,.8l.32,1.25a1.07,1.07,0,0,0,1.21.79l4.36-.69a1.08,1.08,0,0,0,.9-1.06v-1.26a1.08,1.08,0,0,1,.84-1.05l7.76-1.69a.45.45,0,0,1,.53.3l.72,2.15a.45.45,0,0,0,.6.28l4.26-1.71a.43.43,0,0,0,.29-.42v-2.56a.46.46,0,0,1,.27-.42l3.27-1.5a.46.46,0,0,1,.62.27l.67,2a.46.46,0,0,0,.64.26l3.28-1.63a.47.47,0,0,0,.25-.41v-2.13a.46.46,0,0,1,.28-.42l2.08-.9a.46.46,0,0,1,.64.42v1.3a.45.45,0,0,0,.6.43l4.23-1.36a.26.26,0,0,0,.17-.24v-2.87a.26.26,0,0,1,.18-.25l5.58-1.63a.25.25,0,0,1,.31.17l.52,1.74a.25.25,0,0,0,.34.16l4.88-2.06a.3.3,0,0,0,.19-.28v-1.67a.31.31,0,0,1,.22-.29l2.39-.72a.3.3,0,0,1,.39.29v1.4a.31.31,0,0,0,.4.29l2.65-.89a1,1,0,0,0,.62-.61l.64-1.71a1.05,1.05,0,0,1,.7-.63l4.08-1a1,1,0,0,1,1.21.66l.4,1.2a1,1,0,0,0,1.22.66l9.35-2.55a1,1,0,0,0,.73-1v-.84a.56.56,0,0,1,.38-.53l1.95-.65a.56.56,0,0,1,.73.48l.13,1.4a.32.32,0,0,0,.41.27l1.16-.31a.31.31,0,0,0,.24-.31v-1.41a.48.48,0,0,1,.27-.44l1.22-.63a.48.48,0,0,1,.69.28l.39,1.17a1.17,1.17,0,0,0,1.63.68l2.16-1.08a1.17,1.17,0,0,0,.64-1v-.92a.6.6,0,0,1,.32-.52l.83-.42c.39-.19-.15,1.58.85,1.58.35,0,1-1,1-1s1.19-15.66.6-20.83"/><path class="cls-2" d="M238.93,397.13s56.21,11.47,74.89,9.92"/><path class="cls-2" d="M297.09,406.45s24.41,4.05,30.41,4.05,3.28.23,9.64.62,18.35-.62,21.85-1.62"/><path class="cls-2" d="M363,408.66a4.49,4.49,0,0,0,4-.11"/><line class="cls-2" x1="374.34" y1="405.28" x2="383.35" y2="406.04"/><line class="cls-2" x1="388.5" y1="402.81" x2="393.97" y2="402.26"/><line class="cls-2" x1="397.5" y1="399.38" x2="401.1" y2="398.92"/><line class="cls-2" x1="405.5" y1="395.72" x2="412.43" y2="394.64"/><line class="cls-2" x1="417.5" y1="392.3" x2="420.9" y2="391.6"/><line class="cls-2" x1="424.17" y1="390.1" x2="432.42" y2="389.25"/><line class="cls-2" x1="442.5" y1="385.74" x2="446.1" y2="385.87"/><line class="cls-2" x1="447.5" y1="385.25" x2="450.99" y2="385.09"/><line class="cls-2" x1="456.5" y1="382.5" x2="454.5" y2="382.78"/><path class="cls-2" d="M320.37,289.7s-6.37-14.87,19.88-10.53c22.63,3.73,66.64,22.09,78.34,27.08a5.83,5.83,0,0,1,3.46,4.4c1.6,9.75,5.83,39.47.22,52.34"/><path class="cls-2" d="M418.5,364c2-12.49,4-40.49-2-50.49-4.85-8.09-84-35-93-28.63,0,0-4.82,7.63-9.91,14.63s-18.8,20.87-35.45,25.94S217.4,341,221,372.24"/><path class="cls-1" d="M428.71,202h-3.89a1.51,1.51,0,0,0-1.51,1.69C424,209.06,426,225.84,426,235c0,11-.1,30.17-.1,30.17"/><path class="cls-1" d="M444,173.45S437,150.5,414.5,151.75,363,179,371,230c6.6,42.06,44,54,56,49s15-33,15-33"/><path class="cls-1" d="M384,227c-3-9.09-2-18.19-1.39-22.06a2.35,2.35,0,0,1,2.31-1.94h26.87a3.08,3.08,0,0,1,3,2.69L415,207"/><path class="cls-2" d="M396.59,179.63a.44.44,0,0,1-.19-.79,16.54,16.54,0,0,0,3.44-3.14c.66-1.2,2.66-.2,3.66-1.2s2.59-1.82,3.3-1.41a5.24,5.24,0,0,0,3.67-.1c1-.49,1,1.51,2,1.51s2-1.37,2-1.19,2,1.19,3,.19,1-2,2-2,1.87,4,2.93,4,1.07,2.11,2.16,2a2.45,2.45,0,0,1,2.43,1c1.55,2.38-1.62,1.14-1,2.72.49,1.29-.51,1.29-1.51,1.29s-2.26-2.56-3.39-.44a1,1,0,0,1-1.76.3c-.85-.86-.9-.86-1.85-.86s-4-3-5-2a3.67,3.67,0,0,1-3,1c-1,0-3-3-5-3s-2,3-3,3C400.73,180.5,398.18,179.91,396.59,179.63Z"/><path class="cls-2" d="M322.15,227.92s-2.28,1.18-2.46,2.88.18,1.84,0,2.77-1.19,1.93-.19,3.93-.88,1.55-.44,1.27-2.56,3.73-1.56,3.73a2.44,2.44,0,0,1,2.19,2.59c-.19,1.41-1.19.41-1.19,1.41s2,3,1,3-4,4-3,5a7.58,7.58,0,0,1,2,4c0,1,.45,4.4.72,4.2s1.56-.06,1.92,1.37-1.36,4.56,0,5.49A9.21,9.21,0,0,1,323.5,273"/><path class="cls-3" d="M321.72,287.64a7.13,7.13,0,0,1-2-.61"/><path class="cls-3" d="M319.69,285a4.29,4.29,0,0,0,2.87,1.31"/><path class="cls-3" d="M320.21,283.35a10.94,10.94,0,0,0,2.77,2.34"/><path class="cls-3" d="M321.72,281.18a4.46,4.46,0,0,0,1.78,3.69"/><path class="cls-3" d="M324.17,279.62s.15,3.19,1.24,4.53"/><path class="cls-3" d="M328.58,278.54s-2.1.79-.59,5.37"/><path class="cls-3" d="M331.58,278.54s-2.1.79-.59,5.37"/><path class="cls-3" d="M334.49,278.54a5.26,5.26,0,0,0,0,5.84"/><path class="cls-3" d="M337.76,278.8s-1.74,4.45,0,6.07"/><path class="cls-3" d="M341.81,279.44s-1.29,4.26.95,6.41"/><path class="cls-3" d="M346.8,280.5s-.91,4.56,1.15,6.53"/><path class="cls-3" d="M352.05,281.84s-.36,4.68.79,6.42"/><path class="cls-3" d="M356.72,283.16s-.07,5.06,1.1,6.45"/><path class="cls-3" d="M361.53,284.63s-.06,5.43,1.21,6.4"/><line class="cls-3" x1="366.54" y1="286.39" x2="367.05" y2="292.34"/><path class="cls-3" d="M371.22,287.83s.93,3.71.36,5.94"/><path class="cls-3" d="M375.61,289.36s1.5,3.13.44,5.88"/><path class="cls-3" d="M379.9,291s1.51,3.29.31,5.63"/><path class="cls-3" d="M383.7,292.3a7.71,7.71,0,0,1,.38,5.73"/><path class="cls-3" d="M388,293.93s1.19,2.07.08,5.57"/><path class="cls-3" d="M392.6,295.68s.59,1.74,0,5.53"/><path class="cls-3" d="M396.49,297.2a17.07,17.07,0,0,1,0,5.55"/><path class="cls-3" d="M400.24,298.69s.74,4.3-.75,5.3"/><path class="cls-3" d="M403.51,300s1.3,3.5-1.1,5.25"/><path class="cls-3" d="M407.09,301.45s.91,3.85-1.59,5.2"/><path class="cls-3" d="M410.52,302.86a4.58,4.58,0,0,1-2.29,5.11"/><path class="cls-3" d="M413.38,304.05s.92,4.4-2.73,5.18"/><path class="cls-3" d="M416.24,305.25a4.58,4.58,0,0,1-3.16,5.39"/><path class="cls-3" d="M421.08,308.28S420,313,416.5,313.5"/><path class="cls-3" d="M418.59,306.25s1,5.15-3.3,5.95"/><path class="cls-3" d="M422.43,313.08s-1.86,3.36-4.64,3.14"/><path class="cls-3" d="M423.13,317.88s-2,2.49-4.07,2.8"/><path class="cls-3" d="M423.63,321.81s-.94,3.21-3.78,3.7"/><path class="cls-3" d="M424.18,326.84s-1.6,3.05-3.89,3.61"/><path class="cls-3" d="M424.59,331.55a7.12,7.12,0,0,1-4.09,3"/><path class="cls-3" d="M424.8,335.39a5.56,5.56,0,0,1-4.3,4"/><path class="cls-3" d="M425,341.52s-2.42,3.06-4.71,3.77"/><path class="cls-3" d="M425,347.36a7.77,7.77,0,0,1-5,2.43"/><path class="cls-3" d="M424.64,352.74s-2.41,2.5-5,2.38"/><path class="cls-3" d="M424,357a5.45,5.45,0,0,1-4.87,2.29"/><path class="cls-2" d="M433.5,246.5s-1-2,0-3,0-2,2-3,1-2,2-3,.24-3,1.62-4,1.38-3,2.38-4,1.9-2.24,2.45-1.62,3.55,1.62,2.55,4.62.41,4.73.2,5.87.25,2.13,0,3.13.35,2.14.07,3.07,1.71,2,.71,3,0,4-1,5a3.67,3.67,0,0,0-1,3c0,1-.1,4-1.55,5s-.45,2-.45,3,0,3-1,4-1,3-1,4-1.16,1.95-1.08,3-.92,6-.92,8-1,2-2,3-2,1-3,2-3,3-4,3h-3c-1,0-.4.06-2.7,1s-5.58,1-8.94,1-2.36,1-5.36,1-1.53-1.94-2.27-2.47-5.73-1.53-6.73-2.53a7.58,7.58,0,0,0-4-2c-1,0-5,0-6-2s-1.85-.51-2.93-1.75-.07-2.25-1.07-3.25-3-1-4-3-6-5-6-6-.78-4.48-1.89-4.74-4.66-2.53-4.39-3.39-2.36-3-2.54-3.92-.18-5.95-1.18-5.95-3,0-4-4-1.74-6-2.87-7-2.13-2-1.13-3,.18-6.15-.41-7.07-2.39-1.93-1.49-4.43.9-8.5.9-9.5-2.29-2.32-1.15-6.16,1.78-8.84,2.47-9.34-.36-7.95.66-10.23,0-7.27,2-8.27,2-5,3-7,1-1,2-2,1.28-3.87,2.14-4.44.86-2.34,1.86-2.95c.44-.27.49-1,.41-1.75a5.44,5.44,0,0,1,2.56-5.4,5.1,5.1,0,0,1,1-.46,10.69,10.69,0,0,0,5-3c1-1,1.7-4.59,4.35-4.8s2.14-1.11,3.39-1.65.26-3.55,2.26-3.55,4.44-.08,5.72-1.54a7.28,7.28,0,0,1,4.28-2.46h3.1c.9,0,1.49-1.47,3.2-1.23s4.37-.29,5,0,.66-1.57,3.16-1.15,4.5,1.41,5.5,1.41,3-1,5,0,2.42,2.62,3.21,3.31,1.79,2.69,3.79,2.69,1.41,1.09,2.71,2.55,2.29,2.45,4.29,4.45,1,3,2,4,5,5,5,6-2,3.36,0,4.68a6.37,6.37,0,0,1,3,5.32c0,2,.61,9.89,1.8,10.44s1,2.56.6,3.56-1.4,4-.4,5,1,9,0,11a7.56,7.56,0,0,0-1,4c0,1-3,2-4,3s-2,3-4,2-4-1-5,0-1,1-2,1-1.8.77-1.4,1.39,1.4,3.61.4,4.61,0,3,0,3v2c0,1,2,1,1,2a3.67,3.67,0,0,0-1,3c0,1,2,2,1,3a4.94,4.94,0,0,0-1,3s1,2,0,3a1.39,1.39,0,0,0,0,2"/><path class="cls-2" d="M425.09,264.65s.41,1.85,1.41,1.85,1.42-1.69,2.21-1.85.57,1,1.18.93.61-1.08,1.61-2.08,1-2,2-3,2,0,3-2,1-5,2-6,3-6,4-6"/><path class="cls-2" d="M362.5,183.5c-1,0-2-6-2-7s-6-4-7-3-2,1-3.36,2-2.64-1-2.64,0-3,1-4,1a2.2,2.2,0,0,0-2,2.24c0,1.24,1,2.76,0,3.76,0,0-1,0,1,1s4-1,5,0,0,2,2,2,2,0,3,1,5,1,6,1,2.88-2.21,2.88-2.21"/><path class="cls-2" d="M340.59,209.13a7.27,7.27,0,0,1-1.09-3.63c0-2-2-5-2-6s-1-3-1-4-3-5-3-5"/><path class="cls-2" d="M374.47,160a34.71,34.71,0,0,1-3-2.46c-1-1-1.64-3.36-2.82-3.68s-1.18.68-3.18-.32a16.09,16.09,0,0,0-5.45-1.8c-1.55-.2-2.73.42-3,0-1.53-2.2-3.53-1.2-3.53-2.2s-.25-1.66-1.62-1.33-2.38.33-3.38-.67-4-1-5,0-4.19,2.09-5.1,2.55a20.7,20.7,0,0,1-3.65,1.65c-2.25.8-4.25,3.8-5.25,4.8s-1,2-3,3-1,4-2,5-3,3-3,4,.66,2.53-.67,3.26-2.07,5.74-1.7,7.74,1.44,2.12-.09,3.56-2.54,2.44-2.54,3.44,2,1,1,3,0,4.05-1,5.52,1,2.48,1,3.48-2.4,6.2-1.2,7.6,2.2-.6,2.2,1.4-1,3,0,4,2.66,1.93,2.33,2.46,1,1.93,1,1.93"/><path class="cls-2" d="M385.14,227s-.64.5-1.64,1.47,0,5,0,7,4,3,5,5,2,3,2.51,6,1.49,4,3.49,5,1,1,2,3,3,3,4,4,2,0,2,2,3,2,4.3,2.09,1.7.91,2.6,2.58,4.1,2.33,5.1,2.33c0,0,3-1,3-6s1-6,1-8-1-3-1-4,2-3,2-5-2-2-2-4,2-4.83,2-6.91-1-1.09-1-3.09,1-4,0-5,0-2,0-4-1-3.48-1-4.74,1.87-3.26.44-4.26-.43-2-1.43-2,1-1,0-2l-2-2"/><path class="cls-2" d="M409.5,253.5c-1-1-.82-1.53-1.41-2.76s-3.31-3.24-3.45-4.24-3.58-2.26-3.36-3.63-3.68-8.2-4.73-9.28-1.05-3.09-1.05-4.09a7.58,7.58,0,0,0-2-4c-1-1-2-5-1-6s0-2.23.51-3.61.49-2.39,2.49-1.39,2.2,0,3.6.5,2.24,1.27,4.32.89,2.67-1.39,3.38-.89-.71,3.61,0,5.05a18.24,18.24,0,0,1,1.29,5.1c.41,2.35-.41,2.95,0,4.65s1.41,4.82,1.41,6.76-1,2.8,0,4.87,0,3.07,0,5.07Z"/><line class="cls-2" x1="442.95" y1="227.88" x2="445.29" y2="212.87"/><path class="cls-2" d="M427.45,203s2.05-2.5,4.05-2.5,3,1,4,1,.25-1,1.63-1,1.37-1,2.37-1-1-1.93.5-2,2.5,0,2.5,2,0,2,1,2,.57-.73,1.79-.87,2.21-.13,2.21-.13c0-72-55-53-69-28-15.52,27.71-8,61-8,61"/></svg>