<svg width="237" height="152" viewBox="0 0 237 152" fill="none" xmlns="http://www.w3.org/2000/svg">
<path d="M0.769531 4.60977V139.19C0.769531 142.293 2.00221 145.269 4.19639 147.463C6.39056 149.657 9.3665 150.89 12.4695 150.89H224.77C227.873 150.89 230.849 149.657 233.043 147.463C235.237 145.269 236.47 142.293 236.47 139.19V4.60977C236.467 3.45516 236.006 2.34875 235.189 1.53325C234.372 0.717752 233.264 0.259763 232.11 0.259766H5.10954C3.95758 0.262414 2.85371 0.721888 2.04008 1.53738C1.22646 2.35288 0.769528 3.45781 0.769531 4.60977V4.60977Z" stroke="black" stroke-width="0.5" stroke-miterlimit="10"/>
<path d="M236.469 23.2999C236.317 22.8169 236.024 22.3899 235.629 22.0731C235.234 21.7562 234.754 21.5637 234.249 21.5199C232.479 21.3799 166.019 20.1899 121.999 20.1899C77.9791 20.1899 4.75906 21.3799 2.99906 21.5199C2.49538 21.563 2.01601 21.7554 1.62231 22.0725C1.2286 22.3896 0.938481 22.817 0.789062 23.2999" stroke="black" stroke-width="0.5" stroke-miterlimit="10"/>
<path d="M7 0.259766V135.73C7 137.635 7.75614 139.462 9.10236 140.81C10.4486 142.158 12.2748 142.917 14.18 142.92H222.86C223.804 142.92 224.738 142.734 225.61 142.372C226.482 142.011 227.274 141.481 227.941 140.813C228.607 140.145 229.136 139.353 229.496 138.481C229.857 137.608 230.041 136.674 230.04 135.73V0.259766" stroke="black" stroke-width="0.5" stroke-miterlimit="10" stroke-linecap="round" stroke-dasharray="1 2"/>
<path d="M7 25.9999C7 25.9999 94.4 24.8999 122 24.8999C149.6 24.8999 230 25.5599 230 25.5599" stroke="black" stroke-width="0.5" stroke-miterlimit="10" stroke-linecap="round" stroke-dasharray="1 2"/>
<path d="M7 4.36C7 4.36 94.4 3.25 122 3.25C149.6 3.25 230 3.91 230 3.91" stroke="black" stroke-width="0.5" stroke-miterlimit="10" stroke-linecap="round" stroke-dasharray="1 2"/>
<path d="M195.169 110.32V108.77H202.809V110.38H201.999C201.509 110.38 201.309 110.68 201.499 111.13C202.619 113.86 203.759 116.59 204.889 119.32C204.904 119.353 204.925 119.383 204.949 119.41L205.049 119.21C205.629 117.69 206.219 116.21 206.809 114.66C207.039 114.05 206.809 113.66 206.139 113.66H205.399L205.999 112C205.999 112 206.129 111.92 206.189 111.92H213.999H214.079C213.879 112.46 213.689 113 213.479 113.54C213.479 113.54 213.329 113.63 213.249 113.63C212.869 113.63 212.479 113.63 212.099 113.69C211.705 113.716 211.328 113.858 211.015 114.099C210.702 114.339 210.467 114.666 210.339 115.04C209.673 116.74 209.006 118.44 208.339 120.14L206.899 123.83C206.854 123.946 206.854 124.074 206.899 124.19C207.489 125.68 208.109 127.19 208.709 128.63L208.769 128.73C208.811 128.67 208.848 128.606 208.879 128.54C211.299 122.98 213.709 117.42 216.149 111.87C216.236 111.704 216.278 111.518 216.269 111.33C216.261 111.143 216.203 110.961 216.101 110.804C215.999 110.646 215.858 110.518 215.69 110.433C215.523 110.348 215.336 110.309 215.149 110.32C214.926 110.335 214.702 110.335 214.479 110.32V108.71H220.959V110.26H220.449C219.972 110.234 219.498 110.356 219.093 110.611C218.689 110.865 218.373 111.239 218.189 111.68C217.519 113.08 216.889 114.5 216.249 115.92L209.249 131.56C209.213 131.675 209.136 131.774 209.033 131.838C208.931 131.902 208.809 131.928 208.689 131.91C207.949 131.91 207.209 131.91 206.469 131.91C206.393 131.92 206.316 131.902 206.251 131.86C206.187 131.818 206.14 131.754 206.119 131.68C205.779 130.79 205.429 129.92 205.119 129.04C205.119 128.98 205.069 128.93 205.019 128.81L203.269 133.07H203.639C207.119 133.07 210.639 133.07 214.089 133.07C214.474 133.088 214.858 133.026 215.218 132.889C215.578 132.751 215.905 132.54 216.179 132.27C216.649 131.817 217.068 131.314 217.429 130.77C217.929 130.01 218.359 129.21 218.809 128.42C218.843 128.34 218.903 128.273 218.979 128.229C219.055 128.186 219.143 128.169 219.229 128.18C219.679 128.18 220.129 128.18 220.629 128.18L220.499 128.47L217.559 134.47C217.543 134.536 217.504 134.594 217.449 134.634C217.394 134.675 217.327 134.694 217.259 134.69H194.909C195.089 134.17 195.269 133.69 195.459 133.17C195.459 133.12 195.609 133.08 195.689 133.08H197.459C198.015 133.076 198.561 132.935 199.049 132.67C199.578 132.394 199.985 131.93 200.189 131.37C201.069 129.07 201.959 126.76 202.859 124.46C202.901 124.373 202.923 124.277 202.923 124.18C202.923 124.083 202.901 123.987 202.859 123.9C201.206 119.9 199.539 115.9 197.859 111.9C197.724 111.54 197.535 111.203 197.299 110.9C197.119 110.676 196.888 110.499 196.625 110.383C196.362 110.266 196.076 110.214 195.789 110.23L195.169 110.32Z" stroke="black" stroke-width="0.25" stroke-miterlimit="10" stroke-linecap="round"/>
<path d="M168.23 102.85C166.603 113.036 164.973 123.243 163.34 133.47H149C149.11 132.73 149.2 132.01 149.32 131.3L153.19 107.5C154.657 98.4264 156.123 89.353 157.59 80.2797C158.75 73.133 159.9 65.983 161.04 58.8297C161.09 58.5397 161.17 58.3597 161.53 58.3597H175.23C175.315 58.3779 175.398 58.4013 175.48 58.4297C175.27 59.7897 175.06 61.1597 174.82 62.6997L175.42 62.1997C179.536 58.5313 184.91 56.5964 190.42 56.7997C198.5 57.0897 204.67 61.7997 207.3 69.5197C209.004 74.6985 209.136 80.2658 207.68 85.5197C206.211 91.6321 203.046 97.2057 198.55 101.6C194.744 105.426 189.814 107.935 184.48 108.76C180.11 109.43 175.9 109.03 172.07 106.64C170.537 105.662 169.228 104.37 168.23 102.85ZM193.9 80.8497C193.82 79.8497 193.79 79.1297 193.69 78.4197C193.433 75.8258 192.255 73.4097 190.37 71.6097C187.66 69.1597 184.45 68.7597 181.02 69.7097C177.701 70.6919 174.855 72.8545 173.02 75.7897C170.02 80.1897 169.02 84.9397 170.76 90.0497C171.202 91.5816 172.044 92.9685 173.198 94.0684C174.353 95.1683 175.779 95.9418 177.33 96.3097C178.659 96.6427 180.04 96.709 181.394 96.5048C182.748 96.3005 184.049 95.8297 185.22 95.1197C190.79 91.8197 193.44 86.7997 193.9 80.8197V80.8497Z" stroke="black" stroke-width="0.5" stroke-miterlimit="10" stroke-linecap="round"/>
<path d="M109.16 58.6496H123.9C123.79 59.4096 123.69 60.1196 123.57 60.8296C122.36 68.0696 121.13 75.2996 119.95 82.5296C119.57 84.8496 119.3 87.1896 119.07 89.5296C118.943 90.9156 119.152 92.3117 119.68 93.5996C120.044 94.5546 120.675 95.3846 121.498 95.991C122.32 96.5974 123.3 96.9544 124.32 97.0196C129.02 97.5896 132.45 95.6396 134.42 91.3496C135.425 88.9352 136.098 86.3953 136.42 83.7996C137.233 78.9196 138.05 74.0463 138.87 69.1796C139.43 65.8196 140.01 62.4696 140.56 59.1196C140.62 58.7496 140.74 58.6096 141.14 58.6196H154.93C155.07 58.6196 155.21 58.6196 155.42 58.6796C155.19 60.0096 154.98 61.3196 154.76 62.6196C153.98 67.2396 153.23 71.8596 152.42 76.4696C151.57 81.2796 150.82 86.1096 149.75 90.8696C148.801 95.1244 146.637 99.0119 143.52 102.06C140.651 104.865 137.067 106.829 133.16 107.74C126.929 109.419 120.357 109.357 114.16 107.56C108.23 105.77 104.93 101.8 104.03 96.0196C103.626 92.6843 103.778 89.3052 104.48 86.0196C105.27 81.4296 106.03 76.8296 106.81 72.2296L109.09 58.9996C109.1 58.8996 109.13 58.7996 109.16 58.6496Z" stroke="black" stroke-width="0.5" stroke-miterlimit="10" stroke-linecap="round"/>
<path d="M236.469 68.7496C233.748 69.3999 231.367 71.0397 229.789 73.3496C228.223 75.7123 227.167 78.3757 226.689 81.1696C225.909 85.2596 225.249 89.3796 224.579 93.4896C223.849 97.8496 223.169 102.22 222.439 106.59C222.411 106.691 222.357 106.783 222.284 106.858C222.21 106.933 222.119 106.989 222.019 107.02C217.389 107.02 212.759 107.02 208.139 107.02C208.059 107.003 207.982 106.977 207.909 106.94C210.576 90.4729 213.243 73.9862 215.909 57.4796H230.399C230.129 59.1896 229.869 60.8396 229.579 62.6596C231.497 60.4449 233.836 58.6331 236.459 57.3296L236.469 68.7496Z" stroke="black" stroke-width="0.5" stroke-miterlimit="10" stroke-linecap="round"/>
<path d="M62.3894 85.7698C62.9494 87.1698 63.3894 88.5998 64.0494 89.9198C65.2282 92.4529 67.2801 94.4764 69.8294 95.6198C71.522 96.4395 73.4068 96.7796 75.2791 96.6033C77.1514 96.427 78.9396 95.741 80.4494 94.6198C82.0498 93.5106 83.3785 92.0538 84.3362 90.3585C85.2939 88.6631 85.8556 86.773 85.9794 84.8298C86.3094 81.4398 84.8394 78.9098 82.0594 77.0298C80.0594 75.6498 75.3894 74.2798 73.1294 73.3498C70.1012 72.2353 67.307 70.5669 64.8894 68.4298C63.3163 67.1395 62.0433 65.5219 61.1591 63.6895C60.2748 61.8572 59.8006 59.8541 59.7694 57.8198C59.6545 54.3248 60.2423 50.8423 61.498 47.5786C62.7536 44.3149 64.6516 41.3365 67.0794 38.8198C71.4602 34.3079 77.2278 31.3959 83.4594 30.5498C88.0613 29.9798 92.7321 30.6352 96.9994 32.4498C100.122 33.5688 102.952 35.3769 105.279 37.7398C106.229 38.7398 106.229 38.7398 105.339 39.8098C102.886 42.7431 100.429 45.6665 97.9694 48.5798C97.8594 48.7198 97.7394 48.8498 97.5794 49.0198L96.8094 47.8698C95.7358 46.2637 94.2691 44.959 92.5488 44.08C90.8284 43.201 88.9118 42.7769 86.9812 42.8481C85.0506 42.9193 83.1704 43.4833 81.5195 44.4866C79.8685 45.4899 78.5018 46.899 77.5494 48.5798C77.0165 49.4274 76.6758 50.3815 76.5514 51.3749C76.427 52.3683 76.5219 53.377 76.8294 54.3298C77.3807 55.8789 78.4944 57.1639 79.9494 57.9298C82.1994 59.1998 84.5194 60.3398 86.8494 61.4498C89.5095 62.6096 92.0741 63.9772 94.5194 65.5398C96.9173 67.0526 98.8652 69.1813 100.16 71.7036C101.454 74.226 102.048 77.0496 101.879 79.8798C101.782 87.8947 98.6227 95.5689 93.0494 101.33C89.6417 104.705 85.4442 107.175 80.8387 108.514C76.2332 109.854 71.3658 110.021 66.6794 109C61.3273 107.663 56.7196 104.267 53.8594 99.5498C53.0094 98.2298 52.3394 96.7898 51.5894 95.4098C51.4394 95.1398 51.3994 94.9398 51.6894 94.6998L62.2294 85.8698C62.2765 85.8273 62.3306 85.7935 62.3894 85.7698V85.7698Z" stroke="black" stroke-width="0.5" stroke-miterlimit="10" stroke-linecap="round"/>
</svg>
