<svg xmlns="http://www.w3.org/2000/svg" viewBox="0 0 400 500"><defs><style>.cls-1,.cls-2,.cls-3{fill:none;stroke:#000;stroke-linecap:round;stroke-miterlimit:10;}.cls-1,.cls-2{stroke-width:0.5px;}.cls-1{stroke-dasharray:1 2;}.cls-3{stroke-width:0.25px;}</style></defs><g id="Layer_1-2" data-name="Layer 1"><path class="cls-1" d="M169.4,211.16c0-20.75.33-51.25.33-51.25s-.11-6.41-3.73-9.6a.9.9,0,0,0-1.21,0,11.66,11.66,0,0,0-4.36,9c-.06,5.52,0,22.91,0,51.85"/><path class="cls-1" d="M169.59,228.85c0-.82,0-1.56-.05-2.2-.09-2.92-.13-7.53-.14-13"/><path class="cls-1" d="M170.27,280.48c-.1-12.61-.28-27.68-.45-39.18"/><path class="cls-1" d="M161.2,293.05c.17,6.42.33,10.64.47,11.76.33,2.76,2.55,6.67,3.61,8.41a.65.65,0,0,0,1.16,0c1.16-1.72,3.62-5.69,3.84-8.92.07-1,.09-5.25.07-11.29"/><path class="cls-1" d="M160.47,241.37c.08,14.6.25,28.3.45,39.23"/><path class="cls-1" d="M160.42,213.7q0,6.11,0,12.86V229"/><path class="cls-1" d="M161.88,311.16s-.59,49.58-.83,75.83"/><path class="cls-1" d="M170.35,311.31s-.18,43.39-.7,76"/><path class="cls-1" d="M151.05,179.63s-8.17,25.51-10,38.47-1.28,167.66-1.28,167.66"/><path class="cls-1" d="M139.1,231.88s-25.95.14-31-.39"/><path class="cls-1" d="M94.68,297.76a9.74,9.74,0,0,0,3.42,1.16.21.21,0,0,0,.24-.2l0-29"/><line class="cls-1" x1="159.72" y1="116.41" x2="160.84" y2="150.77"/><path class="cls-1" d="M168.7,116.41s.64,28.31.64,34.42"/><rect class="cls-1" x="151.72" y="230.08" width="4.58" height="8.87" rx="1"/><rect class="cls-1" x="174.84" y="230.08" width="4.58" height="8.87" rx="1"/><rect class="cls-1" x="151.72" y="281.81" width="4.58" height="8.87" rx="1"/><rect class="cls-1" x="174.84" y="281.81" width="4.58" height="8.87" rx="1"/><path class="cls-1" d="M158.57,180.75c-11.85-4.27-17.62-10.32-20.66-15.58-5.53-9.59-6.84-36.27-7.33-43.16l-.31-6.35"/><path class="cls-1" d="M232.39,184A150.11,150.11,0,0,1,204,186.27h-4.74A151,151,0,0,1,171,184.05"/><path class="cls-1" d="M273,115.66l-.31,6.35c-.49,6.89-1.8,33.57-7.33,43.16-3,5.25-8.78,11.29-20.58,15.56"/><path class="cls-1" d="M158.62,169.66c-5.79-2.62-9.23-5.69-11.3-8.76-5.53-8.19-6.27-33-6.76-38.92l-.31-5.42"/><path class="cls-1" d="M232.27,173.6A154.55,154.55,0,0,1,204,176.69h-4.74a155,155,0,0,1-28.18-3.07"/><path class="cls-1" d="M263,116.56l-.3,5.42c-.5,5.88-1.23,30.73-6.77,38.92-2.08,3.07-5.52,6.16-11.34,8.78"/><path class="cls-1" d="M233.86,211.17c0-20.76-.33-51.26-.33-51.26s.11-6.41,3.73-9.6a.92.92,0,0,1,1.22,0,11.73,11.73,0,0,1,4.36,9c0,5.52,0,22.87,0,51.75"/><path class="cls-1" d="M233.67,228.86c0-.83,0-1.57.06-2.21.08-2.91.12-7.52.13-13"/><path class="cls-1" d="M233,280.57c.1-12.59.28-27.73.45-39.22"/><path class="cls-1" d="M242.06,293c-.16,6.43-.33,10.65-.47,11.77-.33,2.76-2.54,6.67-3.6,8.41a.66.66,0,0,1-1.17,0c-1.16-1.72-3.61-5.69-3.84-8.92-.07-1-.09-5.24-.06-11.27"/><path class="cls-1" d="M242.79,241.34c-.08,14.6-.25,28.3-.45,39.23"/><path class="cls-1" d="M242.84,213.66v12.9c0,.76,0,1.51,0,2.26"/><path class="cls-1" d="M241.38,311.16s.59,49.58.83,75.83"/><path class="cls-1" d="M232.91,311.31s.18,43.39.7,76"/><path class="cls-1" d="M252.21,179.63s8.18,25.51,10,38.47,1.28,167.66,1.28,167.66"/><path class="cls-1" d="M264.16,231.88s25.95.14,31-.39"/><path class="cls-1" d="M308.58,297.76a9.74,9.74,0,0,1-3.42,1.16.2.2,0,0,1-.23-.2l0-29"/><line class="cls-1" x1="243.54" y1="116.41" x2="242.43" y2="150.77"/><path class="cls-1" d="M234.57,116.41s-.65,28.31-.65,34.42"/><rect class="cls-1" x="246.96" y="230.08" width="4.58" height="8.87" rx="1" transform="translate(498.49 469.03) rotate(180)"/><rect class="cls-1" x="223.84" y="230.08" width="4.58" height="8.87" rx="1" transform="translate(452.25 469.03) rotate(180)"/><rect class="cls-1" x="246.96" y="281.81" width="4.58" height="8.87" rx="1" transform="translate(498.49 572.48) rotate(180)"/><rect class="cls-1" x="223.84" y="281.81" width="4.58" height="8.87" rx="1" transform="translate(452.25 572.48) rotate(180)"/><g id="BVTmzF"><path class="cls-2" d="M189.32,332.92v-6.4l1.13.16,8.72,1.29c1.38.21,2.75.43,4.12.62a8.91,8.91,0,0,0,3.09,0,2.18,2.18,0,0,0,1.88-2.61,3.42,3.42,0,0,0-1.87-2.63,10,10,0,0,0-3.46-1.15c-2.27-.37-4.56-.7-6.84-1.05s-4.39-.65-6.58-1a.27.27,0,0,1-.19-.2q0-3,0-6.08a1.21,1.21,0,0,1,0-.14l23.58,3.54v6.4l-2.06-.3-.05.07a8.47,8.47,0,0,1,.7.63,7.44,7.44,0,0,1,1.74,7.84,5.46,5.46,0,0,1-2.95,3.13l-.2.11,0,0,.19.17a9,9,0,0,1,3.37,5.81,7,7,0,0,1-.6,4.24,4.81,4.81,0,0,1-3.4,2.46,11.17,11.17,0,0,1-4,.19c-2.81-.37-5.61-.79-8.42-1.2l-6.81-1c-.29,0-.58-.07-.85-.13-.08,0-.19-.13-.19-.2,0-2,0-4.09,0-6.14,0,0,0,0,0-.08l1.28.18,7.9,1.19c1.53.23,3.06.47,4.6.68a9.73,9.73,0,0,0,3.23,0,2.13,2.13,0,0,0,1.9-2.55,3.44,3.44,0,0,0-1.84-2.6A9.9,9.9,0,0,0,203,335c-1.71-.31-3.44-.56-5.16-.82l-6.42-1Z"/><path class="cls-2" d="M192.27,254.46,178,252.22v-6.56l1,.14,11.08,1.77,12.66,2,10,1.58c.13,0,.22.05.22.22q0,3.13,0,6.27s0,0,0,.11l-2-.3.23.27a9.71,9.71,0,0,1,2.52,6.86,8.21,8.21,0,0,1-5.92,7.72,13,13,0,0,1-7.42.17,15.55,15.55,0,0,1-7.48-4.17,11.52,11.52,0,0,1-3.33-6.44,7.92,7.92,0,0,1,1-5.67A5.84,5.84,0,0,1,192.27,254.46Zm10.25,11.74c.46,0,.8-.05,1.12-.09a5.08,5.08,0,0,0,3.17-1.52,4.25,4.25,0,0,0,.89-4.28,6.51,6.51,0,0,0-2.83-3.68,7.25,7.25,0,0,0-6.63-1,4.14,4.14,0,0,0-2.92,3,4.71,4.71,0,0,0,.56,3.61A8,8,0,0,0,202.52,266.2Z"/><path class="cls-2" d="M199.9,206.39c-.66.23-1.34.42-2,.69a5.24,5.24,0,0,0-2.69,2.42,3.87,3.87,0,0,0,.45,4.44,6.33,6.33,0,0,0,4.64,2.31,3.94,3.94,0,0,0,3.69-1.64c.66-.85,1-2.79,1.47-3.74a14,14,0,0,1,2.6-4,7,7,0,0,1,5-2.14,13.36,13.36,0,0,1,9,3.05A12.75,12.75,0,0,1,226,215.2a9.86,9.86,0,0,1-.86,5.67,9.12,9.12,0,0,1-2.51,3.46c-.47.4-.47.4-1,0l-4.15-3.08-.21-.17.55-.32a4.46,4.46,0,0,0-.34-8,3.57,3.57,0,0,0-2.72-.3,3,3,0,0,0-1.71,1.3c-.6.94-1.14,1.91-1.66,2.88a21.92,21.92,0,0,1-1.94,3.21,7.81,7.81,0,0,1-6.79,3.08,16,16,0,0,1-10.16-3.69,10.93,10.93,0,0,1-3.71-6.27,10,10,0,0,1,.09-4.77,8.9,8.9,0,0,1,4.47-5.36c.63-.36,1.31-.63,2-.95a.25.25,0,0,1,.34,0l4.18,4.41A.17.17,0,0,1,199.9,206.39Z"/><path class="cls-2" d="M212.92,227v6.75l-1.06-.15q-5.27-.84-10.54-1.66c-1.12-.17-2.26-.3-3.39-.4a4.62,4.62,0,0,0-2,.27,2.46,2.46,0,0,0-1.66,2.13,4.11,4.11,0,0,0,2.75,4.62,15.55,15.55,0,0,0,3.67.92l7.1,1.12,4.89.77c.18,0,.24.08.24.27v6.3c0,.07,0,.13,0,.23l-1.91-.3c-2.25-.36-4.49-.7-6.73-1.08s-4.68-.73-7-1.22a11,11,0,0,1-5.43-2.85,9.94,9.94,0,0,1-2.76-4.73,15.3,15.3,0,0,1,.09-8.69,6.42,6.42,0,0,1,5.6-4.63,15.92,15.92,0,0,1,4.87.2c2.23.37,4.47.72,6.7,1.07l6.42,1Z"/><path class="cls-2" d="M212.92,277.07v6.76l-2.47-.38c2.84,2.51,4,5.45,2.69,9.14l-6.27-1.78s0-.07,0-.09a5.22,5.22,0,0,0-1.52-7.18,9.85,9.85,0,0,0-3.73-1.45c-1.95-.36-3.91-.67-5.86-1l-6.25-1a.29.29,0,0,1-.2-.2q0-3.24,0-6.48a.82.82,0,0,1,0-.11Z"/><path class="cls-2" d="M207.56,371.42a7.75,7.75,0,0,0,5.59-5.23,12.61,12.61,0,0,0,.44-5.46,12.16,12.16,0,0,0-4.58-8.31,16.39,16.39,0,0,0-6.79-3.18,14.4,14.4,0,0,0-6.75-.11,8.46,8.46,0,0,0-6.4,5.92,12.37,12.37,0,0,0-.35,6,13.07,13.07,0,0,0,6.89,9.53l.28.14c0-.05,0-.07.05-.1l1-5.81a.32.32,0,0,0-.12-.25c-.27-.22-.56-.41-.82-.62a5.42,5.42,0,0,1-2.24-4.61,3.13,3.13,0,0,1,2-3,8.57,8.57,0,0,1,1.94-.46,7.7,7.7,0,0,1,2.34.1v15.22c0,.2,0,.31.27.34.78.08,1.55.22,2.33.28A13.5,13.5,0,0,0,207.56,371.42Zm-3.29-14.57c.43.18.85.32,1.25.52a5.94,5.94,0,0,1,3.07,3,3.86,3.86,0,0,1,0,3.24,3.66,3.66,0,0,1-2.59,2,15.81,15.81,0,0,1-1.76.27Z"/><path class="cls-2" d="M207.3,312.28a7.66,7.66,0,0,0,5.91-5.25,11.37,11.37,0,0,0,.38-4.95,11.51,11.51,0,0,0-5.06-8.29,17,17,0,0,0-6.5-2.71,14.93,14.93,0,0,0-6.65-.05,8.29,8.29,0,0,0-6.2,5.3,11.09,11.09,0,0,0-.52,5.65,12.16,12.16,0,0,0,5,8.2c.7.52,1.47.95,2.25,1.44,0-.14.07-.19.08-.23.29-1.68.56-3.37.89-5a.74.74,0,0,0-.39-.9,5.44,5.44,0,0,1-2.71-3.95,3.24,3.24,0,0,1,2.49-3.8,9.06,9.06,0,0,1,3.59-.19c.08,0,.16.13.19.21s0,.16,0,.24v14c0,.24,0,.35.32.37s.85.13,1.28.18A16,16,0,0,0,207.3,312.28Zm-3.05-13.9a7.32,7.32,0,0,1,1.82.74,5.42,5.42,0,0,1,2.7,3.05,3.23,3.23,0,0,1-1.25,3.85,5,5,0,0,1-2.22.78c-.34,0-.68.05-1.05.08Z"/></g><g id="kh1v2u"><path class="cls-3" d="M248,359.43h.3a.88.88,0,0,1,.7.28,1.23,1.23,0,0,1,.26.42c.78,1.67,1.55,3.35,2.32,5a.25.25,0,0,1,0,.24c-.42,1-.83,1.93-1.24,2.9a1.07,1.07,0,0,1-.53.54,1.58,1.58,0,0,1-.74.17h-.83s-.1,0-.11,0c-.09.21-.17.43-.26.64h10.37a.13.13,0,0,0,.14-.09c.46-.84.92-1.68,1.37-2.52a.67.67,0,0,0,.06-.12h-.65a.17.17,0,0,0-.19.1c-.21.33-.42.66-.65,1a3.84,3.84,0,0,1-.58.63,1.37,1.37,0,0,1-1,.34h-5.05l.82-1.79.05.09.48,1.11a.15.15,0,0,0,.16.1h1a.25.25,0,0,0,.26-.15l3.27-6.57c.3-.59.59-1.19.9-1.78a1.09,1.09,0,0,1,1.06-.59H260v-.65h-3v.68a1.58,1.58,0,0,0,.31,0,.46.46,0,0,1,.48.65c-1.14,2.33-2.26,4.67-3.39,7a.35.35,0,0,1-.05.08l0,0-.85-1.86a.22.22,0,0,1,0-.16l.67-1.54c.31-.72.63-1.43.93-2.14a.93.93,0,0,1,.82-.57c.18,0,.36,0,.54,0s.1,0,.11,0c.1-.23.19-.46.28-.68l0,0h-3.64a.13.13,0,0,0-.09,0l-.29.67h.35c.3,0,.42.18.31.43l-.82,1.92-.05.08,0,0L251,359.77c-.08-.18,0-.3.24-.31h.39v-.68H248Z"/><path class="cls-3" d="M248,359.43v-.65h3.56v.68h-.39c-.23,0-.32.13-.24.31l1.58,3.44,0,0,.05-.08.82-1.92c.11-.25,0-.41-.31-.43h-.35l.29-.67a.13.13,0,0,1,.09,0h3.64l0,0c-.09.22-.18.45-.28.68,0,0-.07,0-.11,0s-.36,0-.54,0a.93.93,0,0,0-.82.57c-.3.71-.62,1.42-.93,2.14l-.67,1.54a.22.22,0,0,0,0,.16l.85,1.86,0,0a.35.35,0,0,0,.05-.08c1.13-2.33,2.25-4.67,3.39-7a.46.46,0,0,0-.48-.65,1.58,1.58,0,0,1-.31,0v-.68h3v.65h-.23a1.09,1.09,0,0,0-1.06.59c-.31.59-.6,1.19-.9,1.78l-3.27,6.57a.25.25,0,0,1-.26.15h-1a.15.15,0,0,1-.16-.1l-.48-1.11-.05-.09-.82,1.79h5.05a1.37,1.37,0,0,0,1-.34,3.84,3.84,0,0,0,.58-.63c.23-.32.44-.65.65-1a.17.17,0,0,1,.19-.1h.65a.67.67,0,0,1-.06.12c-.45.84-.91,1.68-1.37,2.52a.13.13,0,0,1-.14.09H247.89c.09-.21.17-.43.26-.64,0,0,.07,0,.11,0h.83a1.58,1.58,0,0,0,.74-.17,1.07,1.07,0,0,0,.53-.54c.41-1,.82-1.94,1.24-2.9a.26.26,0,0,0,0-.24c-.77-1.67-1.54-3.35-2.32-5a1.23,1.23,0,0,0-.26-.42.88.88,0,0,0-.7-.28Z"/></g><path class="cls-2" d="M128.34,121.39s-3.57,1.49-3.5,1.92,3.67.85,3.67.85"/><path class="cls-2" d="M124.84,123.31s-.28,5.34-.48,6.52-7.2,24.71-10.18,34.23-9.08,29.48-8.78,34.54a29.44,29.44,0,0,0,.43,3.43,26.39,26.39,0,0,0,9.28,15.79h0"/><line class="cls-2" x1="106.89" y1="217.18" x2="107.39" y2="207.41"/><path class="cls-2" d="M128.57,125.29s-2.71-.06-2.71.36,2.83,1.89,2.83,1.89"/><line class="cls-2" x1="157.74" y1="116.41" x2="158.68" y2="156.36"/><path class="cls-2" d="M171.29,157c.09-5.5-.23-40.74-.23-40.74"/><path class="cls-2" d="M170.84,211.06c0-21.48.45-53.64.45-53.64s-.15-6.63-5.06-9.94a1.54,1.54,0,0,0-1.65,0c-1.79,1.1-5.85,4.15-5.92,9.35-.07,5.76,0,23.82,0,54.19"/><path class="cls-2" d="M171.1,228.64c0-.9-.06-1.48-.08-2.17-.11-2.9-.16-7.29-.18-12.68"/><path class="cls-2" d="M172,280.44c-.14-12.82-.37-27.51-.6-38.94"/><path class="cls-2" d="M159.66,293.15c.25,7.82.48,12.91.69,14.19.45,2.85,3.45,6.9,4.89,8.7a1,1,0,0,0,1.58,0c1.57-1.78,4.91-5.89,5.21-9.22.11-1.18.15-6.35.1-13.72"/><path class="cls-2" d="M158.72,241.42c.1,14.52.31,27.85.57,39"/><path class="cls-2" d="M158.65,213.82c0,4,0,8.13,0,12.56v2.29"/><circle class="cls-2" cx="165.37" cy="156.94" r="3.96"/><path class="cls-2" d="M160.05,303.48s-.26,17.61-.48,39.38,0,43.88,0,43.88a30.75,30.75,0,0,0,5.8.57c4,.11,6.16,0,6.16,0l.6-83.83"/><circle class="cls-2" cx="164.53" cy="200.43" r="1.02"/><path class="cls-2" d="M162.89,213.73h-4.54a.67.67,0,0,0-.67.67c0,1.39-.06,4.63,0,6.51a1.78,1.78,0,0,0,.82,1.47l.14.09"/><path class="cls-2" d="M171,222.38a1.78,1.78,0,0,0,.82-1.47c0-1.88,0-5.12,0-6.51a.69.69,0,0,0-.68-.67h-5.67"/><path class="cls-2" d="M162.81,211.11H158a2.56,2.56,0,0,0-2.38,2.62s-.1,6.35,0,8.14,3,2,3,2"/><path class="cls-2" d="M171,223.88c.64-.09,2.7-.5,2.78-2,.1-1.79,0-8.14,0-8.14a2.56,2.56,0,0,0-2.38-2.62h-5.87"/><path class="cls-2" d="M163.38,210.62H165a.45.45,0,0,1,.45.45v4.36a1.27,1.27,0,0,1-1.27,1.27h0a1.27,1.27,0,0,1-1.27-1.27v-4.36a.45.45,0,0,1,.45-.45Z"/><path class="cls-2" d="M129.87,142.62s-10.15,38.35-14.1,44.81-9.22,10.14-6.19,15.15,28.45-9.37,30.1-31.31"/><path class="cls-2" d="M149.89,179s-8.37,26.13-10.21,39.09-1.28,167.46-1.28,167.46"/><path class="cls-2" d="M139.1,229.14s-24.51.14-29.6-.39"/><path class="cls-2" d="M97.51,267.28c3.13-.1,6.11-.23,6.11-.23s2.67,0,3.27-4.55-2.25-21.75-.57-27.74,8.5-14.3,16-13.66,12.22,8.06,12.22,8.06"/><path class="cls-2" d="M136,229a19.53,19.53,0,0,0-16.61-10.86c-12.5-.92-23.69-1.89-23.69-1.89s-7.08-.92-8,8.77-1.09,35.91-.42,38.36,1.85,3.88,3.29,4.05c.46.05,2,0,3.88,0"/><path class="cls-2" d="M135.2,229.16s-5.94-11.41-16.36-9.25-13.11,13.75-13,19"/><path class="cls-2" d="M92.9,267.41a4.08,4.08,0,0,1,.87,2.75c-.06,1.73-.56,16.59-1.07,28.43s-2.14,28.73-2.14,34.4-.78,14.06,1.61,15,6.8.2,9.52,1.66l12.69,4.18"/><path class="cls-2" d="M91,346.5s-.26-5.87,4.53-4.65,12.94,6.75,16.18,9.5,3.65,4.56,8.66,6,17.92,4.48,17.92,4.48"/><path class="cls-2" d="M101.69,349.68s.11,10.29,0,14.91-.62,9.1,0,12.78c0,0,3.11,2.72,12.13,4.11s9.7,1.29,17.77,3,8.62,1.33,17.51,1.25,10.47,1,10.47,1"/><path class="cls-2" d="M90.76,254.07c0,.8.11,1.61.22,2.42.92,7.1,3.6,8.58,3.6,12.82s-.43,27.62.31,29.36c.61,1.41,3.18,1.79,4.12,1.89a.32.32,0,0,0,.35-.31c0-3.05.21-25.53,0-27.29s-2.87-7.43-3.06-11.66c-.17-3.91-.28-12.07-3.65-17.44a.68.68,0,0,0-1.24.25,48.32,48.32,0,0,0-.68,6.42"/><ellipse class="cls-2" cx="91.95" cy="252.7" rx="1.48" ry="3.6" transform="translate(-23.95 10.05) rotate(-5.54)"/><path class="cls-2" d="M94.61,248.31c.2-.42.46-.69.78-.72.81-.08,1.63,1.46,1.82,3.44s-.32,3.65-1.13,3.73a.66.66,0,0,1-.2,0"/><path class="cls-2" d="M171.58,241.42c2.38,0,2.38-1,2.38-1h5.68a1.15,1.15,0,0,0,1.15-1.15V229.15a.4.4,0,0,0-.39-.4H150.67a.39.39,0,0,0-.39.4v10.09a1.14,1.14,0,0,0,1.15,1.15h5.68s0,1,2.37,1Z"/><path class="cls-2" d="M171.58,293.14c2.38,0,2.38-1,2.38-1h5.68a1.15,1.15,0,0,0,1.15-1.15V280.88a.4.4,0,0,0-.39-.4H150.67a.39.39,0,0,0-.39.4V291a1.14,1.14,0,0,0,1.15,1.15h5.68s0,1,2.37,1Z"/><path class="cls-2" d="M190,97.83s-3.93,6.49-5,12.41-1,5.43-1,5.43"/><path class="cls-2" d="M232.22,186.05a144.82,144.82,0,0,1-28.22,2h-4.74a144.7,144.7,0,0,1-28.3-2"/><path class="cls-2" d="M158.62,182.85c-13.78-4.8-20.22-12-23.48-17.68-5.54-9.59-6.28-36.27-6.77-43.16s1.9-6.35,1.9-6.35l10,.93c2.86,0,31.08-.94,59.77-.94,29.78,0,60.07.89,63,.94l10-.93s2.39-.53,1.9,6.35-1.23,33.57-6.76,43.16c-3.27,5.66-9.69,12.86-23.44,17.66"/><path class="cls-2" d="M274.93,121.39s3.56,1.49,3.49,1.92-3.66.85-3.66.85"/><path class="cls-2" d="M278.42,123.31s.28,5.34.48,6.52,7.21,24.71,10.18,34.23,9.08,29.48,8.79,34.54a32,32,0,0,1-.44,3.43,26.34,26.34,0,0,1-9.28,15.79h0"/><line class="cls-2" x1="296.37" y1="217.18" x2="295.87" y2="207.41"/><path class="cls-2" d="M274.69,125.29s2.71-.06,2.71.36-2.83,1.89-2.83,1.89"/><line class="cls-2" x1="245.52" y1="116.41" x2="244.58" y2="156.36"/><path class="cls-2" d="M232,157c-.09-5.5.23-40.74.23-40.74"/><path class="cls-2" d="M232.17,228.62c0-.8.05-1.52.07-2.15.11-2.9.16-7.43.18-12.81"/><path class="cls-2" d="M231.26,280.57c.14-12.8.37-27.82.61-39.24"/><path class="cls-2" d="M243.63,293c-.25,7.88-.51,13.09-.71,14.38-.45,2.85-3.46,6.9-4.9,8.7a1,1,0,0,1-1.58,0c-1.57-1.78-4.9-5.89-5.21-9.22-.1-1.18-.12-6.45-.08-13.83"/><path class="cls-2" d="M244.54,241.26c-.1,14.52-.32,28.19-.58,39.31"/><path class="cls-2" d="M244.61,213.66q0,6.06,0,12.72v2.24"/><path class="cls-2" d="M232.42,211.06c0-21.49-.45-53.64-.45-53.64s.15-6.63,5.06-9.94a1.56,1.56,0,0,1,1.66,0c1.78,1.1,5.84,4.15,5.91,9.35.07,5.76,0,24,0,54.37"/><circle class="cls-2" cx="237.89" cy="156.94" r="3.96"/><path class="cls-2" d="M243.21,303.48s.26,17.61.48,39.38,0,43.88,0,43.88a30.58,30.58,0,0,1-5.8.57c-4,.11-6.15,0-6.15,0l-.61-83.83"/><circle class="cls-2" cx="238.73" cy="200.43" r="1.02"/><path class="cls-2" d="M240.23,213.73h4.68a.67.67,0,0,1,.67.67c0,1.39.06,4.63,0,6.51a1.79,1.79,0,0,1-.83,1.47l-.14.09"/><path class="cls-2" d="M232.36,222.47l-.13-.09a1.77,1.77,0,0,1-.83-1.47c0-1.88,0-5.12,0-6.51a.69.69,0,0,1,.68-.67h5.79"/><path class="cls-2" d="M240.29,211.11h5a2.56,2.56,0,0,1,2.38,2.62s.1,6.35,0,8.14-3,2-3,2"/><path class="cls-2" d="M232.5,223.9s-2.87-.24-3-2,0-8.14,0-8.14a2.56,2.56,0,0,1,2.38-2.62h6"/><path class="cls-2" d="M239.06,210.62h0a1.27,1.27,0,0,1,1.27,1.27v4.36a.45.45,0,0,1-.45.45h-1.65a.45.45,0,0,1-.45-.45v-4.36a1.27,1.27,0,0,1,1.27-1.27Z" transform="translate(478.12 427.32) rotate(180)"/><path class="cls-2" d="M273.39,142.62s10.15,38.35,14.1,44.81,9.23,10.14,6.2,15.15-28.46-9.37-30.11-31.31"/><path class="cls-2" d="M253.37,179s8.37,26.13,10.21,39.09,1.28,167.66,1.28,167.66"/><path class="cls-2" d="M264.16,229.14s24.51.14,29.6-.39"/><path class="cls-2" d="M305.74,267.28c-3.12-.1-6.1-.23-6.1-.23s-2.66,0-3.27-4.55,2.26-21.75.57-27.74-8.5-14.3-16-13.66-12.22,8.06-12.22,8.06"/><path class="cls-2" d="M267.26,229a19.53,19.53,0,0,1,16.61-10.86c12.5-.92,23.69-1.89,23.69-1.89s7.08-.92,8,8.77,1.1,35.91.42,38.36-1.85,3.88-3.29,4.05c-.46.05-2,0-3.91,0"/><path class="cls-2" d="M268.06,229.16s5.94-11.41,16.37-9.25,13.1,13.75,13,19"/><path class="cls-2" d="M310.36,267.41a4.08,4.08,0,0,0-.87,2.75c.06,1.73.57,16.59,1.07,28.43s2.14,28.73,2.14,34.4.78,14.06-1.61,15-6.8.2-9.52,1.66l-12.69,4.18"/><path class="cls-2" d="M312.22,346.5s.26-5.87-4.53-4.65-12.94,6.75-16.18,9.5-3.64,4.56-8.66,6-17.91,4.48-17.91,4.48"/><path class="cls-2" d="M299.64,350.59s-.11,9.38,0,14,.61,9.1,0,12.78c0,0-3.12,2.72-12.14,4.11s-9.7,1.29-17.77,3-8.62,1.33-17.51,1.25-10.46,1-10.46,1"/><path class="cls-2" d="M312.22,256.94c-1,6.72-3.53,8.22-3.53,12.37s.42,27.62-.32,29.36c-.61,1.41-3.18,1.79-4.12,1.89a.31.31,0,0,1-.34-.31c0-3.05-.22-25.53,0-27.29s2.87-7.43,3.06-11.66c.17-3.91.29-12.07,3.65-17.44a.68.68,0,0,1,1.24.25,47.87,47.87,0,0,1,.65,5.79"/><path class="cls-2" d="M308.6,248.21a1,1,0,0,0-.72-.62c-.82-.08-1.63,1.46-1.83,3.44s.32,3.65,1.13,3.73"/><ellipse class="cls-2" cx="312.09" cy="253.4" rx="3.6" ry="1.48" transform="translate(29.76 539.58) rotate(-84.46)"/><path class="cls-2" d="M231.74,387.31c-7.39,0-29.7-.57-29.7-.57s-23.13.61-30.51.57"/><path class="cls-2" d="M299.64,377.37s1.42.43,1,1.22a5.77,5.77,0,0,1-3.1,3c-2.1.94-8.83,3.36-20.57,5.19s-11.57,2-15.32,2.2-14.26.21-18.32.43-32.18.54-41,.54-40.3-.32-44.36-.54-14.57-.22-18.32-.43-3.57-.37-15.31-2.2-18.48-4.25-20.57-5.19a5.8,5.8,0,0,1-3.11-3c-.43-.79,1-1.22,1-1.22"/><path class="cls-2" d="M231.68,241.42c-2.37,0-2.37-1-2.37-1h-5.69a1.15,1.15,0,0,1-1.15-1.15V229.15a.4.4,0,0,1,.4-.4h29.72a.4.4,0,0,1,.4.4v10.09a1.15,1.15,0,0,1-1.15,1.15h-5.69s0,1-2.37,1Z"/><path class="cls-2" d="M231.68,293.14c-2.37,0-2.37-1-2.37-1h-5.69a1.15,1.15,0,0,1-1.15-1.15V280.88a.4.4,0,0,1,.4-.4h29.72a.4.4,0,0,1,.4.4V291a1.15,1.15,0,0,1-1.15,1.15h-5.69s0,1-2.37,1Z"/><path class="cls-2" d="M213.45,98.81c-7.85-9.69-14.19-9.08-14.19-9.08s-6.34-.61-14.2,9.08"/><path class="cls-2" d="M223.7,115.71c-.73-2.32-7.91-23.28-24.44-23.28s-23.81,21.24-24.46,23.32"/><path class="cls-2" d="M217.73,109.28s-6.58-14.65-18.47-14.56c-11.89-.09-18.48,14.56-18.48,14.56"/><path class="cls-2" d="M208.5,97.83s3.93,6.49,4.95,12.41c.75,4.3,1,5,1,5.31"/></g></svg>