<svg width="231" height="302" viewBox="0 0 231 302" fill="none" xmlns="http://www.w3.org/2000/svg">
<path d="M83.4 122.16C83.4 101.41 83.73 70.91 83.73 70.91C83.73 70.91 83.62 64.5 80 61.31C79.8344 61.1596 79.6187 61.0763 79.395 61.0763C79.1713 61.0763 78.9556 61.1596 78.79 61.31C77.4412 62.3929 76.3502 63.7622 75.5961 65.3189C74.842 66.8755 74.4437 68.5804 74.43 70.31C74.37 75.83 74.43 93.22 74.43 122.16" stroke="black" stroke-width="0.5" stroke-miterlimit="10" stroke-linecap="round" stroke-dasharray="1 2"/>
<path d="M83.59 139.85C83.59 139.03 83.59 138.29 83.54 137.65C83.45 134.73 83.41 130.12 83.4 124.65" stroke="black" stroke-width="0.5" stroke-miterlimit="10" stroke-linecap="round" stroke-dasharray="1 2"/>
<path d="M84.27 191.48C84.17 178.87 83.99 163.8 83.82 152.3" stroke="black" stroke-width="0.5" stroke-miterlimit="10" stroke-linecap="round" stroke-dasharray="1 2"/>
<path d="M75.2 204.05C75.37 210.47 75.53 214.69 75.67 215.81C76 218.57 78.22 222.48 79.28 224.22C79.3343 224.327 79.4172 224.417 79.5196 224.48C79.622 224.543 79.7398 224.577 79.86 224.577C79.9802 224.577 80.098 224.543 80.2004 224.48C80.3028 224.417 80.3857 224.327 80.44 224.22C81.6 222.5 84.06 218.53 84.28 215.3C84.35 214.3 84.37 210.05 84.35 204.01" stroke="black" stroke-width="0.5" stroke-miterlimit="10" stroke-linecap="round" stroke-dasharray="1 2"/>
<path d="M74.47 152.37C74.55 166.97 74.72 180.67 74.92 191.6" stroke="black" stroke-width="0.5" stroke-miterlimit="10" stroke-linecap="round" stroke-dasharray="1 2"/>
<path d="M74.42 124.7C74.42 128.773 74.42 133.06 74.42 137.56V140" stroke="black" stroke-width="0.5" stroke-miterlimit="10" stroke-linecap="round" stroke-dasharray="1 2"/>
<path d="M75.88 222.16C75.88 222.16 75.29 271.74 75.05 297.99" stroke="black" stroke-width="0.5" stroke-miterlimit="10" stroke-linecap="round" stroke-dasharray="1 2"/>
<path d="M84.35 222.31C84.35 222.31 84.17 265.7 83.65 298.31" stroke="black" stroke-width="0.5" stroke-miterlimit="10" stroke-linecap="round" stroke-dasharray="1 2"/>
<path d="M65.05 90.63C65.05 90.63 56.88 116.14 55.05 129.1C53.22 142.06 53.77 296.76 53.77 296.76" stroke="black" stroke-width="0.5" stroke-miterlimit="10" stroke-linecap="round" stroke-dasharray="1 2"/>
<path d="M53.1 142.88C53.1 142.88 27.15 143.02 22.1 142.49" stroke="black" stroke-width="0.5" stroke-miterlimit="10" stroke-linecap="round" stroke-dasharray="1 2"/>
<path d="M8.67999 208.76C9.73772 209.356 10.8976 209.75 12.1 209.92C12.1292 209.924 12.1589 209.922 12.1872 209.914C12.2156 209.906 12.2419 209.892 12.2646 209.874C12.2872 209.855 12.3056 209.831 12.3186 209.805C12.3316 209.778 12.3389 209.749 12.34 209.72V180.72" stroke="black" stroke-width="0.5" stroke-miterlimit="10" stroke-linecap="round" stroke-dasharray="1 2"/>
<path d="M73.72 27.41L74.84 61.77" stroke="black" stroke-width="0.5" stroke-miterlimit="10" stroke-linecap="round" stroke-dasharray="1 2"/>
<path d="M82.7 27.41C82.7 27.41 83.34 55.72 83.34 61.83" stroke="black" stroke-width="0.5" stroke-miterlimit="10" stroke-linecap="round" stroke-dasharray="1 2"/>
<path d="M69.3 141.08H66.72C66.1677 141.08 65.72 141.528 65.72 142.08V148.95C65.72 149.502 66.1677 149.95 66.72 149.95H69.3C69.8523 149.95 70.3 149.502 70.3 148.95V142.08C70.3 141.528 69.8523 141.08 69.3 141.08Z" stroke="black" stroke-width="0.5" stroke-miterlimit="10" stroke-linecap="round" stroke-dasharray="1 2"/>
<path d="M92.42 141.08H89.84C89.2877 141.08 88.84 141.528 88.84 142.08V148.95C88.84 149.502 89.2877 149.95 89.84 149.95H92.42C92.9723 149.95 93.42 149.502 93.42 148.95V142.08C93.42 141.528 92.9723 141.08 92.42 141.08Z" stroke="black" stroke-width="0.5" stroke-miterlimit="10" stroke-linecap="round" stroke-dasharray="1 2"/>
<path d="M69.3 192.81H66.72C66.1677 192.81 65.72 193.258 65.72 193.81V200.68C65.72 201.232 66.1677 201.68 66.72 201.68H69.3C69.8523 201.68 70.3 201.232 70.3 200.68V193.81C70.3 193.258 69.8523 192.81 69.3 192.81Z" stroke="black" stroke-width="0.5" stroke-miterlimit="10" stroke-linecap="round" stroke-dasharray="1 2"/>
<path d="M92.42 192.81H89.84C89.2877 192.81 88.84 193.258 88.84 193.81V200.68C88.84 201.232 89.2877 201.68 89.84 201.68H92.42C92.9723 201.68 93.42 201.232 93.42 200.68V193.81C93.42 193.258 92.9723 192.81 92.42 192.81Z" stroke="black" stroke-width="0.5" stroke-miterlimit="10" stroke-linecap="round" stroke-dasharray="1 2"/>
<path d="M72.57 91.75C60.72 87.48 54.95 81.43 51.91 76.17C46.38 66.58 45.07 39.9 44.58 33.01L44.27 26.66" stroke="black" stroke-width="0.5" stroke-miterlimit="10" stroke-linecap="round" stroke-dasharray="1 2"/>
<path d="M146.39 95C137.02 96.6547 127.514 97.4148 118 97.27H113.26C103.791 97.4178 94.3295 96.6745 85 95.05" stroke="black" stroke-width="0.5" stroke-miterlimit="10" stroke-linecap="round" stroke-dasharray="1 2"/>
<path d="M187 26.66L186.69 33.01C186.2 39.9 184.89 66.58 179.36 76.17C176.36 81.42 170.58 87.46 158.78 91.73" stroke="black" stroke-width="0.5" stroke-miterlimit="10" stroke-linecap="round" stroke-dasharray="1 2"/>
<path d="M72.62 80.66C66.83 78.04 63.39 74.97 61.32 71.9C55.79 63.71 55.05 38.9 54.56 32.98L54.25 27.56" stroke="black" stroke-width="0.5" stroke-miterlimit="10" stroke-linecap="round" stroke-dasharray="1 2"/>
<path d="M146.27 84.6C136.962 86.4966 127.498 87.531 118 87.69H113.26C103.793 87.5296 94.3598 86.5019 85.08 84.62" stroke="black" stroke-width="0.5" stroke-miterlimit="10" stroke-linecap="round" stroke-dasharray="1 2"/>
<path d="M177 27.56L176.7 32.98C176.2 38.86 175.47 63.71 169.93 71.9C167.85 74.97 164.41 78.06 158.59 80.68" stroke="black" stroke-width="0.5" stroke-miterlimit="10" stroke-linecap="round" stroke-dasharray="1 2"/>
<path d="M147.86 122.17C147.86 101.41 147.53 70.91 147.53 70.91C147.53 70.91 147.64 64.5 151.26 61.31C151.428 61.161 151.645 61.0787 151.87 61.0787C152.095 61.0787 152.312 61.161 152.48 61.31C153.825 62.3962 154.913 63.7662 155.667 65.3221C156.421 66.878 156.821 68.5813 156.84 70.31C156.84 75.83 156.84 93.18 156.84 122.06" stroke="black" stroke-width="0.5" stroke-miterlimit="10" stroke-linecap="round" stroke-dasharray="1 2"/>
<path d="M147.67 139.86C147.67 139.03 147.67 138.29 147.73 137.65C147.81 134.74 147.85 130.13 147.86 124.65" stroke="black" stroke-width="0.5" stroke-miterlimit="10" stroke-linecap="round" stroke-dasharray="1 2"/>
<path d="M147 191.57C147.1 178.98 147.28 163.84 147.45 152.35" stroke="black" stroke-width="0.5" stroke-miterlimit="10" stroke-linecap="round" stroke-dasharray="1 2"/>
<path d="M156.06 204C155.9 210.43 155.73 214.65 155.59 215.77C155.26 218.53 153.05 222.44 151.99 224.18C151.934 224.287 151.85 224.376 151.747 224.439C151.644 224.501 151.526 224.534 151.405 224.534C151.284 224.534 151.166 224.501 151.063 224.439C150.96 224.376 150.876 224.287 150.82 224.18C149.66 222.46 147.21 218.49 146.98 215.26C146.91 214.26 146.89 210.02 146.92 203.99" stroke="black" stroke-width="0.5" stroke-miterlimit="10" stroke-linecap="round" stroke-dasharray="1 2"/>
<path d="M156.79 152.34C156.71 166.94 156.54 180.64 156.34 191.57" stroke="black" stroke-width="0.5" stroke-miterlimit="10" stroke-linecap="round" stroke-dasharray="1 2"/>
<path d="M156.84 124.66V137.56C156.84 138.32 156.84 139.07 156.84 139.82" stroke="black" stroke-width="0.5" stroke-miterlimit="10" stroke-linecap="round" stroke-dasharray="1 2"/>
<path d="M155.38 222.16C155.38 222.16 155.97 271.74 156.21 297.99" stroke="black" stroke-width="0.5" stroke-miterlimit="10" stroke-linecap="round" stroke-dasharray="1 2"/>
<path d="M146.91 222.31C146.91 222.31 147.09 265.7 147.61 298.31" stroke="black" stroke-width="0.5" stroke-miterlimit="10" stroke-linecap="round" stroke-dasharray="1 2"/>
<path d="M166.21 90.63C166.21 90.63 174.39 116.14 176.21 129.1C178.03 142.06 177.49 296.76 177.49 296.76" stroke="black" stroke-width="0.5" stroke-miterlimit="10" stroke-linecap="round" stroke-dasharray="1 2"/>
<path d="M178.16 142.88C178.16 142.88 204.11 143.02 209.16 142.49" stroke="black" stroke-width="0.5" stroke-miterlimit="10" stroke-linecap="round" stroke-dasharray="1 2"/>
<path d="M222.58 208.76C221.522 209.356 220.362 209.75 219.16 209.92C219.131 209.924 219.102 209.922 219.074 209.914C219.046 209.906 219.021 209.892 218.999 209.873C218.977 209.854 218.959 209.831 218.948 209.804C218.936 209.778 218.93 209.749 218.93 209.72V180.72" stroke="black" stroke-width="0.5" stroke-miterlimit="10" stroke-linecap="round" stroke-dasharray="1 2"/>
<path d="M157.54 27.41L156.43 61.77" stroke="black" stroke-width="0.5" stroke-miterlimit="10" stroke-linecap="round" stroke-dasharray="1 2"/>
<path d="M148.57 27.41C148.57 27.41 147.92 55.72 147.92 61.83" stroke="black" stroke-width="0.5" stroke-miterlimit="10" stroke-linecap="round" stroke-dasharray="1 2"/>
<path d="M161.95 149.95H164.53C165.082 149.95 165.53 149.502 165.53 148.95V142.08C165.53 141.528 165.082 141.08 164.53 141.08H161.95C161.398 141.08 160.95 141.528 160.95 142.08V148.95C160.95 149.502 161.398 149.95 161.95 149.95Z" stroke="black" stroke-width="0.5" stroke-miterlimit="10" stroke-linecap="round" stroke-dasharray="1 2"/>
<path d="M138.83 149.95H141.41C141.962 149.95 142.41 149.502 142.41 148.95V142.08C142.41 141.528 141.962 141.08 141.41 141.08H138.83C138.278 141.08 137.83 141.528 137.83 142.08V148.95C137.83 149.502 138.278 149.95 138.83 149.95Z" stroke="black" stroke-width="0.5" stroke-miterlimit="10" stroke-linecap="round" stroke-dasharray="1 2"/>
<path d="M161.95 201.67H164.53C165.082 201.67 165.53 201.222 165.53 200.67V193.8C165.53 193.248 165.082 192.8 164.53 192.8H161.95C161.398 192.8 160.95 193.248 160.95 193.8V200.67C160.95 201.222 161.398 201.67 161.95 201.67Z" stroke="black" stroke-width="0.5" stroke-miterlimit="10" stroke-linecap="round" stroke-dasharray="1 2"/>
<path d="M138.83 201.67H141.41C141.962 201.67 142.41 201.222 142.41 200.67V193.8C142.41 193.248 141.962 192.8 141.41 192.8H138.83C138.278 192.8 137.83 193.248 137.83 193.8V200.67C137.83 201.222 138.278 201.67 138.83 201.67Z" stroke="black" stroke-width="0.5" stroke-miterlimit="10" stroke-linecap="round" stroke-dasharray="1 2"/>
<path d="M103.32 243.92V237.52L104.45 237.68L113.17 238.97C114.55 239.18 115.92 239.4 117.29 239.59C118.312 239.77 119.358 239.77 120.38 239.59C120.68 239.555 120.97 239.457 121.231 239.304C121.492 239.15 121.718 238.945 121.895 238.699C122.072 238.454 122.195 238.174 122.258 237.878C122.321 237.582 122.322 237.276 122.26 236.98C122.189 236.422 121.981 235.889 121.655 235.431C121.328 234.972 120.894 234.601 120.39 234.35C119.317 233.758 118.144 233.368 116.93 233.2C114.66 232.83 112.37 232.5 110.09 232.15C107.81 231.8 105.7 231.5 103.51 231.15C103.463 231.137 103.421 231.111 103.388 231.076C103.354 231.041 103.331 230.997 103.32 230.95C103.32 228.95 103.32 226.923 103.32 224.87C103.317 224.823 103.317 224.777 103.32 224.73L126.9 228.27V234.67L124.84 234.37L124.79 234.44C125.035 234.637 125.269 234.847 125.49 235.07C126.5 236.073 127.2 237.345 127.509 238.735C127.817 240.125 127.72 241.574 127.23 242.91C126.976 243.604 126.583 244.24 126.076 244.778C125.569 245.316 124.958 245.745 124.28 246.04L124.08 246.15L124.27 246.32C126.101 247.749 127.308 249.831 127.64 252.13C127.888 253.571 127.678 255.054 127.04 256.37C126.696 257.01 126.211 257.564 125.622 257.99C125.034 258.416 124.356 258.703 123.64 258.83C122.329 259.134 120.974 259.198 119.64 259.02C116.83 258.65 114.03 258.23 111.22 257.82L104.41 256.82C104.12 256.82 103.83 256.75 103.56 256.69C103.48 256.69 103.37 256.56 103.37 256.49C103.37 254.49 103.37 252.4 103.37 250.35C103.37 250.35 103.37 250.35 103.37 250.27L104.65 250.45L112.55 251.64C114.08 251.87 115.61 252.11 117.15 252.32C118.219 252.5 119.311 252.5 120.38 252.32C120.679 252.294 120.969 252.204 121.232 252.058C121.494 251.912 121.722 251.712 121.901 251.471C122.081 251.23 122.207 250.954 122.273 250.661C122.338 250.368 122.34 250.064 122.28 249.77C122.206 249.22 121.999 248.697 121.679 248.244C121.359 247.791 120.934 247.423 120.44 247.17C119.375 246.571 118.209 246.174 117 246C115.29 245.69 113.56 245.44 111.84 245.18L105.42 244.18L103.32 243.92Z" stroke="black" stroke-width="0.5" stroke-miterlimit="10" stroke-linecap="round"/>
<path d="M106.27 165.46L92 163.22V156.66L93 156.8L104.08 158.57L116.74 160.57L126.74 162.15C126.87 162.15 126.96 162.2 126.96 162.37C126.96 164.457 126.96 166.547 126.96 168.64C126.96 168.64 126.96 168.64 126.96 168.75L124.96 168.45L125.19 168.72C126.891 170.591 127.795 173.052 127.71 175.58C127.675 177.33 127.082 179.023 126.017 180.411C124.952 181.8 123.471 182.812 121.79 183.3C119.386 184.076 116.807 184.136 114.37 183.47C111.536 182.808 108.944 181.363 106.89 179.3C105.116 177.568 103.948 175.309 103.56 172.86C103.17 170.911 103.527 168.888 104.56 167.19C105.002 166.5 105.585 165.91 106.27 165.46V165.46ZM116.52 177.2C116.98 177.2 117.32 177.15 117.64 177.11C118.844 176.997 119.968 176.458 120.81 175.59C121.332 175.024 121.691 174.327 121.847 173.573C122.004 172.819 121.953 172.037 121.7 171.31C121.241 169.777 120.234 168.467 118.87 167.63C117.927 166.942 116.832 166.492 115.678 166.318C114.523 166.143 113.344 166.251 112.24 166.63C111.531 166.825 110.886 167.206 110.373 167.734C109.86 168.261 109.496 168.916 109.32 169.63C109.168 170.239 109.14 170.872 109.236 171.492C109.332 172.111 109.551 172.706 109.88 173.24C110.562 174.407 111.529 175.383 112.69 176.075C113.851 176.768 115.169 177.155 116.52 177.2Z" stroke="black" stroke-width="0.5" stroke-miterlimit="10" stroke-linecap="round"/>
<path d="M113.9 117.39C113.24 117.62 112.56 117.81 111.9 118.08C110.744 118.542 109.791 119.4 109.21 120.5C108.817 121.196 108.65 121.996 108.731 122.791C108.811 123.586 109.136 124.337 109.66 124.94C110.227 125.631 110.933 126.194 111.733 126.592C112.532 126.99 113.407 127.214 114.3 127.25C115.006 127.335 115.721 127.227 116.371 126.939C117.021 126.65 117.58 126.191 117.99 125.61C118.65 124.76 118.99 122.82 119.46 121.87C120.091 120.398 120.971 119.045 122.06 117.87C122.708 117.198 123.485 116.662 124.344 116.295C125.202 115.927 126.126 115.735 127.06 115.73C130.332 115.609 133.535 116.695 136.06 118.78C138.174 120.737 139.563 123.353 140 126.2C140.281 128.133 139.982 130.107 139.14 131.87C138.589 133.206 137.729 134.392 136.63 135.33C136.16 135.73 136.16 135.73 135.63 135.33L131.48 132.25L131.27 132.08L131.82 131.76C132.552 131.361 133.158 130.765 133.568 130.039C133.979 129.313 134.178 128.487 134.142 127.654C134.107 126.821 133.839 126.015 133.368 125.326C132.898 124.638 132.243 124.095 131.48 123.76C131.069 123.534 130.617 123.391 130.15 123.339C129.683 123.288 129.211 123.329 128.76 123.46C128.049 123.667 127.44 124.13 127.05 124.76C126.45 125.7 125.91 126.67 125.39 127.64C124.836 128.763 124.187 129.837 123.45 130.85C122.665 131.889 121.632 132.715 120.446 133.253C119.26 133.791 117.959 134.023 116.66 133.93C112.948 133.916 109.356 132.611 106.5 130.24C104.583 128.636 103.273 126.423 102.79 123.97C102.435 122.396 102.466 120.759 102.88 119.2C103.225 118.051 103.8 116.985 104.568 116.064C105.336 115.142 106.282 114.386 107.35 113.84C107.98 113.48 108.66 113.21 109.35 112.89C109.396 112.847 109.457 112.823 109.52 112.823C109.583 112.823 109.644 112.847 109.69 112.89L113.87 117.3C113.888 117.327 113.899 117.358 113.9 117.39V117.39Z" stroke="black" stroke-width="0.5" stroke-miterlimit="10" stroke-linecap="round"/>
<path d="M126.92 138V144.75L125.86 144.6C122.347 144.04 118.833 143.487 115.32 142.94C114.2 142.77 113.06 142.64 111.93 142.54C111.252 142.481 110.569 142.574 109.93 142.81C109.476 142.964 109.077 143.248 108.782 143.627C108.487 144.005 108.309 144.462 108.27 144.94C108.097 145.912 108.28 146.914 108.785 147.762C109.29 148.61 110.083 149.249 111.02 149.56C112.201 150.015 113.434 150.324 114.69 150.48L121.79 151.6L126.68 152.37C126.86 152.37 126.92 152.45 126.92 152.64V158.94C126.92 159.01 126.92 159.07 126.92 159.17L125.01 158.87C122.76 158.51 120.52 158.17 118.28 157.79C116.04 157.41 113.6 157.06 111.28 156.57C109.236 156.154 107.353 155.166 105.85 153.72C104.505 152.433 103.549 150.794 103.09 148.99C102.279 146.146 102.311 143.127 103.18 140.3C103.536 139.053 104.262 137.943 105.262 137.117C106.262 136.29 107.488 135.786 108.78 135.67C110.404 135.486 112.047 135.554 113.65 135.87C115.88 136.24 118.12 136.59 120.35 136.94L126.77 137.94L126.92 138Z" stroke="black" stroke-width="0.5" stroke-miterlimit="10" stroke-linecap="round"/>
<path d="M126.92 188.07V194.83L124.45 194.45C127.29 196.96 128.45 199.9 127.14 203.59L120.87 201.81C120.87 201.81 120.87 201.74 120.87 201.72C121.613 200.564 121.869 199.162 121.585 197.818C121.3 196.474 120.497 195.296 119.35 194.54C118.219 193.807 116.949 193.313 115.62 193.09C113.67 192.73 111.71 192.42 109.76 192.09L103.51 191.09C103.462 191.077 103.419 191.051 103.384 191.016C103.349 190.981 103.323 190.938 103.31 190.89C103.31 188.73 103.31 186.57 103.31 184.41C103.308 184.373 103.308 184.337 103.31 184.3L126.92 188.07Z" stroke="black" stroke-width="0.5" stroke-miterlimit="10" stroke-linecap="round"/>
<path d="M121.56 282.42C122.865 282.107 124.066 281.46 125.046 280.543C126.026 279.627 126.751 278.471 127.15 277.19C127.695 275.424 127.845 273.56 127.59 271.73C127.423 270.109 126.931 268.537 126.144 267.11C125.357 265.682 124.291 264.427 123.01 263.42C121.023 261.85 118.699 260.761 116.22 260.24C114.011 259.669 111.697 259.631 109.47 260.13C107.966 260.443 106.576 261.159 105.449 262.202C104.321 263.245 103.499 264.575 103.07 266.05C102.462 267.991 102.342 270.052 102.72 272.05C103.044 274.066 103.836 275.979 105.033 277.634C106.229 279.289 107.797 280.64 109.61 281.58L109.89 281.72C109.89 281.67 109.89 281.65 109.94 281.62L110.94 275.81C110.94 275.762 110.929 275.715 110.909 275.671C110.888 275.628 110.857 275.59 110.82 275.56C110.55 275.34 110.26 275.15 110 274.94C109.275 274.416 108.691 273.721 108.301 272.917C107.91 272.112 107.724 271.224 107.76 270.33C107.743 269.685 107.927 269.05 108.285 268.513C108.643 267.976 109.158 267.563 109.76 267.33C110.387 267.102 111.038 266.947 111.7 266.87C112.481 266.784 113.27 266.818 114.04 266.97V282.19C114.04 282.39 114.04 282.5 114.31 282.53C115.09 282.61 115.86 282.75 116.64 282.81C118.29 282.983 119.958 282.851 121.56 282.42V282.42ZM118.27 267.85C118.7 268.03 119.12 268.17 119.52 268.37C120.882 268.952 121.976 270.022 122.59 271.37C122.825 271.878 122.946 272.431 122.946 272.99C122.946 273.549 122.825 274.102 122.59 274.61C122.343 275.121 121.98 275.568 121.531 275.916C121.081 276.263 120.557 276.5 120 276.61C119.419 276.733 118.831 276.823 118.24 276.88L118.27 267.85Z" stroke="black" stroke-width="0.5" stroke-miterlimit="10" stroke-linecap="round"/>
<path d="M121.3 223.28C122.669 223.025 123.943 222.401 124.985 221.476C126.026 220.551 126.795 219.36 127.21 218.03C127.7 216.428 127.829 214.738 127.59 213.08C127.402 211.413 126.851 209.807 125.977 208.375C125.103 206.943 123.927 205.72 122.53 204.79C120.576 203.443 118.362 202.52 116.03 202.08C113.845 201.564 111.572 201.546 109.38 202.03C107.977 202.304 106.669 202.936 105.583 203.865C104.497 204.793 103.669 205.987 103.18 207.33C102.52 209.136 102.34 211.083 102.66 212.98C102.893 214.615 103.457 216.185 104.316 217.595C105.176 219.004 106.314 220.224 107.66 221.18C108.36 221.7 109.13 222.13 109.91 222.62C109.91 222.48 109.98 222.43 109.99 222.39C110.28 220.71 110.55 219.02 110.88 217.39C110.936 217.218 110.927 217.032 110.856 216.866C110.784 216.7 110.654 216.567 110.49 216.49C109.767 216.082 109.147 215.514 108.677 214.829C108.207 214.145 107.9 213.362 107.78 212.54C107.614 211.707 107.782 210.841 108.247 210.13C108.713 209.42 109.44 208.92 110.27 208.74C111.442 208.437 112.663 208.373 113.86 208.55C113.94 208.55 114.02 208.68 114.05 208.76C114.08 208.84 114.05 208.92 114.05 209V223C114.05 223.24 114.05 223.35 114.37 223.37C114.69 223.39 115.22 223.5 115.65 223.55C117.534 223.796 119.448 223.705 121.3 223.28V223.28ZM118.25 209.38C118.887 209.544 119.499 209.793 120.07 210.12C121.332 210.747 122.301 211.841 122.77 213.17C123.032 213.858 123.05 214.615 122.823 215.315C122.596 216.015 122.136 216.617 121.52 217.02C120.853 217.453 120.092 217.72 119.3 217.8C118.96 217.8 118.62 217.85 118.25 217.88V209.38Z" stroke="black" stroke-width="0.5" stroke-miterlimit="10" stroke-linecap="round"/>
<path d="M162 270.43H162.3C162.43 270.422 162.56 270.443 162.682 270.491C162.803 270.54 162.911 270.614 163 270.71C163.114 270.831 163.203 270.974 163.26 271.13C164.04 272.8 164.81 274.48 165.58 276.13C165.6 276.167 165.611 276.208 165.611 276.25C165.611 276.292 165.6 276.333 165.58 276.37C165.16 277.37 164.75 278.3 164.34 279.27C164.235 279.509 164.047 279.701 163.81 279.81C163.581 279.926 163.327 279.984 163.07 279.98H162.24C162.24 279.98 162.14 279.98 162.13 279.98C162.04 280.19 161.96 280.41 161.87 280.62H172.24C172.27 280.624 172.301 280.617 172.326 280.6C172.352 280.584 172.371 280.559 172.38 280.53C172.84 279.69 173.3 278.85 173.75 278.01C173.774 277.972 173.794 277.932 173.81 277.89H173.16C173.122 277.882 173.082 277.888 173.047 277.906C173.013 277.924 172.985 277.954 172.97 277.99C172.76 278.32 172.55 278.65 172.32 278.99C172.151 279.221 171.956 279.432 171.74 279.62C171.604 279.74 171.446 279.832 171.274 279.89C171.102 279.949 170.921 279.972 170.74 279.96H165.69L166.51 278.17L166.56 278.26L167.04 279.37C167.051 279.402 167.073 279.43 167.102 279.448C167.131 279.467 167.166 279.474 167.2 279.47H168.2C168.254 279.477 168.308 279.465 168.355 279.438C168.402 279.411 168.439 279.37 168.46 279.32L171.73 272.75C172.03 272.16 172.32 271.56 172.63 270.97C172.728 270.778 172.882 270.619 173.07 270.514C173.259 270.409 173.475 270.362 173.69 270.38H174V269.73H171V270.41C171.103 270.42 171.207 270.42 171.31 270.41C171.392 270.399 171.475 270.41 171.552 270.442C171.628 270.474 171.694 270.526 171.743 270.592C171.792 270.659 171.823 270.737 171.831 270.82C171.839 270.902 171.825 270.985 171.79 271.06C170.65 273.39 169.53 275.73 168.4 278.06C168.387 278.089 168.37 278.116 168.35 278.14V278.14L167.5 276.28C167.48 276.229 167.48 276.171 167.5 276.12L168.17 274.58C168.48 273.86 168.8 273.15 169.1 272.44C169.168 272.277 169.282 272.137 169.427 272.036C169.572 271.935 169.743 271.877 169.92 271.87C170.1 271.87 170.28 271.87 170.46 271.87C170.64 271.87 170.56 271.87 170.57 271.87C170.67 271.64 170.76 271.41 170.85 271.19H167.21C167.181 271.179 167.149 271.179 167.12 271.19L166.83 271.86H167.18C167.48 271.86 167.6 272.04 167.49 272.29L166.67 274.21L166.62 274.29L165 270.77C164.92 270.59 165 270.47 165.24 270.46H165.63V269.78H162V270.43Z" stroke="black" stroke-width="0.25" stroke-miterlimit="10" stroke-linecap="round"/>
<path d="M162 270.43V269.78H165.56V270.46H165.17C164.94 270.46 164.85 270.59 164.93 270.77L166.51 274.21L166.56 274.13L167.38 272.21C167.49 271.96 167.38 271.8 167.07 271.78H166.72L167.01 271.11C167.039 271.099 167.071 271.099 167.1 271.11H170.74C170.65 271.33 170.56 271.56 170.46 271.79C170.46 271.79 170.39 271.79 170.35 271.79C170.31 271.79 169.99 271.79 169.81 271.79C169.633 271.797 169.462 271.855 169.317 271.956C169.172 272.057 169.058 272.197 168.99 272.36C168.69 273.07 168.37 273.78 168.06 274.5L167.39 276.04C167.37 276.091 167.37 276.149 167.39 276.2L168.24 278.06C168.26 278.036 168.277 278.009 168.29 277.98C169.42 275.65 170.54 273.31 171.68 270.98C171.715 270.905 171.729 270.822 171.721 270.74C171.713 270.657 171.682 270.579 171.633 270.512C171.584 270.446 171.518 270.394 171.442 270.362C171.365 270.33 171.282 270.319 171.2 270.33C171.097 270.34 170.993 270.34 170.89 270.33V269.65H173.89V270.3H173.66C173.445 270.282 173.229 270.329 173.04 270.434C172.852 270.539 172.698 270.698 172.6 270.89C172.29 271.48 172 272.08 171.7 272.67L168.43 279.24C168.409 279.29 168.372 279.331 168.325 279.358C168.278 279.385 168.224 279.397 168.17 279.39H167.17C167.136 279.394 167.101 279.387 167.072 279.368C167.043 279.35 167.021 279.322 167.01 279.29L166.53 278.18L166.48 278.09L165.66 279.88H170.71C170.891 279.892 171.072 279.869 171.244 279.81C171.416 279.752 171.574 279.66 171.71 279.54C171.926 279.352 172.121 279.141 172.29 278.91C172.52 278.59 172.73 278.26 172.94 277.91C172.955 277.874 172.983 277.844 173.017 277.826C173.052 277.808 173.092 277.802 173.13 277.81H173.78C173.764 277.852 173.744 277.892 173.72 277.93C173.27 278.77 172.81 279.61 172.35 280.45C172.341 280.479 172.322 280.504 172.296 280.52C172.271 280.537 172.24 280.544 172.21 280.54H161.89C161.98 280.33 162.06 280.11 162.15 279.9C162.15 279.9 162.22 279.9 162.26 279.9H163.09C163.347 279.904 163.601 279.846 163.83 279.73C164.067 279.621 164.255 279.429 164.36 279.19C164.77 278.19 165.18 277.25 165.6 276.29C165.619 276.253 165.629 276.212 165.629 276.17C165.629 276.128 165.619 276.087 165.6 276.05C164.83 274.38 164.06 272.7 163.28 271.05C163.223 270.894 163.134 270.751 163.02 270.63C162.931 270.534 162.823 270.46 162.702 270.411C162.58 270.363 162.45 270.342 162.32 270.35L162 270.43Z" stroke="black" stroke-width="0.25" stroke-miterlimit="10" stroke-linecap="round"/>
<path d="M42.34 32.39C42.34 32.39 38.77 33.88 38.84 34.31C38.91 34.74 42.51 35.16 42.51 35.16" stroke="black" stroke-width="0.5" stroke-miterlimit="10" stroke-linecap="round"/>
<path d="M38.84 34.31C38.84 34.31 38.56 39.65 38.36 40.83C38.16 42.01 31.16 65.54 28.18 75.06C25.2 84.58 19.1 104.54 19.4 109.6C19.476 110.751 19.6196 111.896 19.83 113.03C20.9392 119.232 24.2309 124.833 29.11 128.82V128.82" stroke="black" stroke-width="0.5" stroke-miterlimit="10" stroke-linecap="round"/>
<path d="M20.89 128.18L21.39 118.41" stroke="black" stroke-width="0.5" stroke-miterlimit="10" stroke-linecap="round"/>
<path d="M42.57 36.29C42.57 36.29 39.86 36.23 39.86 36.65C39.86 37.07 42.69 38.54 42.69 38.54" stroke="black" stroke-width="0.5" stroke-miterlimit="10" stroke-linecap="round"/>
<path d="M71.74 27.41L72.68 67.36" stroke="black" stroke-width="0.5" stroke-miterlimit="10" stroke-linecap="round"/>
<path d="M85.29 68C85.38 62.5 85.06 27.26 85.06 27.26" stroke="black" stroke-width="0.5" stroke-miterlimit="10" stroke-linecap="round"/>
<path d="M84.84 122.06C84.84 100.58 85.29 68.42 85.29 68.42C85.29 68.42 85.14 61.79 80.23 58.48C79.9833 58.3235 79.6972 58.2404 79.405 58.2404C79.1128 58.2404 78.8267 58.3235 78.58 58.48C76.79 59.58 72.73 62.63 72.66 67.83C72.59 73.59 72.66 91.65 72.66 122.02" stroke="black" stroke-width="0.5" stroke-miterlimit="10" stroke-linecap="round"/>
<path d="M85.1 139.64C85.1 138.74 85.04 138.16 85.02 137.47C84.91 134.57 84.86 130.18 84.84 124.79" stroke="black" stroke-width="0.5" stroke-miterlimit="10" stroke-linecap="round"/>
<path d="M86 191.44C85.86 178.62 85.63 163.93 85.4 152.5" stroke="black" stroke-width="0.5" stroke-miterlimit="10" stroke-linecap="round"/>
<path d="M73.66 204.15C73.91 211.97 74.14 217.06 74.35 218.34C74.8 221.19 77.8 225.24 79.24 227.04C79.3335 227.16 79.4533 227.258 79.5902 227.325C79.7271 227.392 79.8775 227.427 80.03 227.427C80.1825 227.427 80.3329 227.392 80.4698 227.325C80.6067 227.258 80.7265 227.16 80.82 227.04C82.39 225.26 85.73 221.15 86.03 217.82C86.14 216.64 86.18 211.47 86.13 204.1" stroke="black" stroke-width="0.5" stroke-miterlimit="10" stroke-linecap="round"/>
<path d="M72.72 152.42C72.82 166.94 73.03 180.27 73.29 191.42" stroke="black" stroke-width="0.5" stroke-miterlimit="10" stroke-linecap="round"/>
<path d="M72.65 124.82C72.65 128.82 72.65 132.95 72.65 137.38V139.67" stroke="black" stroke-width="0.5" stroke-miterlimit="10" stroke-linecap="round"/>
<path d="M79.37 71.9C81.557 71.9 83.33 70.1271 83.33 67.94C83.33 65.753 81.557 63.98 79.37 63.98C77.1829 63.98 75.41 65.753 75.41 67.94C75.41 70.1271 77.1829 71.9 79.37 71.9Z" stroke="black" stroke-width="0.5" stroke-miterlimit="10" stroke-linecap="round"/>
<path d="M74.05 214.48C74.05 214.48 73.79 232.09 73.57 253.86C73.35 275.63 73.57 297.74 73.57 297.74C75.4809 298.113 77.423 298.304 79.37 298.31C83.37 298.42 85.53 298.31 85.53 298.31L86.13 214.48" stroke="black" stroke-width="0.5" stroke-miterlimit="10" stroke-linecap="round"/>
<path d="M78.53 112.45C79.0933 112.45 79.55 111.993 79.55 111.43C79.55 110.867 79.0933 110.41 78.53 110.41C77.9667 110.41 77.51 110.867 77.51 111.43C77.51 111.993 77.9667 112.45 78.53 112.45Z" stroke="black" stroke-width="0.5" stroke-miterlimit="10" stroke-linecap="round"/>
<path d="M76.89 124.73H72.35C72.1723 124.73 72.0019 124.801 71.8762 124.926C71.7506 125.052 71.68 125.222 71.68 125.4C71.68 126.79 71.62 130.03 71.68 131.91C71.6848 132.204 71.7622 132.492 71.9053 132.748C72.0483 133.005 72.2526 133.222 72.5 133.38L72.64 133.47" stroke="black" stroke-width="0.5" stroke-miterlimit="10" stroke-linecap="round"/>
<path d="M85 133.38C85.2473 133.222 85.4517 133.005 85.5947 132.748C85.7378 132.492 85.8152 132.204 85.82 131.91C85.82 130.03 85.82 126.79 85.82 125.4C85.8149 125.222 85.7413 125.053 85.6146 124.928C85.4879 124.804 85.3178 124.733 85.14 124.73H79.47" stroke="black" stroke-width="0.5" stroke-miterlimit="10" stroke-linecap="round"/>
<path d="M76.81 122.11H72C71.3422 122.156 70.7276 122.454 70.2842 122.942C69.8409 123.43 69.6029 124.071 69.62 124.73C69.62 124.73 69.52 131.08 69.62 132.87C69.72 134.66 72.62 134.87 72.62 134.87" stroke="black" stroke-width="0.5" stroke-miterlimit="10" stroke-linecap="round"/>
<path d="M85 134.88C85.64 134.79 87.7 134.38 87.78 132.88C87.88 131.09 87.78 124.74 87.78 124.74C87.7971 124.081 87.5591 123.44 87.1158 122.952C86.6724 122.464 86.0578 122.166 85.4 122.12H79.53" stroke="black" stroke-width="0.5" stroke-miterlimit="10" stroke-linecap="round"/>
<path d="M77.38 121.62H79C79.1193 121.62 79.2338 121.667 79.3182 121.752C79.4026 121.836 79.45 121.951 79.45 122.07V126.43C79.45 126.597 79.4172 126.762 79.3533 126.916C79.2895 127.07 79.1959 127.21 79.078 127.328C78.9601 127.446 78.8201 127.54 78.666 127.603C78.5119 127.667 78.3468 127.7 78.18 127.7V127.7C77.8432 127.7 77.5201 127.566 77.282 127.328C77.0438 127.09 76.91 126.767 76.91 126.43V122.07C76.91 121.951 76.9574 121.836 77.0418 121.752C77.1262 121.667 77.2407 121.62 77.36 121.62H77.38Z" stroke="black" stroke-width="0.5" stroke-miterlimit="10" stroke-linecap="round"/>
<path d="M43.87 53.62C43.87 53.62 33.72 91.97 29.77 98.43C25.82 104.89 20.55 108.57 23.58 113.58C26.61 118.59 52.03 104.21 53.68 82.27" stroke="black" stroke-width="0.5" stroke-miterlimit="10" stroke-linecap="round"/>
<path d="M63.89 90C63.89 90 55.52 116.13 53.68 129.09C51.84 142.05 52.4 296.55 52.4 296.55" stroke="black" stroke-width="0.5" stroke-miterlimit="10" stroke-linecap="round"/>
<path d="M53.1 140.14C53.1 140.14 28.59 140.28 23.5 139.75" stroke="black" stroke-width="0.5" stroke-miterlimit="10" stroke-linecap="round"/>
<path d="M11.51 178.28C14.64 178.18 17.62 178.05 17.62 178.05C17.62 178.05 20.29 178.05 20.89 173.5C21.49 168.95 18.64 151.75 20.32 145.76C22 139.77 28.82 131.46 36.32 132.1C43.82 132.74 48.54 140.16 48.54 140.16" stroke="black" stroke-width="0.5" stroke-miterlimit="10" stroke-linecap="round"/>
<path d="M50 140C48.4543 136.871 46.0983 134.213 43.1772 132.303C40.256 130.393 36.8764 129.301 33.39 129.14C20.89 128.22 9.69999 127.25 9.69999 127.25C9.69999 127.25 2.61999 126.33 1.69999 136.02C0.779993 145.71 0.609995 171.93 1.28 174.38C1.95 176.83 3.13 178.26 4.57 178.43C5.03 178.48 6.56999 178.43 8.44999 178.43" stroke="black" stroke-width="0.5" stroke-miterlimit="10" stroke-linecap="round"/>
<path d="M49.2 140.16C49.2 140.16 43.26 128.75 32.84 130.91C22.42 133.07 19.73 144.66 19.84 149.91" stroke="black" stroke-width="0.5" stroke-miterlimit="10" stroke-linecap="round"/>
<path d="M6.9 178.41C7.51515 179.19 7.8245 180.168 7.77 181.16C7.71 182.89 7.21 197.75 6.7 209.59C6.19 221.43 4.56 238.32 4.56 243.99C4.56 249.66 3.78 258.05 6.17 258.99C8.56 259.93 12.97 259.19 15.69 260.65L28.38 264.83" stroke="black" stroke-width="0.5" stroke-miterlimit="10" stroke-linecap="round"/>
<path d="M4.99999 257.5C4.99999 257.5 4.73999 251.63 9.52999 252.85C14.32 254.07 22.47 259.6 25.71 262.35C28.95 265.1 29.36 266.91 34.37 268.35C39.38 269.79 52.29 272.83 52.29 272.83" stroke="black" stroke-width="0.5" stroke-miterlimit="10" stroke-linecap="round"/>
<path d="M15.69 260.68C15.69 260.68 15.8 270.97 15.69 275.59C15.58 280.21 15.07 284.69 15.69 288.37C15.69 288.37 18.8 291.09 27.82 292.48C36.84 293.87 37.52 293.77 45.59 295.48C53.66 297.19 54.21 296.81 63.1 296.73C71.99 296.65 73.57 297.73 73.57 297.73" stroke="black" stroke-width="0.5" stroke-miterlimit="10" stroke-linecap="round"/>
<path d="M4.76001 165.07C4.76001 165.87 4.87001 166.68 4.98001 167.49C5.90001 174.59 8.58001 176.07 8.58001 180.31C8.58001 184.55 8.15001 207.93 8.89001 209.67C9.50001 211.08 12.07 211.46 13.01 211.56C13.0537 211.564 13.0977 211.559 13.1394 211.546C13.181 211.532 13.2195 211.51 13.2523 211.481C13.2851 211.452 13.3116 211.416 13.3301 211.377C13.3487 211.337 13.3588 211.294 13.36 211.25C13.36 208.2 13.57 185.72 13.36 183.96C13.15 182.2 10.49 176.53 10.3 172.3C10.13 168.39 10.02 160.23 6.65001 154.86C6.57582 154.746 6.46891 154.656 6.34318 154.603C6.21745 154.55 6.0787 154.536 5.94498 154.563C5.81125 154.59 5.68873 154.657 5.59332 154.754C5.49792 154.852 5.43405 154.976 5.41001 155.11C5.04048 157.232 4.8133 159.377 4.73001 161.53" stroke="black" stroke-width="0.5" stroke-miterlimit="10" stroke-linecap="round"/>
<path d="M6.31386 167.276C7.12743 167.197 7.63135 165.529 7.43941 163.55C7.24746 161.571 6.43234 160.031 5.61877 160.11C4.80521 160.188 4.30129 161.857 4.49324 163.836C4.68518 165.815 5.5003 167.355 6.31386 167.276Z" stroke="black" stroke-width="0.5" stroke-miterlimit="10" stroke-linecap="round"/>
<path d="M8.61 159.31C8.81 158.89 9.07 158.62 9.39 158.59C10.2 158.51 11.02 160.05 11.21 162.03C11.4 164.01 10.89 165.68 10.08 165.76C10.0137 165.77 9.94628 165.77 9.88 165.76" stroke="black" stroke-width="0.5" stroke-miterlimit="10" stroke-linecap="round"/>
<path d="M85.58 152.42C87.96 152.42 87.96 151.42 87.96 151.42H93.64C93.791 151.42 93.9406 151.39 94.0801 151.332C94.2196 151.275 94.3464 151.19 94.4532 151.083C94.56 150.976 94.6447 150.85 94.7025 150.71C94.7603 150.571 94.79 150.421 94.79 150.27V140.15C94.79 140.046 94.7493 139.945 94.6764 139.871C94.6035 139.796 94.5043 139.753 94.4 139.75H64.67C64.6179 139.75 64.5664 139.76 64.5184 139.781C64.4704 139.801 64.427 139.83 64.3906 139.868C64.3543 139.905 64.3258 139.949 64.3068 139.998C64.2878 140.046 64.2787 140.098 64.28 140.15V150.24C64.2787 150.391 64.3075 150.542 64.3648 150.682C64.4221 150.822 64.5068 150.949 64.6139 151.056C64.7209 151.163 64.8482 151.248 64.9883 151.305C65.1285 151.362 65.2786 151.391 65.43 151.39H71.11C71.11 151.39 71.11 152.39 73.48 152.39L85.58 152.42Z" stroke="black" stroke-width="0.5" stroke-miterlimit="10" stroke-linecap="round"/>
<path d="M85.58 204.14C87.96 204.14 87.96 203.14 87.96 203.14H93.64C93.791 203.14 93.9406 203.11 94.0801 203.052C94.2196 202.995 94.3464 202.91 94.4532 202.803C94.56 202.696 94.6447 202.57 94.7025 202.43C94.7603 202.291 94.79 202.141 94.79 201.99V191.88C94.79 191.776 94.7493 191.675 94.6764 191.601C94.6035 191.526 94.5043 191.483 94.4 191.48H64.67C64.6179 191.48 64.5664 191.49 64.5184 191.511C64.4704 191.531 64.427 191.56 64.3906 191.598C64.3543 191.635 64.3258 191.679 64.3068 191.728C64.2878 191.776 64.2787 191.828 64.28 191.88V202C64.2787 202.151 64.3075 202.302 64.3648 202.442C64.4221 202.582 64.5068 202.709 64.6139 202.816C64.7209 202.923 64.8482 203.008 64.9883 203.065C65.1285 203.123 65.2786 203.151 65.43 203.15H71.11C71.11 203.15 71.11 204.15 73.48 204.15L85.58 204.14Z" stroke="black" stroke-width="0.5" stroke-miterlimit="10" stroke-linecap="round"/>
<path d="M104 8.83002C104 8.83002 100.07 15.32 99 21.24C97.93 27.16 98 26.67 98 26.67" stroke="black" stroke-width="0.5" stroke-miterlimit="10" stroke-linecap="round"/>
<path d="M146.22 97.05C136.901 98.6361 127.449 99.306 118 99.05H113.26C103.784 99.312 94.3051 98.6421 84.96 97.05" stroke="black" stroke-width="0.5" stroke-miterlimit="10" stroke-linecap="round"/>
<path d="M72.62 93.85C58.84 89.05 52.4 81.85 49.14 76.17C43.6 66.58 42.86 39.9 42.37 33.01C41.88 26.12 44.27 26.66 44.27 26.66L54.27 27.59C57.13 27.59 85.35 26.65 114.04 26.65C143.82 26.65 174.11 27.54 177.04 27.59L187.04 26.66C187.04 26.66 189.43 26.13 188.94 33.01C188.45 39.89 187.71 66.58 182.18 76.17C178.91 81.83 172.49 89.03 158.74 93.83" stroke="black" stroke-width="0.5" stroke-miterlimit="10" stroke-linecap="round"/>
<path d="M188.93 32.39C188.93 32.39 192.49 33.88 192.42 34.31C192.35 34.74 188.76 35.16 188.76 35.16" stroke="black" stroke-width="0.5" stroke-miterlimit="10" stroke-linecap="round"/>
<path d="M192.42 34.31C192.42 34.31 192.7 39.65 192.9 40.83C193.1 42.01 200.11 65.54 203.08 75.06C206.05 84.58 212.16 104.54 211.87 109.6C211.785 110.75 211.638 111.895 211.43 113.03C210.325 119.234 207.033 124.836 202.15 128.82V128.82" stroke="black" stroke-width="0.5" stroke-miterlimit="10" stroke-linecap="round"/>
<path d="M210.37 128.18L209.87 118.41" stroke="black" stroke-width="0.5" stroke-miterlimit="10" stroke-linecap="round"/>
<path d="M188.69 36.29C188.69 36.29 191.4 36.23 191.4 36.65C191.4 37.07 188.57 38.54 188.57 38.54" stroke="black" stroke-width="0.5" stroke-miterlimit="10" stroke-linecap="round"/>
<path d="M159.52 27.41L158.58 67.36" stroke="black" stroke-width="0.5" stroke-miterlimit="10" stroke-linecap="round"/>
<path d="M146 68C145.91 62.5 146.23 27.26 146.23 27.26" stroke="black" stroke-width="0.5" stroke-miterlimit="10" stroke-linecap="round"/>
<path d="M146.17 139.62C146.17 138.82 146.22 138.1 146.24 137.47C146.35 134.57 146.4 130.04 146.42 124.66" stroke="black" stroke-width="0.5" stroke-miterlimit="10" stroke-linecap="round"/>
<path d="M145.26 191.57C145.4 178.77 145.63 163.75 145.87 152.33" stroke="black" stroke-width="0.5" stroke-miterlimit="10" stroke-linecap="round"/>
<path d="M157.63 204C157.38 211.88 157.12 217.09 156.92 218.38C156.47 221.23 153.46 225.28 152.02 227.08C151.927 227.2 151.807 227.298 151.67 227.365C151.533 227.432 151.382 227.467 151.23 227.467C151.078 227.467 150.927 227.432 150.79 227.365C150.653 227.298 150.533 227.2 150.44 227.08C148.87 225.3 145.54 221.19 145.23 217.86C145.13 216.68 145.11 211.41 145.15 204.03" stroke="black" stroke-width="0.5" stroke-miterlimit="10" stroke-linecap="round"/>
<path d="M158.54 152.26C158.44 166.78 158.22 180.45 157.96 191.57" stroke="black" stroke-width="0.5" stroke-miterlimit="10" stroke-linecap="round"/>
<path d="M158.61 124.66C158.61 128.7 158.61 132.94 158.61 137.38V139.62" stroke="black" stroke-width="0.5" stroke-miterlimit="10" stroke-linecap="round"/>
<path d="M146.42 122.06C146.42 100.57 145.97 68.42 145.97 68.42C145.97 68.42 146.12 61.79 151.03 58.48C151.279 58.3238 151.566 58.2409 151.86 58.2409C152.154 58.2409 152.441 58.3238 152.69 58.48C154.47 59.58 158.53 62.63 158.6 67.83C158.67 73.59 158.6 91.83 158.6 122.2" stroke="black" stroke-width="0.5" stroke-miterlimit="10" stroke-linecap="round"/>
<path d="M151.89 71.9C154.077 71.9 155.85 70.1271 155.85 67.94C155.85 65.753 154.077 63.98 151.89 63.98C149.703 63.98 147.93 65.753 147.93 67.94C147.93 70.1271 149.703 71.9 151.89 71.9Z" stroke="black" stroke-width="0.5" stroke-miterlimit="10" stroke-linecap="round"/>
<path d="M157.21 214.48C157.21 214.48 157.47 232.09 157.69 253.86C157.91 275.63 157.69 297.74 157.69 297.74C155.779 298.114 153.837 298.305 151.89 298.31C147.89 298.42 145.74 298.31 145.74 298.31L145.13 214.48" stroke="black" stroke-width="0.5" stroke-miterlimit="10" stroke-linecap="round"/>
<path d="M152.73 112.45C153.293 112.45 153.75 111.993 153.75 111.43C153.75 110.867 153.293 110.41 152.73 110.41C152.167 110.41 151.71 110.867 151.71 111.43C151.71 111.993 152.167 112.45 152.73 112.45Z" stroke="black" stroke-width="0.5" stroke-miterlimit="10" stroke-linecap="round"/>
<path d="M154.23 124.73H158.91C159.088 124.73 159.258 124.801 159.384 124.926C159.509 125.052 159.58 125.222 159.58 125.4C159.58 126.79 159.64 130.03 159.58 131.91C159.573 132.204 159.494 132.493 159.349 132.749C159.204 133.005 158.999 133.222 158.75 133.38L158.61 133.47" stroke="black" stroke-width="0.5" stroke-miterlimit="10" stroke-linecap="round"/>
<path d="M146.36 133.47L146.23 133.38C145.98 133.223 145.773 133.007 145.628 132.75C145.484 132.494 145.405 132.205 145.4 131.91C145.4 130.03 145.4 126.79 145.4 125.4C145.405 125.222 145.479 125.053 145.605 124.928C145.732 124.804 145.902 124.733 146.08 124.73H151.87" stroke="black" stroke-width="0.5" stroke-miterlimit="10" stroke-linecap="round"/>
<path d="M154.29 122.11H159.29C159.948 122.156 160.562 122.454 161.006 122.942C161.449 123.43 161.687 124.071 161.67 124.73C161.67 124.73 161.77 131.08 161.67 132.87C161.57 134.66 158.67 134.87 158.67 134.87" stroke="black" stroke-width="0.5" stroke-miterlimit="10" stroke-linecap="round"/>
<path d="M146.5 134.9C146.5 134.9 143.63 134.66 143.5 132.9C143.37 131.14 143.5 124.76 143.5 124.76C143.483 124.101 143.721 123.46 144.164 122.972C144.608 122.484 145.222 122.186 145.88 122.14H151.88" stroke="black" stroke-width="0.5" stroke-miterlimit="10" stroke-linecap="round"/>
<path d="M153.06 127.7C152.893 127.7 152.728 127.667 152.574 127.603C152.42 127.54 152.28 127.446 152.162 127.328C152.044 127.21 151.95 127.07 151.887 126.916C151.823 126.762 151.79 126.597 151.79 126.43V122.07C151.79 121.951 151.837 121.836 151.922 121.752C152.006 121.667 152.121 121.62 152.24 121.62H153.89C154.009 121.62 154.124 121.667 154.208 121.752C154.293 121.836 154.34 121.951 154.34 122.07V126.43C154.34 126.597 154.307 126.762 154.243 126.916C154.179 127.07 154.086 127.21 153.968 127.328C153.85 127.446 153.71 127.54 153.556 127.603C153.402 127.667 153.237 127.7 153.07 127.7H153.06Z" stroke="black" stroke-width="0.5" stroke-miterlimit="10" stroke-linecap="round"/>
<path d="M187.39 53.62C187.39 53.62 197.54 91.97 201.49 98.43C205.44 104.89 210.72 108.57 207.69 113.58C204.66 118.59 179.23 104.21 177.58 82.27" stroke="black" stroke-width="0.5" stroke-miterlimit="10" stroke-linecap="round"/>
<path d="M167.37 90C167.37 90 175.74 116.13 177.58 129.09C179.42 142.05 178.86 296.75 178.86 296.75" stroke="black" stroke-width="0.5" stroke-miterlimit="10" stroke-linecap="round"/>
<path d="M178.16 140.14C178.16 140.14 202.67 140.28 207.76 139.75" stroke="black" stroke-width="0.5" stroke-miterlimit="10" stroke-linecap="round"/>
<path d="M219.74 178.28C216.62 178.18 213.64 178.05 213.64 178.05C213.64 178.05 210.98 178.05 210.37 173.5C209.76 168.95 212.63 151.75 210.94 145.76C209.25 139.77 202.44 131.46 194.94 132.1C187.44 132.74 182.72 140.16 182.72 140.16" stroke="black" stroke-width="0.5" stroke-miterlimit="10" stroke-linecap="round"/>
<path d="M181.26 140C182.806 136.871 185.162 134.213 188.083 132.303C191.004 130.393 194.384 129.301 197.87 129.14C210.37 128.22 221.56 127.25 221.56 127.25C221.56 127.25 228.64 126.33 229.56 136.02C230.48 145.71 230.66 171.93 229.98 174.38C229.3 176.83 228.13 178.26 226.69 178.43C226.23 178.48 224.69 178.43 222.78 178.43" stroke="black" stroke-width="0.5" stroke-miterlimit="10" stroke-linecap="round"/>
<path d="M182.06 140.16C182.06 140.16 188 128.75 198.43 130.91C208.86 133.07 211.53 144.66 211.43 149.91" stroke="black" stroke-width="0.5" stroke-miterlimit="10" stroke-linecap="round"/>
<path d="M224.36 178.41C223.745 179.19 223.435 180.168 223.49 181.16C223.55 182.89 224.06 197.75 224.56 209.59C225.06 221.43 226.7 238.32 226.7 243.99C226.7 249.66 227.48 258.05 225.09 258.99C222.7 259.93 218.29 259.19 215.57 260.65L202.88 264.83" stroke="black" stroke-width="0.5" stroke-miterlimit="10" stroke-linecap="round"/>
<path d="M226.22 257.5C226.22 257.5 226.48 251.63 221.69 252.85C216.9 254.07 208.75 259.6 205.51 262.35C202.27 265.1 201.87 266.91 196.85 268.35C191.83 269.79 178.94 272.83 178.94 272.83" stroke="black" stroke-width="0.5" stroke-miterlimit="10" stroke-linecap="round"/>
<path d="M213.64 261.59C213.64 261.59 213.53 270.97 213.64 275.59C213.75 280.21 214.25 284.69 213.64 288.37C213.64 288.37 210.52 291.09 201.5 292.48C192.48 293.87 191.8 293.77 183.73 295.48C175.66 297.19 175.11 296.81 166.22 296.73C157.33 296.65 155.76 297.73 155.76 297.73" stroke="black" stroke-width="0.5" stroke-miterlimit="10" stroke-linecap="round"/>
<path d="M226.22 167.94C225.22 174.66 222.69 176.16 222.69 180.31C222.69 184.46 223.11 207.93 222.37 209.67C221.76 211.08 219.19 211.46 218.25 211.56C218.207 211.564 218.163 211.559 218.122 211.546C218.081 211.532 218.043 211.51 218.011 211.481C217.979 211.451 217.954 211.416 217.936 211.376C217.919 211.336 217.91 211.293 217.91 211.25C217.91 208.2 217.69 185.72 217.91 183.96C218.13 182.2 220.78 176.53 220.97 172.3C221.14 168.39 221.26 160.23 224.62 154.86C224.694 154.746 224.801 154.656 224.927 154.603C225.053 154.55 225.191 154.536 225.325 154.563C225.459 154.59 225.581 154.657 225.677 154.754C225.772 154.852 225.836 154.976 225.86 155.11C226.194 157.025 226.411 158.959 226.51 160.9" stroke="black" stroke-width="0.5" stroke-miterlimit="10" stroke-linecap="round"/>
<path d="M222.6 159.21C222.541 159.055 222.444 158.917 222.318 158.809C222.193 158.701 222.042 158.626 221.88 158.59C221.06 158.51 220.25 160.05 220.05 162.03C219.85 164.01 220.37 165.68 221.18 165.76" stroke="black" stroke-width="0.5" stroke-miterlimit="10" stroke-linecap="round"/>
<path d="M227.579 164.554C227.771 162.575 227.267 160.907 226.453 160.828C225.64 160.749 224.825 162.289 224.633 164.268C224.441 166.247 224.945 167.915 225.758 167.994C226.572 168.073 227.387 166.533 227.579 164.554Z" stroke="black" stroke-width="0.5" stroke-miterlimit="10" stroke-linecap="round"/>
<path d="M145.74 298.31C138.35 298.31 116.04 297.74 116.04 297.74C116.04 297.74 92.91 298.35 85.53 298.31" stroke="black" stroke-width="0.5" stroke-miterlimit="10" stroke-linecap="round"/>
<path d="M213.64 288.37C213.64 288.37 215.06 288.8 214.64 289.59C214.033 290.953 212.922 292.028 211.54 292.59C209.44 293.53 202.71 295.95 190.97 297.78C179.23 299.61 179.4 299.78 175.65 299.98C171.9 300.18 161.39 300.19 157.33 300.41C153.27 300.63 125.15 300.95 116.33 300.95C107.51 300.95 76.03 300.63 71.97 300.41C67.91 300.19 57.4 300.19 53.65 299.98C49.9 299.77 50.08 299.61 38.34 297.78C26.6 295.95 19.86 293.53 17.77 292.59C16.3856 292.028 15.2716 290.953 14.66 289.59C14.23 288.8 15.66 288.37 15.66 288.37" stroke="black" stroke-width="0.5" stroke-miterlimit="10" stroke-linecap="round"/>
<path d="M145.68 152.42C143.31 152.42 143.31 151.42 143.31 151.42H137.62C137.315 151.42 137.022 151.299 136.807 151.083C136.591 150.868 136.47 150.575 136.47 150.27V140.15C136.47 140.044 136.512 139.942 136.587 139.867C136.662 139.792 136.764 139.75 136.87 139.75H166.59C166.696 139.75 166.798 139.792 166.873 139.867C166.948 139.942 166.99 140.044 166.99 140.15V150.24C166.99 150.545 166.869 150.838 166.653 151.053C166.438 151.269 166.145 151.39 165.84 151.39H160.15C160.15 151.39 160.15 152.39 157.78 152.39L145.68 152.42Z" stroke="black" stroke-width="0.5" stroke-miterlimit="10" stroke-linecap="round"/>
<path d="M145.68 204.14C143.31 204.14 143.31 203.14 143.31 203.14H137.62C137.315 203.14 137.022 203.019 136.807 202.803C136.591 202.587 136.47 202.295 136.47 201.99V191.88C136.47 191.774 136.512 191.672 136.587 191.597C136.662 191.522 136.764 191.48 136.87 191.48H166.59C166.696 191.48 166.798 191.522 166.873 191.597C166.948 191.672 166.99 191.774 166.99 191.88V202C166.99 202.305 166.869 202.598 166.653 202.813C166.438 203.029 166.145 203.15 165.84 203.15H160.15C160.15 203.15 160.15 204.15 157.78 204.15L145.68 204.14Z" stroke="black" stroke-width="0.5" stroke-miterlimit="10" stroke-linecap="round"/>
<path d="M127.45 9.81C119.6 0.120005 113.26 0.73001 113.26 0.73001C113.26 0.73001 106.92 0.120005 99.06 9.81" stroke="black" stroke-width="0.5" stroke-miterlimit="10" stroke-linecap="round"/>
<path d="M137.7 26.71C136.97 24.39 129.79 3.43001 113.26 3.43001C96.73 3.43001 89.45 24.67 88.8 26.75" stroke="black" stroke-width="0.5" stroke-miterlimit="10" stroke-linecap="round"/>
<path d="M131.73 20.28C131.73 20.28 125.15 5.63002 113.26 5.72002C101.37 5.63002 94.78 20.28 94.78 20.28" stroke="black" stroke-width="0.5" stroke-miterlimit="10" stroke-linecap="round"/>
<path d="M122.5 8.83002C122.5 8.83002 126.43 15.32 127.45 21.24C128.2 25.54 128.45 26.24 128.45 26.55" stroke="black" stroke-width="0.5" stroke-miterlimit="10" stroke-linecap="round"/>
</svg>
