<svg width="221" height="97" viewBox="0 0 221 97" fill="none" xmlns="http://www.w3.org/2000/svg">
<path d="M138.15 10.0598C172.92 9.89977 221.94 8.73977 211.25 5.75977" stroke="black" stroke-width="0.5" stroke-miterlimit="10"/>
<path d="M77 9C90.63 9.39 103.25 9.75 110.56 9.94C113.9 10.03 118.86 10.09 124.81 10.11" stroke="black" stroke-width="0.5" stroke-miterlimit="10"/>
<path d="M64.0002 88.09C45.5702 87.5 29.8802 86.75 20.7802 86.09C19.103 85.9595 17.5415 85.1847 16.4229 83.9282C15.3044 82.6717 14.7157 81.031 14.7802 79.35L17.2802 13.03C17.3376 11.4915 18.0002 10.0379 19.1238 8.98545C20.2474 7.93297 21.7412 7.36677 23.2802 7.41002L50.0902 8.19002" stroke="black" stroke-width="0.5" stroke-miterlimit="10"/>
<path d="M143.3 4C167.4 4.11 199.88 4.50001 211.25 5.74001C211.25 5.74001 220.11 6.03001 220.11 8.74001C220.11 11.45 220.11 12.88 218.63 13.47L218.38 72.42C218.356 73.7449 218.622 75.0588 219.16 76.27C219.316 76.6948 219.374 77.1495 219.33 77.6C219.26 79.89 214.42 81.25 205.56 83.03C205.56 83.03 180.18 88.68 133.17 89.03" stroke="black" stroke-width="0.5" stroke-miterlimit="10"/>
<path d="M77.4102 4.04979C98.0002 3.92979 115 3.99979 115 3.99979H117.32" stroke="black" stroke-width="0.5" stroke-miterlimit="10"/>
<path d="M15.5001 82.9998C6.64015 81.2198 2.72015 79.0798 1.69015 78.4898C0.660147 77.8998 0.690146 77.6098 0.580146 75.3198C0.470146 73.0298 2.43014 73.1798 2.43014 73.1798V13.4398C1.00014 12.8498 1.00014 11.3698 1.00014 8.70979C1.00014 6.04979 9.86015 5.70979 9.86015 5.70979C16.6001 4.96979 31.8601 4.53979 48.7801 4.27979" stroke="black" stroke-width="0.5" stroke-miterlimit="10"/>
<path d="M135.52 11.9997C172.52 11.9397 231.17 10.7397 217.52 6.73975" stroke="black" stroke-width="0.5" stroke-miterlimit="10"/>
<path d="M72 10.6499C87.8 11.0999 103.08 11.5299 111.43 11.7499C114.81 11.8399 120.05 11.9099 126.43 11.9299" stroke="black" stroke-width="0.5" stroke-miterlimit="10"/>
<path d="M15.5 83.0001L18.13 14.8801C18.1874 13.3416 18.85 11.888 19.9736 10.8355C21.0973 9.78307 22.591 9.21687 24.13 9.26012L56.48 10.2001" stroke="black" stroke-width="0.5" stroke-miterlimit="10"/>
<path d="M2.43018 13.4399C2.43018 13.4399 5.80018 15.1499 17.1802 15.3599" stroke="black" stroke-width="0.5" stroke-miterlimit="10" stroke-linecap="round" stroke-dasharray="1 2"/>
<path d="M2.43018 73.1797C2.43018 73.1797 3.56017 75.8197 14.8402 77.3797" stroke="black" stroke-width="0.5" stroke-miterlimit="10" stroke-linecap="round" stroke-dasharray="1 2"/>
<path d="M135.38 84.9297C211.38 84.2397 218.77 75.1997 218.77 75.1997" stroke="black" stroke-width="0.5" stroke-miterlimit="10" stroke-linecap="round" stroke-dasharray="1 2"/>
<path d="M101.24 84.7598L115 84.9198C118.95 84.9198 122.74 84.9698 126.4 84.9698" stroke="black" stroke-width="0.5" stroke-miterlimit="10" stroke-linecap="round" stroke-dasharray="1 2"/>
<path d="M81 84.4399L89.3 84.5899" stroke="black" stroke-width="0.5" stroke-miterlimit="10" stroke-linecap="round" stroke-dasharray="1 2"/>
<path d="M58.4 13.13C43.13 12.53 32.5501 12.1299 26.7501 11.8299C26.0656 11.7991 25.3818 11.9044 24.7384 12.1397C24.0949 12.375 23.5044 12.7356 23.0013 13.2006C22.4981 13.6656 22.0922 14.2258 21.8071 14.8488C21.5219 15.4718 21.3632 16.1452 21.3401 16.8299L19.8301 76.8299C19.7941 78.144 20.2601 79.4223 21.1332 80.405C22.0063 81.3877 23.2209 82.0009 24.5301 82.1199C30.3301 82.6399 42.4501 83.4299 66.4501 84.1199" stroke="black" stroke-width="0.5" stroke-miterlimit="10" stroke-linecap="round" stroke-dasharray="1 2"/>
<path d="M98.9403 14.6399L72.8003 13.6899" stroke="black" stroke-width="0.5" stroke-miterlimit="10" stroke-linecap="round" stroke-dasharray="1 2"/>
<path d="M125.09 15.5398L119.54 15.3598L117.54 15.2998" stroke="black" stroke-width="0.5" stroke-miterlimit="10" stroke-linecap="round" stroke-dasharray="1 2"/>
<path d="M218.63 13.4399C218.63 13.4399 189.36 16.9799 133.73 15.7599" stroke="black" stroke-width="0.5" stroke-miterlimit="10" stroke-linecap="round" stroke-dasharray="1 2"/>
<path d="M174.66 4.31982C174.66 4.31982 194.82 5.09981 190.72 9.00981" stroke="black" stroke-width="0.5" stroke-miterlimit="10"/>
<path d="M19.82 8.41998C19.82 8.41998 -2.88996 7.33998 12.95 5.47998" stroke="black" stroke-width="0.5" stroke-miterlimit="10"/>
<path d="M18.1703 10.1198C18.1703 10.1198 3.09035 9.96982 1.61035 7.56982" stroke="black" stroke-width="0.5" stroke-miterlimit="10"/>
<path d="M15.5 8.13965C15.5 8.13965 12.5 5.40965 18.17 5.13965" stroke="black" stroke-width="0.5" stroke-miterlimit="10"/>
<path d="M24.65 7.43994C24.65 7.43994 15.5 5.66994 27.65 5.43994" stroke="black" stroke-width="0.5" stroke-miterlimit="10"/>
<path d="M26.6802 7.43995C26.6802 7.43995 20.2802 5.12995 34.8202 5.16995" stroke="black" stroke-width="0.5" stroke-miterlimit="10"/>
<path d="M34.6002 7.72971C34.6002 7.72971 26.8102 5.54971 35.4602 5.19971C35.4602 5.19971 41.9702 5.19971 47.6202 5.19971" stroke="black" stroke-width="0.5" stroke-miterlimit="10"/>
<path d="M144 6.5C157.55 6.9 167.15 7.41 167.79 8.05C169.2 9.46 157.31 9.88 157.31 9.88" stroke="black" stroke-width="0.5" stroke-miterlimit="10"/>
<path d="M77.27 5.41992C89.66 5.52992 104.21 5.69992 117.99 5.92992" stroke="black" stroke-width="0.5" stroke-miterlimit="10"/>
<path d="M43.8403 7.99971C43.8403 7.99971 37.4703 5.54971 46.1203 5.19971H48.7303" stroke="black" stroke-width="0.5" stroke-miterlimit="10"/>
<path d="M49.8299 7.81994V4.81994C49.8312 4.67639 49.8611 4.53453 49.9178 4.40267C49.9746 4.27081 50.057 4.15159 50.1604 4.05196C50.2637 3.95234 50.3859 3.87431 50.5198 3.82245C50.6536 3.7706 50.7965 3.74594 50.9399 3.74993L76.5599 4.55993C76.8252 4.55993 77.0795 4.66528 77.2671 4.85282C77.4546 5.04036 77.5599 5.29471 77.5599 5.55993V8.21993C77.56 8.46751 77.4623 8.70509 77.2882 8.88109C77.114 9.05709 76.8775 9.1573 76.63 9.15993C75.69 9.15993 74.63 9.21993 73.85 9.24993C70.71 9.35993 72.4599 14.2499 74.9299 19.9899C79.0899 29.6199 80.7199 33.5399 84.2299 40.6399C84.4652 41.3003 84.7425 41.9449 85.0599 42.5699C85.2699 42.1599 86.3699 40.0799 86.5299 39.7099C88.7499 34.6099 88.69 34.1699 90.63 29.3499C91.98 26.0099 94.6999 20.9299 91.6899 20.7699C91.0599 20.7699 89.6899 20.7699 88.5799 20.7699C88.4636 20.7672 88.3498 20.735 88.2492 20.6765C88.1487 20.618 88.0645 20.5349 88.0046 20.4351C87.9447 20.3353 87.9111 20.222 87.9068 20.1057C87.9024 19.9894 87.9276 19.8739 87.9799 19.7699C88.6313 18.8456 89.2225 17.8802 89.7499 16.8799C90.6853 16.7652 91.6285 16.7284 92.57 16.7699C101.44 16.7699 114.51 16.2799 117.24 16.3499C117.298 16.3509 117.355 16.3658 117.406 16.3934C117.457 16.4211 117.5 16.4607 117.533 16.5088C117.565 16.5569 117.586 16.6121 117.592 16.6698C117.598 16.7275 117.591 16.7858 117.57 16.8399C117.1 18.1099 116.86 18.9299 116.14 20.5599C116.06 20.7399 115.58 20.8499 115.28 20.8699C113.84 20.9499 111.22 20.9599 109.79 21.0899C106.57 21.3899 104.79 27.1999 103.59 29.9499C101.12 35.6899 98.9399 41.3399 96.4499 47.0699C94.7899 50.8799 93.65 53.3499 92.1 56.9599C91.6646 57.9224 91.597 59.011 91.91 60.0199C92.0483 60.4279 92.2154 60.8256 92.41 61.2099C94.66 66.2099 95.0599 67.1499 97.3399 72.1299C97.3399 72.1999 98.15 73.8699 98.63 74.8499C98.6615 74.9131 98.71 74.9663 98.7701 75.0034C98.8301 75.0406 98.8993 75.0602 98.9699 75.0602C99.0406 75.0602 99.1098 75.0406 99.1698 75.0034C99.2299 74.9663 99.2784 74.9131 99.3099 74.8499C101.82 69.6499 117.61 36.2799 126.31 18.0499C127.79 14.9399 128.31 10.9199 125.79 10.0499C125.22 9.85993 123.42 9.68994 122.2 9.45994C121.952 9.40456 121.735 9.25697 121.592 9.04711C121.449 8.83725 121.391 8.58085 121.43 8.32993L121.81 6.02993C121.871 5.68473 122.052 5.37216 122.321 5.14719C122.59 4.92222 122.929 4.79926 123.28 4.79993L142.56 4.84994C142.868 4.84994 143.163 4.97215 143.38 5.18969C143.598 5.40723 143.72 5.70227 143.72 6.00992V8.27993C143.72 8.42917 143.69 8.57693 143.633 8.71468C143.576 8.85244 143.491 8.97745 143.385 9.08251C143.279 9.18757 143.154 9.27061 143.015 9.3268C142.877 9.383 142.729 9.41125 142.58 9.40993H141.82C137.82 9.40993 135.67 11.2499 134.01 14.4099C131.5 19.1399 126.37 31.1699 124.01 35.9499C115.23 53.5399 109.44 67.5799 100.7 85.1799C100.524 85.5715 100.23 85.8979 99.8582 86.1132C99.4868 86.3285 99.0572 86.4218 98.63 86.3799C96.2967 86.477 93.9599 86.4469 91.63 86.2899C90.82 86.2199 90.4599 86.1399 90.1799 85.4999C89.1099 82.9899 86.1199 77.1999 85.3599 75.0999C85.3361 75.0441 85.2963 74.9966 85.2457 74.9631C85.195 74.9297 85.1356 74.9119 85.0749 74.9119C85.0142 74.9119 84.9549 74.9297 84.9042 74.9631C84.8536 74.9966 84.8138 75.0441 84.7899 75.0999C82.7899 79.6199 79.6799 85.6899 78.3399 90.4599C78.3173 90.549 78.3151 90.6421 78.3335 90.7322C78.352 90.8223 78.3905 90.907 78.4463 90.9801C78.502 91.0532 78.5736 91.1127 78.6556 91.1543C78.7377 91.1958 78.828 91.2182 78.9199 91.2199H80.7299C93.7899 91.2199 106.73 91.1099 119.73 90.7199C121.65 90.4699 123.09 89.6499 125.21 87.7199C127.083 85.9942 128.738 84.0465 130.14 81.9199C131.93 79.3099 133.58 76.0299 135.26 73.3599C135.413 73.084 135.646 72.8604 135.927 72.7178C136.209 72.5752 136.527 72.5202 136.84 72.5599C137.84 72.5599 139.36 72.5099 139.76 72.5599C140.16 72.6099 140.21 73.2799 140.05 73.5599C136.38 80.2999 134.05 88.4199 130.38 95.1699C130.294 95.4001 130.135 95.5959 129.927 95.7277C129.72 95.8594 129.475 95.9199 129.23 95.8999C102.01 95.8999 77.3699 96.1999 50.2299 96.2099C50.0544 96.2099 49.8807 96.1752 49.7187 96.1077C49.5566 96.0403 49.4096 95.9414 49.2859 95.8169C49.1623 95.6923 49.0645 95.5445 48.9983 95.382C48.9321 95.2195 48.8986 95.0454 48.8999 94.8699C48.9309 93.6755 49.1888 92.4979 49.6599 91.3999C49.7399 91.2199 50.2299 91.0999 50.5299 91.0999C52.7399 91.0999 54.9499 91.0999 57.1599 91.0999C59.239 91.1032 61.2913 90.6312 63.1599 89.7199C66.0299 88.3199 66.8199 86.7899 68.2599 83.6299C71.6199 76.2399 72.4699 73.4899 74.9199 68.0799C77.1699 63.0799 79.04 59.2599 78.52 58.2999C72.31 44.8399 67.8 32.8899 61.57 19.4299C61.03 18.2499 58.6499 12.4299 57.7499 11.4299C57.0988 10.6277 56.2751 9.98276 55.3401 9.54299C54.4052 9.10322 53.3831 8.87999 52.35 8.88993H50.9999C50.7042 8.89827 50.4168 8.7913 50.1985 8.59163C49.9802 8.39197 49.848 8.11525 49.8299 7.81994Z" stroke="black" stroke-width="0.5" stroke-miterlimit="10" stroke-linecap="round"/>
<path d="M48.0601 87.52C47.9836 88.252 48.0836 88.9916 48.3515 89.6771C48.6194 90.3625 49.0475 90.9739 49.6001 91.46" stroke="black" stroke-width="0.5" stroke-miterlimit="10" stroke-linecap="round"/>
<path d="M49.6001 96.27C49.6001 96.27 46.9001 96.27 48.0601 87.52" stroke="black" stroke-width="0.5" stroke-miterlimit="10" stroke-linecap="round"/>
<path d="M136.25 72.6597C135.803 72.6566 135.364 72.7823 134.987 73.0217C134.609 73.261 134.308 73.604 134.12 74.0097C133.24 75.4997 126.81 87.4597 121.38 88.8497C106.48 88.8497 93.3002 88.8497 78.7402 88.4997" stroke="black" stroke-width="0.5" stroke-miterlimit="10" stroke-linecap="round"/>
<path d="M142.53 9.42987C142.964 9.36938 143.361 9.15364 143.648 8.82265C143.935 8.49166 144.092 8.06788 144.09 7.62988V5.50987C144.091 5.16503 144.008 4.82512 143.85 4.5188C143.691 4.21248 143.462 3.94876 143.18 3.74988L140.18 1.66988C139.678 1.31974 139.082 1.13133 138.47 1.12988H118.69C118.498 1.12988 118.308 1.16764 118.131 1.24101C117.954 1.31438 117.793 1.42192 117.658 1.5575C117.522 1.69307 117.414 1.85402 117.341 2.03116C117.268 2.20829 117.23 2.39814 117.23 2.58987V4.53987C117.231 4.96364 117.379 5.3739 117.65 5.69987L120.01 8.56989C120.233 8.84203 120.512 9.06319 120.827 9.21844C121.143 9.3737 121.488 9.45944 121.84 9.46988H122.15" stroke="black" stroke-width="0.5" stroke-miterlimit="10" stroke-linecap="round"/>
<path d="M75.4903 51.8501C75.4903 51.8501 77.7403 57.5201 77.6003 58.7001C77.4603 59.8801 72.9503 70.7001 69.8403 77.3801C66.7303 84.0601 65.1903 88.8101 60.8403 90.5901" stroke="black" stroke-width="0.5" stroke-miterlimit="10" stroke-linecap="round"/>
<path d="M117.53 16.8096C117.572 16.5183 117.547 16.2212 117.455 15.9414C117.364 15.6615 117.209 15.4066 117.003 15.1966C116.797 14.9865 116.545 14.8269 116.267 14.7303C115.989 14.6337 115.692 14.6027 115.4 14.6396C112.97 14.5796 89.2599 14.9196 89.2599 14.9196C89.2599 14.9196 87.2599 19.1196 87.3299 19.6796C87.3999 20.2396 87.1599 20.4296 88.5399 20.7696" stroke="black" stroke-width="0.5" stroke-miterlimit="10" stroke-linecap="round"/>
<path d="M77.5203 5.5797C77.5203 5.5797 77.5803 4.00969 76.8603 3.44969C76.5703 3.22969 76.2603 2.97969 76.0003 2.75969C75.546 2.3874 74.9776 2.18261 74.3903 2.17969H50.3903C49.9686 2.17969 49.5642 2.34722 49.266 2.6454C48.9678 2.94358 48.8003 3.348 48.8003 3.7697V7.2697C48.8005 7.52889 48.8775 7.78222 49.0217 7.9976C49.1659 8.21299 49.3707 8.38076 49.6103 8.47969L50.3703 8.78969" stroke="black" stroke-width="0.5" stroke-miterlimit="10" stroke-linecap="round"/>
<path d="M123.93 9.75C123.93 9.75 126.7 10.5 126.37 13.03C126.04 15.56 98.0801 73.75 98.0801 73.75" stroke="black" stroke-width="0.5" stroke-miterlimit="10" stroke-linecap="round"/>
<path d="M90.5899 20.7598C90.5899 20.7598 92.0699 21.0398 91.9999 22.2298C91.9299 23.4198 86.2799 37.0098 84.1899 40.6598" stroke="black" stroke-width="0.5" stroke-miterlimit="10" stroke-linecap="round"/>
<path d="M72.3702 71.7399L36.2203 70.3399H36.0103C36.3603 69.4999 36.7003 68.6599 37.0803 67.8499C37.0803 67.7599 37.3502 67.7099 37.4902 67.7099L40.5902 67.8199C41.5615 67.8485 42.5264 67.6535 43.4103 67.2499C44.335 66.8332 45.0725 66.0886 45.4802 65.1599C47.1802 61.3665 48.8903 57.5899 50.6103 53.8299C50.6795 53.6847 50.7155 53.5258 50.7155 53.3649C50.7155 53.204 50.6795 53.0451 50.6103 52.8999C47.9503 46.1399 45.3203 39.3799 42.6603 32.6199C42.4455 32.0132 42.1385 31.4432 41.7503 30.9299C41.4373 30.5407 41.0393 30.2284 40.5869 30.0169C40.1344 29.8055 39.6396 29.7004 39.1403 29.7099H38.0103L38.1103 27.1299L51.5003 27.6499L51.4002 30.3399C50.9002 30.3399 50.4002 30.2799 49.9202 30.2799C49.0702 30.2799 48.7003 30.7499 48.9903 31.4999C50.7903 36.1265 52.5969 40.7532 54.4103 45.3799C54.4477 45.4319 54.4877 45.482 54.5303 45.5299C54.5903 45.3999 54.6502 45.2999 54.7002 45.1999L58.0803 37.7399C58.5303 36.7399 58.0803 36.0899 56.9703 35.9799C56.5703 35.9799 56.1702 35.9799 55.6802 35.9799C56.1002 35.0399 56.4803 34.1899 56.8803 33.3399C56.8803 33.2699 57.0902 33.2099 57.2002 33.2199L67.6303 33.6199L68.8903 36.6199C68.4103 36.6199 67.8902 36.6199 67.4502 36.6199C66.7686 36.6248 66.1035 36.8304 65.538 37.211C64.9724 37.5915 64.5315 38.1303 64.2703 38.7599C63.0103 41.5499 61.7202 44.3299 60.4502 47.1099C59.5302 49.1099 58.6003 51.1099 57.6903 53.1599C57.5993 53.3502 57.5816 53.5673 57.6403 53.7699C58.6403 56.2799 59.5702 58.7699 60.5402 61.2799C60.5688 61.3392 60.6023 61.3961 60.6403 61.4499C60.7129 61.3506 60.7797 61.247 60.8402 61.1399C64.1736 54.5332 67.5069 47.9199 70.8402 41.2999L72.3203 44.7799L61.1802 66.1899C61.1061 66.3854 60.9647 66.5482 60.7815 66.649C60.5983 66.7497 60.3851 66.782 60.1802 66.7399C58.8902 66.6599 57.5902 66.6199 56.2902 66.5899C56.1561 66.6058 56.0208 66.5717 55.9102 66.4943C55.7995 66.4168 55.7212 66.3014 55.6903 66.1699C55.1603 64.6799 54.6002 63.1699 54.0402 61.7099C53.9922 61.5795 53.9354 61.4526 53.8702 61.3299L50.5402 68.3299H51.1802C57.2902 68.5699 63.4002 68.7899 69.5102 69.0499C70.8557 69.1598 72.1898 68.7319 73.2203 67.8599C73.7094 67.4407 74.1704 66.9897 74.6003 66.5099" stroke="black" stroke-width="0.25" stroke-miterlimit="10"/>
<path d="M80.0004 31.7699C80.7063 31.4301 81.4891 31.2818 82.2704 31.3398H83.1604L83.2603 28.7699L78.6104 28.5898L80.0004 31.7699Z" stroke="black" stroke-width="0.25" stroke-miterlimit="10"/>
<path d="M167.59 87.71C168 87.18 168.25 86.76 168.19 86.43C167.996 85.8428 167.608 85.3389 167.09 85C166.775 84.7411 166.374 84.6098 165.967 84.632C165.56 84.6543 165.175 84.8284 164.89 85.12C164.402 85.5189 164.053 86.0612 163.89 86.67C163.892 87.0726 164.041 87.4606 164.31 87.76M151.9 88.59C151.19 88.14 150.49 87.66 149.78 87.16C153.48 84.24 157.09 81.82 161.93 82.87C160.93 77.97 163.03 74.03 165.84 70.27C167.406 71.8557 168.54 73.8155 169.135 75.963C169.73 78.1106 169.767 80.3746 169.24 82.54C173.84 81.17 177.31 83.1 180.53 85.7C180.2 86.07 179.97 86.64 179.53 86.75C177.43 87.22 151.9 88.59 151.9 88.59Z" stroke="black" stroke-width="0.25" stroke-miterlimit="10"/>
<path d="M179.46 11.3599C180.939 12.0759 182.323 12.9727 183.58 14.0299C182.186 15.6435 180.419 16.8924 178.432 17.6679C176.445 18.4434 174.299 18.7221 172.18 18.4799C173.02 23.1199 171.06 26.8999 168.18 30.6699C165.63 27.2099 163.67 23.7399 164.9 18.7699C159.98 20.2199 156.48 18.0599 152.82 15.4899C154.537 14.0352 156.436 12.8115 158.47 11.8499L179.46 11.3599ZM167.76 16.6299C167.905 16.8057 168.086 16.9474 168.292 17.0447C168.498 17.1419 168.723 17.1924 168.95 17.1924C169.178 17.1924 169.403 17.1419 169.608 17.0447C169.814 16.9474 169.996 16.8057 170.14 16.6299C170.82 15.8099 171.32 15.1899 171.23 14.7399C171.036 14.1549 170.648 13.6538 170.13 13.3199C169.816 13.0588 169.415 12.926 169.007 12.9483C168.599 12.9705 168.214 13.1461 167.93 13.4399C167.444 13.8361 167.094 14.3746 166.93 14.9799C166.87 15.4799 167.24 15.9999 167.76 16.6299Z" stroke="black" stroke-width="0.25" stroke-miterlimit="10"/>
<path d="M18.8403 12.2998C19.5603 9.7098 23.4203 9.2998 23.4203 9.2998L37.2103 9.67979C38.4581 10.3775 39.6396 11.1875 40.7403 12.0998C39.0137 13.6027 36.9764 14.7056 34.7741 15.3297C32.5717 15.9537 30.2587 16.0835 28.0003 15.7098C28.6403 20.0698 26.4403 23.3698 23.3803 26.4798C20.9503 23.2298 19.1003 19.9898 20.4703 15.5398C19.6809 15.706 18.877 15.7932 18.0703 15.7998C18.2115 14.6107 18.4694 13.4384 18.8403 12.2998V12.2998ZM23.5003 13.7098C23.6512 13.8862 23.8361 14.0302 24.0441 14.1331C24.2521 14.2361 24.4787 14.296 24.7104 14.309C24.9421 14.3221 25.1741 14.2882 25.3923 14.2093C25.6106 14.1303 25.8106 14.0081 25.9803 13.8498C26.7203 13.1098 27.2803 12.5498 27.2103 12.1198C27.0218 11.5322 26.6369 11.0273 26.1203 10.6898C25.7916 10.4252 25.3823 10.2809 24.9603 10.2809C24.5383 10.2809 24.129 10.4252 23.8003 10.6898C23.2912 11.0332 22.9056 11.531 22.7003 12.1098C22.6303 12.5698 23.0003 13.0698 23.5003 13.7098Z" stroke="black" stroke-width="0.25" stroke-miterlimit="10"/>
<path d="M14.8403 80.62C15.7256 80.6348 16.6056 80.7591 17.4603 80.99C16.5803 75.89 18.9103 71.78 22.1003 67.73C23.7283 69.48 24.8685 71.6265 25.4072 73.955C25.946 76.2836 25.8643 78.7128 25.1703 81C30.2703 79.76 33.9803 82 37.3903 84.88C36.5458 85.6594 35.6206 86.3467 34.6303 86.93L19.6303 85.93C18.2479 85.6298 17.0217 84.8373 16.1803 83.7C15.5259 82.7768 15.0697 81.7281 14.8403 80.62V80.62ZM23.1103 86.24C23.6003 85.71 23.9203 85.24 23.8603 84.92C23.6737 84.3074 23.2862 83.7754 22.7603 83.41C22.442 83.1274 22.031 82.9713 21.6053 82.9713C21.1796 82.9713 20.7687 83.1274 20.4503 83.41C19.9323 83.7834 19.5469 84.3124 19.3503 84.92C19.3169 85.278 19.4205 85.6354 19.6403 85.92L23.1103 86.24Z" stroke="black" stroke-width="0.25" stroke-miterlimit="10"/>
<path d="M91.59 86.3C93.69 86.37 96.66 86.47 98.59 86.39C99.0113 86.3959 99.4263 86.2873 99.7908 86.076C100.155 85.8647 100.456 85.5585 100.66 85.19C101.26 84.12 101.75 82.98 101.75 82.98C105.21 83.15 108 84.98 110.61 87.2C109.848 87.9072 109.017 88.5369 108.13 89.08L80.6001 88.54C80.1601 88.24 79.73 87.93 79.29 87.61L79.9 86.01C82.58 84.14 85.62 82.63 89.01 82.91C89.2252 83.4558 89.4688 83.9899 89.7401 84.51C90.1001 85.28 90.17 86.25 91.59 86.3ZM93 86.38C92.7674 86.6299 92.6052 86.937 92.53 87.27C92.469 87.5407 92.4763 87.8223 92.5514 88.0894C92.6265 88.3566 92.7669 88.6008 92.9601 88.8L96.14 88.75C96.71 88.13 97.14 87.65 97.04 87.26C96.9864 86.9674 96.8552 86.6946 96.66 86.47L93 86.38Z" stroke="black" stroke-width="0.25" stroke-miterlimit="10"/>
<path d="M89.2603 14.9198L88.1604 17.2998C85.4004 16.6098 83.0304 14.9298 80.6104 13.0698C81.6104 12.3398 82.6104 11.6298 83.6104 11.0098L113.74 11.8098C114.36 12.2698 114.97 12.7598 115.56 13.2798C115.038 13.7631 114.487 14.214 113.91 14.6298L89.2603 14.9198ZM100.02 14.7698C100.54 14.1898 100.88 13.7698 100.82 13.3398C100.629 12.596 100.214 11.9292 99.6304 11.4298L97.3103 11.3698C96.676 11.9018 96.1931 12.5916 95.9104 13.3698C95.9015 13.8997 96.0705 14.4172 96.3904 14.8398L100.02 14.7698Z" stroke="black" stroke-width="0.25" stroke-miterlimit="10"/>
<path d="M118.87 46.3101C125.715 42.2065 130.994 35.9349 133.87 28.4901C133.875 28.4794 133.883 28.4703 133.892 28.4639C133.902 28.4575 133.913 28.4541 133.925 28.4541C133.937 28.4541 133.948 28.4575 133.958 28.4639C133.968 28.4703 133.975 28.4794 133.98 28.4901C137.5 39.1001 144.16 46.4901 154.65 50.9401C154.661 50.9448 154.67 50.9525 154.676 50.9622C154.683 50.972 154.686 50.9834 154.686 50.9951C154.686 51.0068 154.683 51.0182 154.676 51.028C154.67 51.0378 154.661 51.0455 154.65 51.0501C144.01 54.9501 136.65 61.8001 132.34 72.2901C132.33 72.3138 132.314 72.3341 132.292 72.3483C132.271 72.3625 132.246 72.3701 132.22 72.3701C132.194 72.3701 132.169 72.3625 132.148 72.3483C132.127 72.3341 132.11 72.3138 132.1 72.2901C129.548 63.8082 123.844 56.6261 116.16 52.2201L118.87 46.3101ZM136.78 46.9401C138.42 41.9401 136.4 38.2601 133.78 34.5401C133.774 34.5335 133.766 34.5282 133.757 34.5246C133.749 34.521 133.739 34.5191 133.73 34.5191C133.721 34.5191 133.712 34.521 133.703 34.5246C133.694 34.5282 133.687 34.5335 133.68 34.5401C129.87 39.0401 128.85 42.1401 129.68 46.7301C129.68 46.7801 129.68 46.8101 129.6 46.8001C124.88 45.2501 121.1 47.2501 117.18 50.0401C117.172 50.0467 117.165 50.055 117.16 50.0646C117.156 50.0741 117.153 50.0845 117.153 50.0951C117.153 50.1057 117.156 50.1162 117.16 50.1257C117.165 50.1352 117.172 50.1436 117.18 50.1501C120.98 53.0001 124.58 55.3201 129.44 53.9101C129.451 53.9084 129.462 53.9093 129.473 53.9127C129.483 53.9161 129.493 53.922 129.5 53.9298C129.508 53.9376 129.514 53.9471 129.518 53.9576C129.521 53.9681 129.522 53.9792 129.52 53.9901C128.23 58.4001 129.06 61.7201 132.52 66.3101C132.526 66.3184 132.533 66.3252 132.542 66.3298C132.551 66.3345 132.56 66.3369 132.57 66.3369C132.58 66.3369 132.59 66.3345 132.599 66.3298C132.607 66.3252 132.615 66.3184 132.62 66.3101C135.51 62.7801 137.77 59.1101 136.7 54.2101C136.698 54.1995 136.698 54.1883 136.701 54.1779C136.705 54.1675 136.711 54.1581 136.719 54.1509C136.727 54.1437 136.737 54.1389 136.748 54.137C136.759 54.1351 136.77 54.1362 136.78 54.1401C141.67 55.6001 145.32 53.5001 149.11 50.9001C149.124 50.8853 149.132 50.8656 149.132 50.8451C149.132 50.8247 149.124 50.805 149.11 50.7901C145.42 47.8901 141.87 45.7301 136.88 47.0201C136.875 47.03 136.868 47.0387 136.859 47.0458C136.851 47.0529 136.841 47.0582 136.83 47.0614C136.808 47.068 136.785 47.0657 136.765 47.0551C136.745 47.0445 136.73 47.0264 136.724 47.0049C136.717 46.9833 136.72 46.96 136.73 46.9401H136.78Z" stroke="black" stroke-width="0.25" stroke-miterlimit="10"/>
<path d="M133.08 52.7596C134.494 52.7596 135.64 51.6135 135.64 50.1996C135.64 48.7858 134.494 47.6396 133.08 47.6396C131.666 47.6396 130.52 48.7858 130.52 50.1996C130.52 51.6135 131.666 52.7596 133.08 52.7596Z" stroke="black" stroke-width="0.25" stroke-miterlimit="10"/>
<path d="M15.5002 51.8197C12.9602 55.1197 11.2102 59.5497 10.1302 65.1997C8.57017 56.2597 5.98018 49.7797 2.43018 45.3497V42.8097C5.89018 39.3897 8.43017 33.3797 9.99017 23.9297C11.2702 31.1797 13.2702 36.9297 16.2002 41.5297L15.5002 51.8197ZM16.1002 44.0397C14.7502 42.3697 13.3602 41.4997 11.6802 42.2997C12.4002 37.4297 11.3502 33.7297 10.0402 30.0497C8.48078 33.778 7.939 37.8535 8.47018 41.8597C6.36018 40.2297 4.83018 41.9697 3.33018 44.3297C4.95018 47.0497 6.50018 49.3297 8.57018 48.3297C8.09018 52.3297 8.57018 55.3297 10.1502 59.7797C11.7236 56.4193 12.2831 52.6731 11.7602 48.9997C13.3402 50.1897 14.6502 49.7997 15.9302 48.7097L16.1002 44.0397Z" stroke="black" stroke-width="0.25" stroke-miterlimit="10"/>
<path d="M11.2501 45.3301C11.2501 46.6601 10.7301 47.63 10.1001 47.51C9.47009 47.39 8.95009 46.2401 8.94009 44.9401C8.93009 43.6401 9.42009 42.6501 10.0601 42.7401C10.7001 42.8301 11.2401 44.0001 11.2501 45.3301Z" stroke="black" stroke-width="0.25" stroke-miterlimit="10"/>
<path d="M207.41 28.3398V19.0498C207.41 19.0498 198.24 21.2198 196.33 34.4698C194.6 46.5198 198.25 54.0498 202.53 54.0498C206.81 54.0498 208.89 47.4698 210.66 48.3998C212.43 49.3298 214.94 66.3998 206.26 63.3998V72.6898C206.26 72.6898 212.76 76.1098 215.6 66.2698C218.77 55.3498 217.6 37.3298 212.13 36.6598C210.3 36.4398 208.33 37.5498 206.97 39.4698C206.48 40.1598 201.65 46.5598 202.39 34.4698C202.84 26.9998 207.41 28.3398 207.41 28.3398Z" stroke="black" stroke-width="0.25" stroke-miterlimit="10"/>
<path d="M218.5 44.8397C216.71 47.7497 211.99 25.8397 211.99 25.8397L215.24 17.1597L218.5 33.0397V44.8397Z" stroke="black" stroke-width="0.25" stroke-miterlimit="10"/>
</svg>
