<svg width="271" height="222" viewBox="0 0 271 222" fill="none" xmlns="http://www.w3.org/2000/svg">
<path d="M12.25 77.21C12.02 77.66 11.8 78.12 11.58 78.6" stroke="black" stroke-width="0.5" stroke-miterlimit="10"/>
<path d="M21.62 69.19C21.1509 68.9559 20.6343 68.8327 20.11 68.83C18.42 68.83 16.53 70.33 14.61 73.11" stroke="black" stroke-width="0.5" stroke-miterlimit="10"/>
<path d="M10.53 81C6.34 91.24 2.71 107.29 1.74 126.65L1.16 186.33C1.16 186.33 0.16 204.01 8.93 209.66C17.41 215.15 20.93 218.56 25.36 220.27C29.79 221.98 36.65 221.81 37.16 209.49C37.67 197.17 38.53 148.22 38.53 141.54C38.53 134.86 37.34 114.84 34.26 102.35C32.33 94.54 29.91 83.35 26.73 76.13" stroke="black" stroke-width="0.5" stroke-miterlimit="10"/>
<path d="M28.44 220.66C32.83 221.89 38.64 220.82 39.11 209.51C39.62 197.18 40.48 148.24 40.48 141.56C40.48 134.88 39.28 114.86 36.2 102.37C34.2 94.28 31.68 82.59 28.32 75.37" stroke="black" stroke-width="0.5" stroke-miterlimit="10" stroke-linecap="round" stroke-dasharray="1 2"/>
<path d="M13.27 78.38C12.93 79.01 12.58 79.68 12.27 80.38" stroke="black" stroke-width="0.5" stroke-miterlimit="10"/>
<path d="M22.82 74C22.4546 73.4699 21.9764 73.0273 21.4197 72.704C20.8629 72.3806 20.2415 72.1846 19.6 72.13C18.45 72.13 17.19 72.92 15.9 74.41" stroke="black" stroke-width="0.5" stroke-miterlimit="10"/>
<path d="M10.93 83.42C6.93001 93.23 3.54001 108.84 2.63001 127.72L2.09001 185.06C2.09001 185.06 1.20001 202.06 9.27001 207.47C17.12 212.74 20.45 215.78 24.46 217.66C30.98 220.66 34.9 219.14 35.37 207.3C35.84 195.46 36.64 148.44 36.64 142.03C36.64 135.62 35.53 116.38 32.64 104.38C30.56 95.6 27.86 82.38 24.12 75.98" stroke="black" stroke-width="0.5" stroke-miterlimit="10"/>
<path d="M32.14 141.56C28.79 142.46 21.42 139.05 15.94 136.66C10.46 134.27 5.79 131.24 5.79 130C5.79 128.76 7.3 128.74 7.61 128.94C7.92 129.14 6.92 129.61 7.13 129.94C7.34 130.27 9.48 132.17 17.74 135.59C24.84 138.53 29.32 140.53 31.35 140.76C31.57 140.785 31.7729 140.891 31.919 141.057C32.0651 141.224 32.1439 141.439 32.14 141.66V195C32.14 199.67 32.26 213.25 24.96 209.26C19.4118 206.059 14.0682 202.515 8.96 198.65C8.96 198.65 4.17 194.88 4.06 185.18C3.95 175.48 6 130.44 6 130.44" stroke="black" stroke-width="0.5" stroke-miterlimit="10"/>
<path d="M32.14 141.64C32.14 141.64 31.52 196.33 31.35 199.32C31.18 202.31 30.83 209.9 27.15 210" stroke="black" stroke-width="0.5" stroke-miterlimit="10"/>
<path d="M31.09 141.64C31.09 141.64 30.66 197.01 30.49 199.92C30.32 202.83 30.32 211.64 23.3 206.92C16.28 202.2 7.42 196.92 7.42 196.92" stroke="black" stroke-width="0.5" stroke-miterlimit="10" stroke-linecap="round" stroke-dasharray="1 2"/>
<path d="M111.56 214.69C68.06 218.44 32.47 221.37 29.65 221.05" stroke="black" stroke-width="0.5" stroke-miterlimit="10"/>
<path d="M169.41 209.61C154.58 210.92 137.88 212.5 122.93 213.8" stroke="black" stroke-width="0.5" stroke-miterlimit="10"/>
<path d="M262.56 136.73C263.15 160.88 262.22 186.32 262.22 186.32C262.22 186.32 262.9 201.8 253.57 202.32C250.17 202.5 218.73 205.4 181.47 208.71" stroke="black" stroke-width="0.5" stroke-miterlimit="10"/>
<path d="M184.63 64C211.63 63.49 231.07 63.21 231.07 63.21C231.07 63.21 239.88 63.72 242.19 66.03C244.5 68.34 257.42 83.4 260.76 108.31C261.41 113.18 261.87 118.76 262.17 125.19" stroke="black" stroke-width="0.5" stroke-miterlimit="10"/>
<path d="M114.18 65.54L118.67 65.45" stroke="black" stroke-width="0.5" stroke-miterlimit="10"/>
<path d="M58.77 66.63C71.64 66.38 84.67 66.2 101.98 65.85" stroke="black" stroke-width="0.5" stroke-miterlimit="10"/>
<path d="M33.11 67.08C34.28 67.08 35.36 67.08 37.11 67.01" stroke="black" stroke-width="0.5" stroke-miterlimit="10"/>
<path d="M20.11 68.83C21.4596 68.0582 22.9418 67.5461 24.48 67.32" stroke="black" stroke-width="0.5" stroke-miterlimit="10"/>
<path d="M260.37 135.53C261 159.91 260.05 186.32 260.05 186.32C260.05 186.32 260.74 201.8 251.41 202.32" stroke="black" stroke-width="0.5" stroke-miterlimit="10" stroke-linecap="round" stroke-dasharray="1 2"/>
<path d="M240 66C242.31 68.31 255.23 83.37 258.57 108.28C259.17 112.73 259.57 118.09 259.9 123.89" stroke="black" stroke-width="0.5" stroke-miterlimit="10" stroke-linecap="round" stroke-dasharray="1 2"/>
<path d="M109 80.75C108.49 79.13 108.11 77.97 107.92 77.38C107.822 77.0802 107.778 76.7653 107.79 76.45C107.85 74.67 108.01 68.5 107.09 69.83" stroke="black" stroke-width="0.5" stroke-miterlimit="10"/>
<path d="M125.3 96.23C128.072 106.221 130.15 116.392 131.52 126.67C134.52 152.34 134.2 189.42 132.52 199.92C130.36 213.14 120.26 214.69 120.26 214.69C120.26 214.69 114.26 215.3 111.59 214.69C111.59 214.69 119.59 212.47 121.17 201.4C123.29 186.4 122.42 150.06 119.57 126.67C118.023 115.284 115.684 104.02 112.57 92.96" stroke="black" stroke-width="0.5" stroke-miterlimit="10"/>
<path d="M107.28 69.24L118.06 68.94C119.77 68.61 118.63 74.19 118.63 74.19C118.63 74.19 119.87 77.76 121.63 83.41" stroke="black" stroke-width="0.5" stroke-miterlimit="10"/>
<path d="M124 95.85C126.69 106.51 129.48 119.27 130.51 129.75C132.94 154.45 133.12 189.25 131.75 199.35C130.02 212.07 121.43 214.43 121.43 214.43" stroke="black" stroke-width="0.5" stroke-miterlimit="10" stroke-linecap="round" stroke-dasharray="1 2"/>
<path d="M110.67 80.85C109.87 78.18 109.27 76.25 108.98 75.34C108.956 75.2632 108.948 75.1822 108.957 75.1022C108.966 75.0222 108.992 74.9449 109.032 74.8753C109.072 74.8057 109.127 74.7453 109.192 74.6979C109.257 74.6505 109.331 74.6171 109.41 74.6L111.84 74.1C113.014 73.8584 114.217 73.791 115.41 73.9L117.56 74.1C117.673 74.1102 117.781 74.1536 117.87 74.2247C117.959 74.2959 118.025 74.3916 118.06 74.5C118.38 75.5 119.34 78.69 120.6 83.16" stroke="black" stroke-width="0.5" stroke-miterlimit="10" stroke-linecap="round" stroke-dasharray="1 2"/>
<path d="M114.47 214.43C114.47 214.43 121.54 209.68 122.17 201.65C124.35 173.9 123.25 154 121.17 129.7C120.17 118.03 117.01 104.1 114.17 93.17" stroke="black" stroke-width="0.5" stroke-miterlimit="10" stroke-linecap="round" stroke-dasharray="1 2"/>
<path d="M170.05 95.83C167 84.59 164.15 75.16 164.15 75.16C164.15 75.16 164.38 69.87 163.9 68.16" stroke="black" stroke-width="0.5" stroke-miterlimit="10"/>
<path d="M185.79 115.63C186.61 119.57 187.26 123.13 187.79 126.63C191.95 154.02 190.55 174.73 190.33 185.33C190.285 191.925 188.736 198.424 185.8 204.33C185.041 205.824 183.923 207.106 182.546 208.061C181.168 209.016 179.575 209.614 177.91 209.8C174.893 210.187 171.837 210.15 168.83 209.69C168.83 209.69 176.51 209.28 178.6 196.93C180.79 184 180.19 151.63 177.06 126.67C176.64 123.32 175.76 118.89 174.65 114.03" stroke="black" stroke-width="0.5" stroke-miterlimit="10"/>
<path d="M163.81 66.52H172.88C175.28 66.09 174.68 72.34 174.68 72.34C174.68 72.34 178.2 83.66 181.68 97.18" stroke="black" stroke-width="0.5" stroke-miterlimit="10"/>
<path d="M185 115.65C185.81 119.45 186.52 123.1 187.05 126.42C190.99 150.9 190.47 185.95 188.33 195.9C185.82 207.57 180.02 208.71 180.02 208.71" stroke="black" stroke-width="0.5" stroke-miterlimit="10" stroke-linecap="round" stroke-dasharray="1 2"/>
<path d="M171.76 96.29C168.7 84.91 165.62 75.39 164.94 73C164.917 72.9258 164.909 72.8478 164.916 72.7704C164.923 72.693 164.945 72.6177 164.981 72.549C165.017 72.4802 165.067 72.4193 165.127 72.3697C165.187 72.3201 165.256 72.2828 165.33 72.26L167.5 71.76C168.549 71.5188 169.63 71.4513 170.7 71.56L172.63 71.76C172.84 71.76 173.76 72.03 173.82 72.25C174.38 74.25 177.44 84.88 180.58 97.18" stroke="black" stroke-width="0.5" stroke-miterlimit="10" stroke-linecap="round" stroke-dasharray="1 2"/>
<path d="M172.58 209.36C172.58 209.36 179.38 204.97 180.33 193.01C182.28 168.21 180.69 151.42 178.09 127.01C177.68 123.21 177 119.06 176.16 114.8" stroke="black" stroke-width="0.5" stroke-miterlimit="10" stroke-linecap="round" stroke-dasharray="1 2"/>
<path d="M114.82 80.04C115.98 80.04 116.92 79.2162 116.92 78.2C116.92 77.1838 115.98 76.36 114.82 76.36C113.66 76.36 112.72 77.1838 112.72 78.2C112.72 79.2162 113.66 80.04 114.82 80.04Z" stroke="black" stroke-width="0.5" stroke-miterlimit="10"/>
<path d="M170.78 77.43C171.829 77.43 172.68 76.6868 172.68 75.77C172.68 74.8532 171.829 74.11 170.78 74.11C169.731 74.11 168.88 74.8532 168.88 75.77C168.88 76.6868 169.731 77.43 170.78 77.43Z" stroke="black" stroke-width="0.5" stroke-miterlimit="10"/>
<path d="M185.89 64.66C211.69 64.09 232.22 63.72 236.65 63.88" stroke="black" stroke-width="0.5" stroke-miterlimit="10" stroke-linecap="round" stroke-dasharray="1 2"/>
<path d="M120.71 66.24L158.5 65.3" stroke="black" stroke-width="0.5" stroke-miterlimit="10" stroke-linecap="round" stroke-dasharray="1 2"/>
<path d="M62.94 67.75C62.94 67.75 77.99 67.28 102.33 66.65" stroke="black" stroke-width="0.5" stroke-miterlimit="10" stroke-linecap="round" stroke-dasharray="1 2"/>
<path d="M188.2 65.86C197.2 65.56 205.77 65.46 212.3 65.86C231.35 66.93 240.56 65.03 240.56 65.03" stroke="black" stroke-width="0.5" stroke-miterlimit="10" stroke-linecap="round" stroke-dasharray="1 2"/>
<path d="M120.6 68.09C130.6 67.95 139.08 67.83 143.16 67.8C147.04 67.8 153.16 67.51 159.85 67.17" stroke="black" stroke-width="0.5" stroke-miterlimit="10" stroke-linecap="round" stroke-dasharray="1 2"/>
<path d="M66.6 68.93C66.6 68.93 84.24 68.64 103.65 68.35" stroke="black" stroke-width="0.5" stroke-miterlimit="10" stroke-linecap="round" stroke-dasharray="1 2"/>
<path d="M119.46 60.75C119.816 60.7993 120.141 60.979 120.372 61.2543C120.603 61.5296 120.723 61.8809 120.71 62.24L120.28 71.33C120.265 71.6953 120.11 72.0409 119.848 72.2957C119.586 72.5505 119.236 72.6952 118.87 72.7V72.7" stroke="black" stroke-width="0.5" stroke-miterlimit="10"/>
<path d="M107.79 73.1H106.51C106.317 73.1002 106.126 73.0613 105.949 72.9857C105.771 72.9101 105.611 72.7994 105.477 72.6602C105.343 72.5209 105.239 72.3561 105.171 72.1757C105.103 71.9952 105.072 71.8028 105.08 71.61L105.4 62.47C105.415 62.1054 105.568 61.7601 105.828 61.5039C106.088 61.2478 106.435 61.0998 106.8 61.09L108.34 61.04" stroke="black" stroke-width="0.5" stroke-miterlimit="10"/>
<path d="M108.42 62.53C108.144 62.5398 107.881 62.6533 107.685 62.8478C107.488 63.0424 107.372 63.3038 107.36 63.58L107.19 70.85H107.87" stroke="black" stroke-width="0.5" stroke-miterlimit="10"/>
<path d="M118.59 69L118.98 63.41C118.99 63.1598 118.916 62.9133 118.77 62.71" stroke="black" stroke-width="0.5" stroke-miterlimit="10"/>
<path d="M107.67 48.29C107.021 48.5515 106.485 49.0314 106.152 49.6468C105.82 50.2621 105.713 50.9742 105.85 51.66C106.399 54.4399 107.123 57.1821 108.02 59.87C108.02 59.87 108.67 62.78 108.02 63.18L118.9 62.82C118.9 62.82 120.8 60.38 118.23 58.82C118.23 58.82 117.46 52.72 114.82 50.49" stroke="black" stroke-width="0.5" stroke-miterlimit="10"/>
<path d="M107.38 61.07L107.55 58.37" stroke="black" stroke-width="0.5" stroke-miterlimit="10"/>
<path d="M134.12 8.53999C128.28 9.04999 122.47 11.54 116.21 17.16C106.4 25.95 107.55 45.85 107.55 45.85C107.564 47.8586 107.721 49.8637 108.02 51.85C108.34 53.11 109.79 57.45 110.24 58.78C110.254 58.8239 110.258 58.8706 110.251 58.9161C110.243 58.9617 110.225 59.0049 110.198 59.0421C110.17 59.0792 110.135 59.1093 110.093 59.1298C110.052 59.1504 110.006 59.1607 109.96 59.16H108.74" stroke="black" stroke-width="0.5" stroke-linecap="round" stroke-linejoin="round"/>
<path d="M144.13 16.09C145.825 16.8883 147.436 17.8531 148.94 18.97C163.15 29.09 165.69 48.11 167.39 56.61C167.399 56.6528 167.398 56.697 167.388 56.7395C167.377 56.7819 167.357 56.8214 167.33 56.8551C167.302 56.8887 167.267 56.9157 167.227 56.9338C167.187 56.952 167.144 56.961 167.1 56.96H165.41C165.41 56.96 164.54 56.85 164.41 58.26C164.54 57.53 165.22 57.32 165.27 58.56C165.264 59.2156 165.092 59.8589 164.77 60.43C164.746 60.4753 164.734 60.526 164.735 60.5773C164.737 60.6285 164.751 60.6786 164.777 60.7227C164.803 60.7668 164.84 60.8035 164.884 60.8293C164.929 60.8551 164.979 60.8691 165.03 60.87H175.18C175.254 60.869 175.326 60.8405 175.38 60.79C175.696 60.5789 175.954 60.2933 176.133 59.9584C176.312 59.6235 176.406 59.2497 176.406 58.87C176.406 58.4903 176.312 58.1165 176.133 57.7816C175.954 57.4467 175.696 57.1611 175.38 56.95C175.329 56.9097 175.265 56.8884 175.2 56.89H173.86C173.787 56.8907 173.716 56.8646 173.661 56.8167C173.606 56.7688 173.57 56.7025 173.56 56.63C173.29 54.36 171.17 37.63 166.18 28.63C162.1 21.34 156.96 15.23 150.57 11.78" stroke="black" stroke-width="0.5" stroke-linecap="round" stroke-linejoin="round"/>
<path d="M118.23 58.84H116.63C116.565 58.8425 116.501 58.8232 116.449 58.7851C116.396 58.747 116.358 58.6924 116.34 58.63C115.538 55.6006 115.042 52.4984 114.86 49.37C114.52 43.84 113.27 33.12 118.23 26.04C121.37 21.57 127.06 15.81 134.48 14.79" stroke="black" stroke-width="0.5" stroke-linecap="round" stroke-linejoin="round"/>
<path d="M175.33 56.89C175.33 56.89 175.66 51.79 172.33 48.43" stroke="black" stroke-width="0.5" stroke-miterlimit="10"/>
<path d="M165 45.17C165 45.17 163 46.17 163.5 49.79C163.873 52.2444 164.374 54.6777 165 57.08" stroke="black" stroke-width="0.5" stroke-miterlimit="10"/>
<path d="M19.35 81.17C22.15 83.23 19.59 88.11 19.59 88.11C19.59 88.11 19.82 89.36 21.36 103.11C22.9 116.86 20.11 121.31 20.11 121.31C18.4071 117.853 17.4174 114.088 17.2 110.24C16.8515 104.777 16.0893 99.3479 14.92 94C14.4529 91.8408 14.1653 89.6466 14.06 87.44C13.1156 86.619 12.2394 85.7228 11.44 84.76C10.76 83.76 10.06 81.31 11.44 80.25H17.26" stroke="black" stroke-width="0.5" stroke-miterlimit="10"/>
<path d="M18.06 88.17C18.06 88.17 18.96 90.37 20.39 101.73C22.12 115.43 19.95 119.29 19.95 119.29C18.5791 115.715 17.7858 111.944 17.6 108.12C17.2354 102.899 16.4529 97.7158 15.26 92.62C14.8977 90.9602 14.7 89.2687 14.67 87.57" stroke="black" stroke-width="0.5" stroke-miterlimit="10" stroke-linecap="round" stroke-dasharray="1 2"/>
<path d="M17.65 81C17.0192 81.6035 16.6345 82.4194 16.57 83.29C16.6129 84.2085 16.8363 85.1097 17.2275 85.9418C17.6187 86.774 18.17 87.521 18.85 88.14C18.85 88.14 21.43 102.22 21.62 105.76" stroke="black" stroke-width="0.5" stroke-miterlimit="10"/>
<path d="M14.06 87.48L18.85 88.17" stroke="black" stroke-width="0.5" stroke-miterlimit="10"/>
<path d="M16.5293 93.9612C16.9828 93.8945 17.2084 92.8748 17.0331 91.6836C16.8579 90.4925 16.3481 89.5809 15.8946 89.6477C15.4411 89.7144 15.2155 90.7341 15.3908 91.9253C15.5661 93.1164 16.0758 94.028 16.5293 93.9612Z" stroke="black" stroke-width="0.5" stroke-miterlimit="10"/>
<path d="M12.39 80.46C11.2373 78.6361 10.5758 76.5451 10.47 74.39C10.12 70.71 12.47 72.65 15.01 75.99C16.8529 78.6025 17.9865 81.6484 18.3 84.83C18.36 85.4 18.98 85.48 19.42 85.3C19.86 85.12 19.87 84.68 19.83 84.21C19.59 81.43 19.13 78.89 15.65 74.21C12.56 70.1 8.16001 67.92 8.58001 74.3C8.65577 76.6787 9.37082 78.9931 10.65 81" stroke="black" stroke-width="0.5" stroke-miterlimit="10"/>
<path d="M30.21 67.09C30.21 67.09 29.86 65.29 28.95 65.23C28.04 65.17 24.33 67.09 24.33 67.09L24 75.68C24 75.68 25.43 76.98 26.35 76.55C27.27 76.12 29.48 75.22 29.77 74.5C30.005 73.5955 30.1589 72.6719 30.23 71.74" stroke="black" stroke-width="0.5" stroke-miterlimit="10"/>
<path d="M29 66L28.7 70.24C28.6609 70.8749 28.4797 71.4929 28.1699 72.0485C27.8601 72.6041 27.4296 73.083 26.91 73.45C26.0338 74.0272 25.0568 74.4343 24.03 74.65" stroke="black" stroke-width="0.5" stroke-miterlimit="10"/>
<path d="M14.22 72.61C14.43 72.42 14.65 72.24 14.87 72.07C15.8322 71.3548 16.8846 70.7697 18 70.33L24.37 67.76" stroke="black" stroke-width="0.5" stroke-miterlimit="10"/>
<path d="M16.75 79L16.57 79.07C16.57 79.07 12.65 79.94 12.25 76.57C12.1653 75.5635 12.4816 74.5644 13.13 73.79" stroke="black" stroke-width="0.5" stroke-miterlimit="10"/>
<path d="M24.36 75.98L18.21 78.4" stroke="black" stroke-width="0.5" stroke-miterlimit="10"/>
<path d="M15.47 74C15.9163 73.5385 16.4327 73.1504 17 72.85C17.7665 72.4266 18.5783 72.0912 19.42 71.85L24.42 70.34" stroke="black" stroke-width="0.5" stroke-miterlimit="10"/>
<path d="M24.07 73.66L17.86 76.31C17.6534 76.3991 17.4392 76.4694 17.22 76.52" stroke="black" stroke-width="0.5" stroke-miterlimit="10"/>
<path d="M29.55 68.19C29.55 68.19 34.04 65.79 34.77 68.19C35.5 70.59 32.67 71.31 32.67 71.31" stroke="black" stroke-width="0.5" stroke-miterlimit="10"/>
<path d="M31 70.2C32.0065 71.3184 33.3648 72.0593 34.85 72.3C35.6521 72.4062 36.4676 72.3398 37.242 72.1052C38.0163 71.8707 38.7316 71.4734 39.34 70.94L40.08 72.15C39.69 72.99 37.98 74.77 34.85 74.47C31.72 74.17 29.51 70.47 29.51 70.47L31 70.2Z" stroke="black" stroke-width="0.5" stroke-miterlimit="10"/>
<path d="M38.53 60.31C38.53 60.31 35.84 60.14 32.93 63.86C30.02 67.58 30.7 67.37 30.7 67.37" stroke="black" stroke-width="0.5" stroke-miterlimit="10"/>
<path d="M37.11 62.77C36.1206 63.4576 35.2436 64.2942 34.51 65.25C33.9 66.04 33.45 66.65 33.11 67.12" stroke="black" stroke-width="0.5" stroke-miterlimit="10"/>
<path d="M36.64 72.35L37.11 61.92C37.2018 61.3118 37.5265 60.7632 38.0154 60.39C38.5043 60.0168 39.1191 59.8482 39.73 59.92C42.07 60.09 42.87 62.09 43.61 62.26C44.35 62.43 99.24 78.41 116.04 82.38C117.22 82.66 118.21 82.87 118.98 83.02C130.72 85.31 186.83 100.58 218.35 108.7C248.47 116.45 265.81 124.44 269 132.7C272.19 140.96 270.4 156.88 262.74 163.04" stroke="black" stroke-width="0.5" stroke-miterlimit="10"/>
<path d="M39 73.41C39 73.41 40.82 73.7 42.45 73.88C44.08 74.06 125.26 96.32 164.95 107.28C204.64 118.24 256.43 129.8 264.42 138.28C272.41 146.76 267.42 156.11 262.72 161.5" stroke="black" stroke-width="0.5" stroke-miterlimit="10"/>
<path d="M268.42 149.68C269.15 145.68 268.33 141.35 264.42 137.22C256.42 128.75 204.64 117.17 164.95 106.22C125.26 95.27 44.08 71.91 42.45 71.74L43.22 63.18C43.96 63.35 106.31 81.61 118.05 83.89C129.79 86.17 185.89 101.44 217.41 109.56C247.53 117.32 264.88 125.31 268.07 133.56C271.13 141.42 269.62 156.37 262.78 163.05" stroke="black" stroke-width="0.5" stroke-miterlimit="10" stroke-linecap="round" stroke-dasharray="1 2"/>
<path d="M36.64 70.93C37.1791 70.481 37.8584 70.2351 38.56 70.2351C39.2616 70.2351 39.9409 70.481 40.48 70.93L42.56 72.51L73.56 82.2" stroke="black" stroke-width="0.5" stroke-miterlimit="10"/>
<path d="M262.74 149.43C262.74 149.43 267.3 144.74 267.2 142.12" stroke="black" stroke-width="0.5" stroke-miterlimit="10"/>
<path d="M262.51 150.55C262.51 150.55 267.51 145.64 267.42 143.03" stroke="black" stroke-width="0.25" stroke-miterlimit="10"/>
<path d="M262.73 160.56C262.73 160.56 267.68 154.78 268.66 148.37" stroke="black" stroke-width="0.25" stroke-miterlimit="10"/>
<path d="M14.61 75.48C14.4928 75.6203 14.4287 75.7972 14.4287 75.98C14.4287 76.1627 14.4928 76.3397 14.61 76.48C14.725 76.5839 14.8625 76.6596 15.0117 76.7013C15.161 76.7429 15.3179 76.7493 15.47 76.72" stroke="black" stroke-width="0.5" stroke-miterlimit="10"/>
<path d="M98.32 50C98.32 50 99.32 30.75 109.5 20C117.94 11.11 126.38 10.48 126.38 10.48" stroke="black" stroke-width="0.5" stroke-miterlimit="10"/>
<path d="M110 27.39C110 27.39 105.55 34.39 104.18 45.89C104.18 45.89 98.76 49.03 97.45 51.2C96.14 53.37 96.08 58.37 96.08 58.37C95.8594 58.3599 95.6417 58.4231 95.4608 58.5497C95.2799 58.6764 95.146 58.8593 95.08 59.07C95.3161 59.446 95.4414 59.881 95.4414 60.325C95.4414 60.769 95.3161 61.204 95.08 61.58C95.08 61.58 94.89 62.25 95.41 62.25H105.36" stroke="black" stroke-width="0.5" stroke-miterlimit="10"/>
<path d="M111.48 23.65C111.48 23.65 104.27 31.78 102.73 46.76" stroke="black" stroke-width="0.5" stroke-miterlimit="10" stroke-linecap="round" stroke-dasharray="1 2"/>
<path d="M96.26 55.39C96.26 55.39 99.14 48.89 105.07 47.48C105.07 47.48 106.4 48.25 106.52 49.1" stroke="black" stroke-width="0.5" stroke-miterlimit="10"/>
<path d="M107.67 48.29C107.138 47.4655 106.514 46.704 105.81 46.02C105.81 46.02 106.54 37.91 108.11 35.38" stroke="black" stroke-width="0.5" stroke-miterlimit="10"/>
<path d="M96.94 58.6H97.62C97.62 58.6 97.88 49.7 104.25 48.29C104.25 48.29 106.03 49.23 105.07 54.07C104.11 58.91 104.34 58.82 104.34 58.82H105.58" stroke="black" stroke-width="0.5" stroke-miterlimit="10" stroke-linecap="round" stroke-dasharray="1 2"/>
<path d="M95 61.58C95 61.58 94.36 61.83 93.72 65.95" stroke="black" stroke-width="0.5" stroke-miterlimit="10"/>
<path d="M95 59.07C95 59.07 93 58.89 92.3 62.25C91.9569 63.4744 91.7424 64.7312 91.66 66" stroke="black" stroke-width="0.5" stroke-miterlimit="10"/>
<path d="M106.68 55.39L106.52 58.93C106.52 58.93 107.32 58.93 107.38 59.53" stroke="black" stroke-width="0.5" stroke-miterlimit="10"/>
<path d="M249.41 118.53C249.41 118.53 245.32 113.32 240.56 112.18C235.8 111.04 236.49 111.63 232.95 110.99C229.41 110.35 199.75 101.57 198.27 100.99C196.79 100.41 192.09 97.91 189.93 97.68C187.77 97.45 178.72 96.87 177.03 97.78" stroke="black" stroke-width="0.5" stroke-miterlimit="10"/>
<path d="M246.62 117.41C244.691 115.402 242.282 113.919 239.62 113.1C234.86 111.96 235.54 112.54 232.01 111.91C228.48 111.28 198.81 102.49 197.32 101.91C195.83 101.33 191.14 98.82 188.98 98.6C185.625 98.2481 182.252 98.1078 178.88 98.18" stroke="black" stroke-width="0.5" stroke-miterlimit="10" stroke-linecap="round" stroke-dasharray="1 2"/>
<path d="M171.57 109.08C171.57 109.08 173.46 114.44 176.98 114.86C180.5 115.28 185.37 115.21 188.54 116.23C191.71 117.25 198.47 121.03 211.47 124.23C224.47 127.43 228.67 128.51 232.01 129.1C235.35 129.69 237.01 129.62 238.6 130.22C240.574 131.169 242.464 132.283 244.25 133.55C245.25 134.24 249.6 135.1 251.63 131.55" stroke="black" stroke-width="0.5" stroke-miterlimit="10"/>
<path d="M173 111.86C173 111.86 175.8 113.75 181.36 114.01C185.959 114.273 190.462 115.428 194.62 117.41C197.88 118.89 220.04 126.24 230.48 127.53C240.92 128.82 240.75 129.75 243.83 131.46C245.58 132.461 247.462 133.212 249.42 133.69" stroke="black" stroke-width="0.5" stroke-miterlimit="10" stroke-linecap="round" stroke-dasharray="1 2"/>
<path d="M186 100.17C186 100.17 186.59 99.52 187 99.92C187.41 100.32 187.68 102.83 187.22 106.49C186.88 108.743 186.307 110.955 185.51 113.09C184.189 113.309 182.848 113.386 181.51 113.32C179.8 113.32 173.43 112.4 172.51 111.21" stroke="black" stroke-width="0.5" stroke-miterlimit="10" stroke-linecap="round"/>
<path d="M194.78 102.48C194.78 102.48 193.78 101.31 193.5 101.69C193.22 102.07 193.5 105.06 193.25 108.15C192.9 112.21 191.75 114.48 192.35 114.95C195.269 116.678 198.367 118.083 201.59 119.14C201.59 119.14 212.25 122.4 222.8 125.14C233.35 127.88 236.6 127.14 237.06 125.14C237.52 123.14 237.84 114.26 237.84 114.26" stroke="black" stroke-width="0.5" stroke-miterlimit="10" stroke-linecap="round"/>
<path d="M264.07 155.02C264.274 155.02 264.44 154.599 264.44 154.08C264.44 153.561 264.274 153.14 264.07 153.14C263.866 153.14 263.7 153.561 263.7 154.08C263.7 154.599 263.866 155.02 264.07 155.02Z" stroke="black" stroke-width="0.25" stroke-miterlimit="10"/>
<path d="M107.32 65.24C109.505 65.121 111.695 65.121 113.88 65.24L115.63 68.94" stroke="black" stroke-width="0.5" stroke-miterlimit="10"/>
<path d="M105.07 71L102 65.85V65.45L105.19 65.31" stroke="black" stroke-width="0.5" stroke-miterlimit="10"/>
<path d="M144.13 19.54C144.13 19.54 153.28 26.47 154.82 36.74C155.746 42.8278 156.15 48.9834 156.03 55.14" stroke="black" stroke-width="0.5" stroke-linecap="round" stroke-linejoin="round"/>
<path d="M162.44 50.43C162.44 50.43 162.44 39.13 159.44 30.99" stroke="black" stroke-width="0.5" stroke-linecap="round" stroke-linejoin="round"/>
<path d="M161 50.43C161 50.43 161.81 29.29 148.18 18.43" stroke="black" stroke-width="0.5" stroke-linecap="round" stroke-linejoin="round"/>
<path d="M147.33 17.9C161 28.78 160 51.12 160 51.12" stroke="black" stroke-width="0.5" stroke-miterlimit="10" stroke-linecap="round" stroke-dasharray="1 2"/>
<path d="M152.9 64.77C153.216 64.5433 153.451 64.2207 153.57 63.85C153.66 63.35 153.33 58.39 155.3 56.08C157.27 53.77 160.41 50.23 161.97 50.22C163.53 50.21 163.59 50.57 163.59 50.57" stroke="black" stroke-width="0.5" stroke-linecap="round" stroke-linejoin="round"/>
<path d="M154.51 64.78C154.6 64.29 154.26 59.32 156.23 57.01C158.2 54.7 160.6 51.37 162.16 51.36C163.72 51.35 164.36 54.54 164.36 54.54" stroke="black" stroke-width="0.5" stroke-linecap="round" stroke-linejoin="round"/>
<path d="M156 64.7C156 64.7 156.25 53.51 160.93 53.34C160.93 53.34 164.3 52.96 163.18 58.77" stroke="black" stroke-width="0.5" stroke-miterlimit="10" stroke-linecap="round" stroke-dasharray="1 2"/>
<path d="M164.36 71.74H162.44L158.44 65.02C158.378 64.9108 158.288 64.8205 158.179 64.7589C158.069 64.6972 157.945 64.6665 157.82 64.67L120.7 65.41" stroke="black" stroke-width="0.5" stroke-miterlimit="10"/>
<path d="M164.13 64C165.67 64 167.35 64 168.2 64C168.449 63.9945 168.697 64.0405 168.927 64.1351C169.158 64.2298 169.367 64.371 169.54 64.55L171.54 66.55" stroke="black" stroke-width="0.5" stroke-miterlimit="10"/>
<path d="M157.48 64.67C157.519 64.4991 157.616 64.347 157.755 64.2394C157.893 64.1319 158.065 64.0756 158.24 64.08L162.49 64.03" stroke="black" stroke-width="0.5" stroke-miterlimit="10"/>
<path d="M243.57 116.27C243.57 116.27 241.81 128.75 242.65 129.53C244.02 130.79 247.65 133.98 250.39 133.07" stroke="black" stroke-width="0.5" stroke-miterlimit="10" stroke-linecap="round"/>
<path d="M165.31 58.56H164.45C163.913 58.5597 163.397 58.7681 163.01 59.1413C162.624 59.5145 162.398 60.0232 162.38 60.56L162.14 69.02C162.135 69.2006 162.166 69.3805 162.231 69.5489C162.296 69.7174 162.395 69.8709 162.521 70.0006C162.647 70.1302 162.798 70.2332 162.964 70.3035C163.13 70.3739 163.309 70.4101 163.49 70.41H164.18" stroke="black" stroke-width="0.5" stroke-miterlimit="10" stroke-linecap="round"/>
<path d="M164.82 60.38C164.627 60.5636 164.473 60.7837 164.367 61.0275C164.26 61.2714 164.204 61.534 164.2 61.8L163.99 68.6" stroke="black" stroke-width="0.5" stroke-miterlimit="10" stroke-linecap="round"/>
<path d="M176.46 69C176.11 69.82 175.69 70.43 174.74 70.43" stroke="black" stroke-width="0.5" stroke-miterlimit="10" stroke-linecap="round"/>
<path d="M176.46 58.56C176.46 58.56 177.35 58.46 177.46 59.16C177.558 60.3613 177.558 61.5687 177.46 62.77" stroke="black" stroke-width="0.5" stroke-miterlimit="10" stroke-linecap="round"/>
<path d="M175.82 60.38V61.64" stroke="black" stroke-width="0.5" stroke-miterlimit="10"/>
<path d="M168.88 64.08L171.11 60.87" stroke="black" stroke-width="0.5" stroke-miterlimit="10"/>
<path d="M170.96 64.44L173.44 60.87" stroke="black" stroke-width="0.5" stroke-miterlimit="10"/>
<path d="M174.48 60.87C174.48 60.87 183.26 66.03 190.48 70.42C196.14 73.88 199.48 76.07 200.71 77.18C200.883 77.3309 200.992 77.5415 201.016 77.7695C201.04 77.9976 200.977 78.2263 200.84 78.41L198.3 81.82C198.259 81.8776 198.207 81.9258 198.145 81.9611C198.084 81.9965 198.016 82.0183 197.946 82.0249C197.876 82.0315 197.805 82.0229 197.738 81.9996C197.672 81.9764 197.611 81.939 197.56 81.89C196.66 81.024 195.651 80.2779 194.56 79.67C192.45 78.47 174.38 67.76 174.38 67.76" stroke="black" stroke-width="0.5" stroke-miterlimit="10"/>
<path d="M173.44 61.41C173.44 61.41 198.44 75.34 200.81 78.41" stroke="black" stroke-width="0.25" stroke-miterlimit="10"/>
<path d="M171.11 64.44C171.11 64.44 196.11 78.36 198.48 81.44" stroke="black" stroke-width="0.25" stroke-miterlimit="10"/>
<path d="M177.53 60.38L196.38 70.42" stroke="black" stroke-width="0.5" stroke-miterlimit="10"/>
<path d="M175.79 65.57C176.039 65.57 176.24 65.3685 176.24 65.12C176.24 64.8715 176.039 64.67 175.79 64.67C175.541 64.67 175.34 64.8715 175.34 65.12C175.34 65.3685 175.541 65.57 175.79 65.57Z" stroke="black" stroke-width="0.25" stroke-miterlimit="10" stroke-linecap="round"/>
<path d="M182.2 69.24C182.449 69.24 182.65 69.0385 182.65 68.79C182.65 68.5415 182.449 68.34 182.2 68.34C181.951 68.34 181.75 68.5415 181.75 68.79C181.75 69.0385 181.951 69.24 182.2 69.24Z" stroke="black" stroke-width="0.25" stroke-miterlimit="10" stroke-linecap="round"/>
<path d="M193.65 72.4C201.3 64.66 210.02 71.4 210.02 71.4L235.23 92.05L223.4 108.44" stroke="black" stroke-width="0.5" stroke-miterlimit="10" stroke-linecap="round"/>
<path d="M208.64 104.2L195.06 93.2C193.007 91.5833 191.372 89.4985 190.29 87.12C189.545 85.5602 189.153 83.8552 189.143 82.1267C189.133 80.3982 189.504 78.6886 190.23 77.12" stroke="black" stroke-width="0.5" stroke-miterlimit="10" stroke-linecap="round"/>
<path d="M197.35 74.57C202.35 70.75 207.56 74.83 207.56 74.83L229.85 93.09" stroke="black" stroke-width="0.5" stroke-miterlimit="10" stroke-linecap="round"/>
<path d="M219.68 107.38L197.28 89.8C195.93 88.6245 194.817 87.2024 194 85.61C193.478 84.628 193.183 83.541 193.138 82.4296C193.093 81.3183 193.299 80.211 193.74 79.19" stroke="black" stroke-width="0.5" stroke-miterlimit="10" stroke-linecap="round"/>
<path d="M196.55 74.05C197.559 73.1679 198.758 72.5289 200.053 72.1822C201.348 71.8355 202.705 71.7903 204.02 72.05C205.861 72.4011 207.582 73.2169 209.02 74.42L230.95 92.42" stroke="black" stroke-width="0.5" stroke-miterlimit="10" stroke-linecap="round"/>
<path d="M217.21 106.73C211.67 102.52 199.8 93.46 196.75 90.8C195.028 89.3838 193.658 87.5865 192.75 85.55C192.301 84.4962 192.077 83.3599 192.095 82.2144C192.112 81.0689 192.369 79.9398 192.85 78.9" stroke="black" stroke-width="0.5" stroke-miterlimit="10" stroke-linecap="round"/>
<path d="M196.38 92.1L212.77 105.37" stroke="black" stroke-width="0.5" stroke-miterlimit="10" stroke-linecap="round" stroke-dasharray="1 2"/>
<path d="M210.02 73.41L233.21 92.1L222 107.78" stroke="black" stroke-width="0.5" stroke-miterlimit="10" stroke-linecap="round" stroke-dasharray="1 2"/>
<path d="M127.41 17.31C127.41 17.31 129.58 18.82 131.18 17.9C132.27 17.1476 133.131 16.1097 133.67 14.9" stroke="black" stroke-width="0.5" stroke-miterlimit="10"/>
<path d="M130.15 18.2C130.15 18.2 143.5 20.28 145.04 19.2C145.736 18.7777 146.357 18.2439 146.88 17.62" stroke="black" stroke-width="0.5" stroke-miterlimit="10"/>
<path d="M131.29 18.41C131.29 18.41 134.09 16.68 134.6 14.77" stroke="black" stroke-width="0.25" stroke-miterlimit="10"/>
<path d="M146.35 17.32C145.74 18.1791 144.989 18.9295 144.13 19.54" stroke="black" stroke-width="0.25" stroke-miterlimit="10"/>
<path d="M127.41 10.06C127.41 10.06 129.11 5.42 131.29 5.76C131.944 5.90451 132.542 6.23402 133.014 6.7092C133.485 7.18439 133.81 7.78521 133.95 8.44001" stroke="black" stroke-width="0.5" stroke-miterlimit="10"/>
<path d="M131.29 5.53L133.47 5.50999" stroke="black" stroke-width="0.5" stroke-miterlimit="10"/>
<path d="M142.69 14C141.171 13.8739 139.671 13.5754 138.22 13.11C137.456 12.86 136.746 12.4663 136.13 11.95C135.97 11.7948 135.866 11.5904 135.835 11.3693C135.804 11.1482 135.848 10.9231 135.96 10.73C137.022 8.72658 137.266 6.38944 136.64 4.21001C136.196 3.69196 135.569 3.36584 134.89 3.3" stroke="black" stroke-width="0.5" stroke-miterlimit="10"/>
<path d="M135.68 2.28C141.48 2.63 149.18 3.45 150.46 4.52C152.26 6.02 151.1 13.12 148.58 13.8C147.185 14.1015 145.753 14.1992 144.33 14.09" stroke="black" stroke-width="0.5" stroke-miterlimit="10"/>
<path d="M132.89 3.16C131.974 3.21985 131.055 3.17287 130.15 3.02C129.94 2.95 129.93 2.13 130.15 2.12C130.9 2.12 132 2.12 133.32 2.12" stroke="black" stroke-width="0.5" stroke-miterlimit="10"/>
<path d="M135.3 2.8C136.36 3.12 137.17 3.66 137.24 4.58C137.438 6.37894 137.141 8.19779 136.38 9.84" stroke="black" stroke-width="0.25" stroke-miterlimit="10"/>
<path d="M130 2.46C131.045 2.383 132.095 2.383 133.14 2.46" stroke="black" stroke-width="0.25" stroke-miterlimit="10"/>
<path d="M150.9 5.11C150.9 5.11 150.67 1.9 144.13 1.31C137.59 0.719997 132.94 0.109999 132.95 3.75C132.96 7.39 137 7 137 7" stroke="black" stroke-width="0.5" stroke-miterlimit="10"/>
<path d="M136.82 5L135.08 4.78" stroke="black" stroke-width="0.5" stroke-miterlimit="10"/>
<path d="M136 5.74001C136 5.74001 135.14 5.65001 134.93 3.94001C134.72 2.23001 137.02 1.35001 140.7 1.74001C146.92 2.39001 148.49 3.74001 148.49 3.74001" stroke="black" stroke-width="0.5" stroke-miterlimit="10"/>
<path d="M142.6 14.46L136.88 13.97C136.524 13.94 136.191 13.7775 135.949 13.5147C135.706 13.2518 135.571 12.9076 135.57 12.55V9.47C135.565 9.27887 135.598 9.08862 135.667 8.91048C135.737 8.73234 135.841 8.56993 135.974 8.43288C136.108 8.29582 136.267 8.1869 136.443 8.11255C136.62 8.0382 136.809 7.99993 137 8V8" stroke="black" stroke-width="0.5" stroke-miterlimit="10"/>
<path d="M150.28 12.41V13.56C150.281 13.7579 150.24 13.9539 150.161 14.1352C150.082 14.3165 149.965 14.4793 149.819 14.613C149.673 14.7467 149.501 14.8484 149.313 14.9116C149.126 14.9748 148.927 14.9981 148.73 14.98L144.21 14.6" stroke="black" stroke-width="0.5" stroke-miterlimit="10"/>
<path d="M143.79 16.19L150.04 16.77C150.236 16.7852 150.432 16.7597 150.617 16.6952C150.802 16.6307 150.972 16.5285 151.116 16.3951C151.26 16.2617 151.374 16.0999 151.452 15.9201C151.531 15.7402 151.571 15.5461 151.57 15.35C151.57 15.35 151.73 12.81 151.7 10.78C151.7 9.58 151.09 9.78 151.09 9.78" stroke="black" stroke-width="0.5" stroke-miterlimit="10"/>
<path d="M137 7H135.66C135.281 7 134.917 7.15066 134.649 7.41884C134.381 7.68702 134.23 8.05073 134.23 8.42999V14.24C134.229 14.601 134.364 14.9489 134.609 15.2142C134.854 15.4794 135.19 15.6422 135.55 15.67L142.46 16.1" stroke="black" stroke-width="0.5" stroke-miterlimit="10"/>
<path d="M143.06 11.45L142.49 16.11C142.49 16.11 142.59 16.45 143.26 16.53C143.373 16.5575 143.49 16.5602 143.604 16.5377C143.718 16.5153 143.826 16.4683 143.92 16.4L144.5 11.62C144.464 11.4861 144.392 11.3648 144.291 11.2695C144.191 11.1741 144.066 11.1086 143.93 11.08C143.764 11.0396 143.59 11.0538 143.434 11.1205C143.277 11.1872 143.146 11.3028 143.06 11.45V11.45Z" stroke="black" stroke-width="0.5" stroke-miterlimit="10"/>
<path d="M144.33 7.45C144.844 7.45 145.26 7.06945 145.26 6.60001C145.26 6.13056 144.844 5.75 144.33 5.75C143.816 5.75 143.4 6.13056 143.4 6.60001C143.4 7.06945 143.816 7.45 144.33 7.45Z" stroke="black" stroke-width="0.5" stroke-miterlimit="10"/>
<path d="M130.89 65.3C130.89 65.3 130.89 62.64 129.07 62.71C128.452 62.7984 127.862 63.0238 127.343 63.3699C126.824 63.716 126.389 64.1739 126.07 64.71H115.88C115.543 64.708 115.211 64.7858 114.91 64.937C114.61 65.0883 114.349 65.3086 114.15 65.58" stroke="black" stroke-width="0.5" stroke-miterlimit="10"/>
<path d="M127.19 65.28C127.19 65.28 127.98 63.69 128.9 63.69C129.82 63.69 130.21 65.28 130.21 65.28" stroke="black" stroke-width="0.5" stroke-miterlimit="10"/>
<path d="M130.89 65.3C130.89 65.3 130.89 62.64 132.72 62.71C133.209 62.7257 133.677 62.9124 134.042 63.2377C134.408 63.563 134.648 64.0061 134.72 64.49L146.72 64.05C147.057 64.048 147.389 64.1258 147.69 64.277C147.99 64.4283 148.251 64.6486 148.45 64.92" stroke="black" stroke-width="0.5" stroke-miterlimit="10"/>
<path d="M133.9 65.15C133.9 65.15 133.8 63.69 132.9 63.69C132 63.69 131.59 65.28 131.59 65.28" stroke="black" stroke-width="0.5" stroke-miterlimit="10"/>
<path d="M189.06 136.21L193.82 135.98L193.6 138.29H193.67C193.88 138.02 194.07 137.72 194.3 137.48C195.28 136.315 196.588 135.47 198.053 135.055C199.518 134.639 201.074 134.673 202.52 135.15C203.275 135.41 203.969 135.821 204.56 136.357C205.151 136.894 205.627 137.544 205.96 138.27C205.96 138.34 206.03 138.41 206.07 138.49H206.12C206.17 138.41 206.23 138.34 206.29 138.26C207.665 136.2 209.795 134.764 212.22 134.26C213.712 133.908 215.279 134.066 216.67 134.71C217.366 135.075 217.973 135.59 218.447 136.218C218.92 136.846 219.249 137.57 219.41 138.34C219.8 139.792 219.939 141.301 219.82 142.8C219.59 145.93 219.29 149.07 219.01 152.22C218.79 154.78 218.55 157.34 218.32 159.91C218.32 160.23 218.27 160.55 218.22 160.91C218.22 161 218.1 161.13 218.02 161.13C215.88 161.27 213.72 161.39 211.57 161.51H211.48C211.48 161.03 211.56 160.51 211.61 160.05C211.89 157.05 212.18 154.1 212.46 151.13C212.62 149.41 212.79 147.69 212.93 145.96C213.079 144.76 213.031 143.544 212.79 142.36C212.765 142.036 212.669 141.721 212.51 141.438C212.351 141.154 212.132 140.909 211.868 140.719C211.605 140.528 211.303 140.398 210.984 140.336C210.664 140.274 210.336 140.282 210.02 140.36C209.435 140.48 208.889 140.741 208.429 141.121C207.968 141.501 207.608 141.988 207.38 142.54C206.788 143.762 206.416 145.079 206.28 146.43C206.04 148.37 205.85 150.31 205.66 152.25C205.42 154.67 205.19 157.1 204.96 159.52C204.88 160.31 204.8 161.09 204.73 161.91L197.92 162.3C197.96 161.86 198 161.43 198.04 161.01C198.36 157.677 198.693 154.373 199.04 151.1C199.19 149.55 199.36 148 199.5 146.45C199.641 145.3 199.59 144.134 199.35 143C199.319 142.671 199.216 142.352 199.05 142.066C198.883 141.78 198.657 141.533 198.386 141.343C198.115 141.153 197.806 141.024 197.481 140.965C197.155 140.906 196.82 140.918 196.5 141C195.898 141.116 195.335 141.381 194.861 141.77C194.388 142.16 194.02 142.662 193.79 143.23C193.207 144.468 192.845 145.798 192.72 147.16C192.43 149.74 192.18 152.34 191.91 154.93C191.64 157.52 191.41 159.93 191.14 162.45C191.14 162.53 191.01 162.67 190.94 162.67H190.75" stroke="black" stroke-width="0.5" stroke-miterlimit="10" stroke-linecap="round"/>
<path d="M121.4 147.8C121.164 148.103 120.947 148.42 120.75 148.75C119.993 149.873 119.508 151.158 119.335 152.502C119.161 153.845 119.303 155.211 119.75 156.49C120.108 157.672 120.911 158.669 121.99 159.27M122.18 166.14C121.621 165.966 121.084 165.728 120.58 165.43C119.78 164.945 119.097 164.289 118.58 163.51C117.833 169.103 117.083 174.723 116.33 180.37L108.81 180.85C108.863 180.437 108.913 180.037 108.96 179.65C109.573 175.25 110.183 170.863 110.79 166.49C111.457 161.51 112.143 156.543 112.85 151.59C113.38 147.7 113.92 143.83 114.44 139.96C114.44 139.8 114.51 139.7 114.69 139.69L120.83 139.41L122.18 166.14ZM132.63 138.64C133.961 139.116 135.162 139.895 136.139 140.915C137.116 141.936 137.842 143.17 138.26 144.52C139.192 147.262 139.331 150.212 138.66 153.03C137.99 156.339 136.447 159.409 134.19 161.92C134.04 162.09 133.88 162.26 133.72 162.42L132.63 138.64Z" stroke="black" stroke-width="0.5" stroke-miterlimit="10" stroke-linecap="round"/>
<path d="M62.83 157.6C63.11 158.37 63.33 159.17 63.66 159.89C64.1934 161.232 65.2153 162.321 66.52 162.94C67.3717 163.354 68.3302 163.497 69.2657 163.349C70.2012 163.2 71.0685 162.768 71.75 162.11C72.5508 161.399 73.2007 160.534 73.6611 159.567C74.1214 158.6 74.3829 157.55 74.43 156.48C74.5331 155.66 74.4063 154.827 74.0638 154.075C73.7212 153.323 73.1764 152.681 72.49 152.22C71.49 151.5 69.21 151.22 68.1 150.71C66.3677 150.055 64.7659 149.097 63.37 147.88C62.5704 147.141 61.9327 146.243 61.4972 145.245C61.0618 144.247 60.838 143.169 60.84 142.08C60.7184 138.205 61.9844 134.414 64.41 131.39C66.6793 128.848 69.7166 127.117 73.06 126.46C75.2728 126.039 77.561 126.289 79.63 127.18C81.1679 127.751 82.5416 128.692 83.63 129.92C84.1 130.45 84.1 130.45 83.63 131.05L80.1 136.05L79.92 136.31L79.54 135.69C77.12 131.77 72.08 132.55 70.17 136.51C69.6457 137.492 69.5238 138.64 69.83 139.71C70.0773 140.524 70.6241 141.214 71.36 141.64C72.46 142.28 73.6 142.86 74.74 143.43C76.0462 144.017 77.3006 144.713 78.49 145.51C79.7084 146.392 80.6814 147.57 81.3167 148.934C81.952 150.297 82.2285 151.8 82.12 153.3C82.1435 157.715 80.6937 162.012 78 165.51C76.1526 167.882 73.5774 169.583 70.67 170.35C68.8359 170.879 66.9011 170.958 65.03 170.58C63.6746 170.249 62.4057 169.631 61.3088 168.768C60.2118 167.906 59.3121 166.819 58.67 165.58C58.24 164.86 57.91 164.07 57.54 163.31C57.5161 163.28 57.4984 163.245 57.488 163.208C57.4775 163.171 57.4746 163.133 57.4792 163.095C57.4839 163.056 57.4961 163.02 57.5151 162.986C57.5341 162.953 57.5596 162.923 57.59 162.9L62.8 157.65L62.83 157.6Z" stroke="black" stroke-width="0.5" stroke-miterlimit="10" stroke-linecap="round"/>
<path d="M86.82 141.07L94.58 140.7C94.52 141.13 94.47 141.54 94.41 141.94C93.82 146.06 93.22 150.19 92.64 154.34C92.45 155.67 92.32 157.01 92.22 158.34C92.1614 159.122 92.2775 159.908 92.56 160.64C92.7377 161.161 93.0707 161.614 93.5142 161.939C93.9576 162.265 94.4901 162.447 95.04 162.46C97.52 162.65 99.31 161.46 100.32 158.93C100.827 157.525 101.163 156.065 101.32 154.58L102.49 146.25C102.76 144.34 103.04 142.44 103.3 140.54C103.3 140.33 103.39 140.25 103.59 140.24L110.76 139.9H111.02C110.91 140.65 110.81 141.38 110.71 142.12C110.35 144.73 110 147.35 109.61 149.98C109.22 152.61 108.86 155.46 108.34 158.19C107.896 160.618 106.805 162.881 105.18 164.74C103.736 166.395 101.87 167.625 99.78 168.3C96.55 169.444 93.0543 169.611 89.73 168.78C88.2725 168.435 86.9615 167.638 85.9844 166.503C85.0073 165.368 84.4143 163.953 84.29 162.46C84.0584 160.545 84.1225 158.606 84.48 156.71C84.88 154.06 85.26 151.42 85.65 148.78C86.04 146.14 86.4 143.78 86.78 141.23C86.79 141.21 86.8 141.16 86.82 141.07Z" stroke="black" stroke-width="0.5" stroke-miterlimit="10" stroke-linecap="round"/>
<path d="M143.36 138.38L150.81 138.02L150.46 140.85C153.13 137.49 156.3 136.02 160.38 137.32C159.79 139.75 159.22 142.13 158.65 144.52C158.6 144.52 158.57 144.52 158.55 144.52C157.898 144.139 157.177 143.891 156.428 143.792C155.679 143.694 154.918 143.745 154.19 143.945C153.461 144.144 152.78 144.487 152.186 144.953C151.592 145.42 151.097 146 150.73 146.66C149.952 147.994 149.446 149.469 149.24 151C148.9 153.25 148.62 155.52 148.33 157.79C148.02 160.21 147.73 162.63 147.42 165.05C147.42 165.15 147.28 165.3 147.2 165.3L139.99 165.73H139.87C141.043 156.577 142.207 147.46 143.36 138.38Z" stroke="black" stroke-width="0.5" stroke-miterlimit="10" stroke-linecap="round"/>
<path d="M243.79 139.48C243.422 138.1 242.707 136.837 241.713 135.811C240.718 134.785 239.478 134.031 238.11 133.62C236.281 133.102 234.354 133.027 232.49 133.4C230.798 133.684 229.183 134.315 227.747 135.255C226.312 136.195 225.087 137.422 224.15 138.86C222.618 141.172 221.617 143.795 221.22 146.54C220.739 149.037 220.825 151.61 221.47 154.07C221.835 155.689 222.635 157.177 223.784 158.374C224.933 159.57 226.387 160.43 227.99 160.86C230.037 161.412 232.193 161.412 234.24 160.86C236.349 160.333 238.302 159.313 239.94 157.884C241.578 156.455 242.853 154.658 243.66 152.64L243.78 152.33L243.68 152.28L237.68 151.55C237.631 151.554 237.583 151.568 237.54 151.592C237.496 151.617 237.459 151.65 237.43 151.69C237.22 152 237.05 152.34 236.84 152.64C236.368 153.456 235.695 154.138 234.884 154.619C234.073 155.101 233.153 155.366 232.21 155.39C231.526 155.427 230.848 155.247 230.273 154.875C229.699 154.503 229.256 153.959 229.01 153.32C228.732 152.632 228.534 151.914 228.42 151.18C228.3 150.317 228.3 149.442 228.42 148.58H228.8L236.74 148.16L244.1 147.77C244.3 147.77 244.41 147.77 244.42 147.45C244.42 146.59 244.56 145.73 244.58 144.87C244.618 143.042 244.351 141.22 243.79 139.48V139.48ZM229 143.86C229.16 143.37 229.28 142.86 229.46 142.45C229.966 140.946 231.014 139.684 232.4 138.91C232.901 138.62 233.463 138.451 234.041 138.416C234.619 138.381 235.198 138.482 235.73 138.71C236.275 138.975 236.752 139.36 237.126 139.836C237.501 140.313 237.762 140.868 237.89 141.46C238.07 142.07 238.14 142.71 238.27 143.39L229 143.86Z" stroke="black" stroke-width="0.5" stroke-miterlimit="10" stroke-linecap="round"/>
<path d="M178.23 137.48C177.546 137.042 176.801 136.705 176.02 136.48C174.27 136.014 172.436 135.956 170.66 136.31C168.831 136.633 167.095 137.35 165.572 138.412C164.049 139.474 162.775 140.856 161.84 142.46C160.437 144.767 159.505 147.33 159.1 150C158.62 152.514 158.681 155.102 159.28 157.59C160.2 161.02 162.18 163.34 165.28 164.37C167.28 165.008 169.416 165.091 171.46 164.61C174.75 163.916 177.657 162.005 179.6 159.26L178.23 137.48ZM179.44 155.48C178.26 155.33 177.07 155.19 175.89 155.01C175.691 154.949 175.476 154.967 175.29 155.06C175.104 155.153 174.96 155.314 174.89 155.51C174.491 156.344 173.907 157.076 173.182 157.651C172.458 158.227 171.613 158.63 170.71 158.83C170.261 158.945 169.792 158.969 169.334 158.899C168.875 158.83 168.435 158.668 168.04 158.425C167.645 158.181 167.303 157.86 167.035 157.481C166.767 157.102 166.578 156.674 166.48 156.22C166.112 154.893 165.997 153.509 166.14 152.14C166.14 152.05 166.27 151.96 166.36 151.91C166.445 151.889 166.535 151.889 166.62 151.91L179.18 151.24L179.44 155.48ZM167 147.08C167.162 146.348 167.414 145.64 167.75 144.97C168.36 143.526 169.508 142.375 170.95 141.76C171.68 141.428 172.504 141.367 173.276 141.586C174.047 141.806 174.715 142.293 175.16 142.96C175.656 143.697 175.974 144.539 176.09 145.42C176.09 145.8 176.17 146.19 176.21 146.6L167 147.08Z" stroke="black" stroke-width="0.5" stroke-miterlimit="10" stroke-linecap="round"/>
<path d="M241.87 164.36V164L243.64 163.85V164.27H243.44C243.416 164.268 243.392 164.273 243.37 164.284C243.348 164.295 243.33 164.312 243.318 164.333C243.305 164.353 243.299 164.377 243.299 164.402C243.3 164.426 243.307 164.45 243.32 164.47C243.59 165.17 243.87 165.86 244.14 166.57C244.14 166.57 244.14 166.57 244.14 166.52L244.56 165.29C244.56 165.12 244.56 165.03 244.39 165.03H244.22C244.27 164.88 244.31 164.73 244.36 164.6C244.368 164.596 244.376 164.593 244.385 164.593C244.394 164.593 244.402 164.596 244.41 164.6L246.33 164.46C246.28 164.61 246.24 164.76 246.18 164.91C246.12 165.06 246.18 164.91 246.13 164.91H245.84C245.737 164.927 245.641 164.974 245.565 165.045C245.488 165.116 245.434 165.208 245.41 165.31L244.93 166.7C244.81 167.03 244.7 167.36 244.58 167.7C244.57 167.733 244.57 167.767 244.58 167.8C244.73 168.19 244.88 168.58 245.04 168.98V168.93C245.62 167.403 246.21 165.87 246.81 164.33C246.832 164.287 246.842 164.238 246.838 164.19C246.835 164.141 246.819 164.095 246.791 164.055C246.763 164.015 246.725 163.983 246.681 163.963C246.637 163.943 246.588 163.935 246.54 163.94H246.38V163.51L248.03 163.37V163.79H248C247.872 163.796 247.748 163.841 247.645 163.917C247.542 163.994 247.463 164.099 247.42 164.22C247.25 164.62 247.1 165.01 246.94 165.41C246.36 166.85 245.787 168.29 245.22 169.73C245.213 169.761 245.195 169.788 245.169 169.806C245.143 169.825 245.111 169.833 245.08 169.83C244.9 169.82 244.72 169.82 244.54 169.83C244.49 169.83 244.47 169.83 244.45 169.76L244.2 169.06V169L243.78 170.15H243.87H246.46C246.555 170.164 246.653 170.157 246.746 170.131C246.839 170.106 246.925 170.061 247 170C247.114 169.869 247.218 169.728 247.31 169.58C247.44 169.37 247.55 169.14 247.66 168.92C247.66 168.92 247.71 168.85 247.77 168.85H248.13V168.93C247.88 169.5 247.64 170.06 247.39 170.62C247.39 170.62 247.39 170.68 247.31 170.68L241.89 170.74C241.94 170.6 241.98 170.47 242.02 170.34C242.029 170.336 242.04 170.333 242.05 170.333C242.06 170.333 242.071 170.336 242.08 170.34H242.49C242.621 170.339 242.749 170.301 242.86 170.23C242.989 170.15 243.085 170.025 243.13 169.88L243.76 168.02C243.77 167.998 243.775 167.974 243.775 167.95C243.775 167.926 243.77 167.902 243.76 167.88L242.58 164.81C242.551 164.723 242.507 164.642 242.45 164.57C242.409 164.518 242.355 164.477 242.294 164.451C242.233 164.424 242.166 164.414 242.1 164.42L241.87 164.36Z" stroke="black" stroke-width="0.25" stroke-miterlimit="10" stroke-linecap="round"/>
</svg>
