<svg xmlns="http://www.w3.org/2000/svg" viewBox="0 0 400 500"><defs><style>.cls-1,.cls-2,.cls-3,.cls-4,.cls-5,.cls-6{fill:none;stroke:#000;}.cls-1,.cls-2,.cls-4,.cls-5,.cls-6{stroke-miterlimit:10;}.cls-1,.cls-2,.cls-3,.cls-5{stroke-width:0.5px;}.cls-2,.cls-3,.cls-5,.cls-6{stroke-linecap:round;}.cls-2{stroke-dasharray:1 2;}.cls-3{stroke-linejoin:round;}.cls-4,.cls-6{stroke-width:0.25px;}</style></defs><g id="Layer_3" data-name="Layer 3"><path class="cls-1" d="M76.25,216.21c-.23.45-.45.91-.67,1.39"/><path class="cls-1" d="M85.62,208.19a3.42,3.42,0,0,0-1.51-.36c-1.69,0-3.58,1.5-5.5,4.28"/><path class="cls-1" d="M74.53,220c-4.19,10.24-7.82,26.29-8.79,45.65l-.58,59.68s-1,17.68,7.77,23.33c8.48,5.49,12,8.9,16.43,10.61s11.29,1.54,11.8-10.78,1.37-61.27,1.37-67.95-1.19-26.7-4.27-39.19c-1.93-7.81-4.35-19-7.53-26.22"/><path class="cls-2" d="M92.44,359.66c4.39,1.23,10.2.16,10.67-11.15.51-12.33,1.37-61.27,1.37-67.95s-1.2-26.7-4.28-39.19c-2-8.09-4.52-19.78-7.88-27"/><path class="cls-1" d="M77.27,217.38c-.34.63-.69,1.3-1,2"/><path class="cls-1" d="M86.82,213a4.36,4.36,0,0,0-3.22-1.87c-1.15,0-2.41.79-3.7,2.28"/><path class="cls-1" d="M74.93,222.42c-4,9.81-7.39,25.42-8.3,44.3l-.54,57.34s-.89,17,7.18,22.41c7.85,5.27,11.18,8.31,15.19,10.19,6.52,3,10.44,1.48,10.91-10.36s1.27-58.86,1.27-65.27-1.11-25.65-4-37.65c-2.08-8.78-4.78-22-8.52-28.4"/><path class="cls-1" d="M96.14,280.56c-3.35.9-10.72-2.51-16.2-4.9S69.79,270.24,69.79,269s1.51-1.26,1.82-1.06-.69.67-.48,1,2.35,2.23,10.61,5.65c7.1,2.94,11.58,4.94,13.61,5.17a.89.89,0,0,1,.79.9V334c0,4.67.12,18.25-7.18,14.26a154.47,154.47,0,0,1-16-10.61s-4.79-3.77-4.9-13.47S70,269.44,70,269.44"/><path class="cls-1" d="M96.14,280.64s-.62,54.69-.79,57.68-.52,10.58-4.2,10.68"/><path class="cls-2" d="M95.09,280.64s-.43,55.37-.6,58.28-.17,11.72-7.19,7-15.88-10-15.88-10"/><path class="cls-1" d="M175.56,353.69c-43.5,3.75-79.09,6.68-81.91,6.36"/><path class="cls-1" d="M233.41,348.61c-14.83,1.31-31.53,2.89-46.48,4.19"/><path class="cls-1" d="M326.56,275.73c.59,24.15-.34,49.59-.34,49.59s.68,15.48-8.65,16c-3.4.18-34.84,3.08-72.1,6.39"/><path class="cls-1" d="M248.63,203c27-.51,46.44-.79,46.44-.79s8.81.51,11.12,2.82,15.23,17.37,18.57,42.28c.65,4.87,1.11,10.45,1.41,16.88"/><path class="cls-1" d="M178.18,204.54l4.49-.09"/><path class="cls-1" d="M122.77,205.63c12.87-.25,25.9-.43,43.21-.78"/><path class="cls-1" d="M97.11,206.08c1.17,0,2.25,0,4-.07"/><path class="cls-1" d="M84.11,207.83a12.45,12.45,0,0,1,4.37-1.51"/><path class="cls-2" d="M324.37,274.53c.63,24.38-.32,50.79-.32,50.79s.69,15.48-8.64,16"/><path class="cls-2" d="M304,205c2.31,2.31,15.23,17.37,18.57,42.28.6,4.45,1,9.81,1.33,15.61"/><path class="cls-1" d="M173,219.75c-.51-1.62-.89-2.78-1.08-3.37a2.65,2.65,0,0,1-.13-.93c.06-1.78.22-7.95-.7-6.62"/><path class="cls-1" d="M189.3,235.23a225.07,225.07,0,0,1,6.22,30.44c3,25.67,2.68,62.75,1,73.25-2.16,13.22-12.26,14.77-12.26,14.77s-6,.61-8.67,0c0,0,8-2.22,9.58-13.29,2.12-15,1.25-51.34-1.6-74.73a247.12,247.12,0,0,0-7-33.71"/><path class="cls-1" d="M171.28,208.24l10.78-.3c1.71-.33.57,5.25.57,5.25s1.24,3.57,3,9.22"/><path class="cls-2" d="M188,234.85c2.69,10.66,5.48,23.42,6.51,33.9,2.43,24.7,2.61,59.5,1.24,69.6-1.73,12.72-10.32,15.08-10.32,15.08"/><path class="cls-2" d="M174.67,219.85c-.8-2.67-1.4-4.6-1.69-5.51a.58.58,0,0,1,.43-.74l2.43-.5a12.2,12.2,0,0,1,3.57-.2l2.15.2a.58.58,0,0,1,.5.4c.32,1,1.28,4.19,2.54,8.66"/><path class="cls-2" d="M178.47,353.43s7.07-4.75,7.7-12.78c2.18-27.75,1.08-47.65-1-71.95-1-11.67-4.16-25.6-7-36.53"/><path class="cls-1" d="M234.05,234.83c-3.05-11.24-5.9-20.67-5.9-20.67s.23-5.29-.25-7"/><path class="cls-1" d="M249.79,254.63c.82,3.94,1.47,7.5,2,11,4.16,27.39,2.76,48.1,2.54,58.7a43.35,43.35,0,0,1-4.53,19,10.11,10.11,0,0,1-7.89,5.47,32.64,32.64,0,0,1-9.08-.11s7.68-.41,9.77-12.76c2.19-12.93,1.59-45.3-1.54-70.26-.42-3.35-1.3-7.78-2.41-12.64"/><path class="cls-1" d="M227.81,205.52h9.07c2.4-.43,1.8,5.82,1.8,5.82s3.52,11.32,7,24.84"/><path class="cls-2" d="M249,254.65c.81,3.8,1.52,7.45,2.05,10.77,3.94,24.48,3.42,59.53,1.28,69.48-2.51,11.67-8.31,12.81-8.31,12.81"/><path class="cls-2" d="M235.76,235.29c-3.06-11.38-6.14-20.9-6.82-23.29a.59.59,0,0,1,.39-.74l2.17-.5a9.84,9.84,0,0,1,3.2-.2l1.93.2c.21,0,1.13.27,1.19.49.56,2,3.62,12.63,6.76,24.93"/><path class="cls-2" d="M236.58,348.36s6.8-4.39,7.75-16.35c1.95-24.8.36-41.59-2.24-66-.41-3.8-1.09-7.95-1.93-12.21"/><ellipse class="cls-1" cx="178.82" cy="217.2" rx="2.1" ry="1.84"/><ellipse class="cls-1" cx="234.78" cy="214.77" rx="1.9" ry="1.66"/><path class="cls-2" d="M249.89,203.66c25.8-.57,46.33-.94,50.76-.78"/><path class="cls-2" d="M184.71,205.24l37.79-.94"/><path class="cls-2" d="M126.94,206.75s15.05-.47,39.39-1.1"/><path class="cls-2" d="M252.2,204.86c9-.3,17.57-.4,24.1,0,19.05,1.07,28.26-.83,28.26-.83"/><path class="cls-2" d="M184.6,207.09c10-.14,18.48-.26,22.56-.29,3.88,0,10-.29,16.69-.63"/><path class="cls-2" d="M130.6,207.93s17.64-.29,37.05-.58"/><path class="cls-1" d="M183.46,199.75a1.45,1.45,0,0,1,1.25,1.49l-.43,9.09a1.43,1.43,0,0,1-1.41,1.37h0"/><path class="cls-1" d="M171.79,212.1h-1.28a1.43,1.43,0,0,1-1.43-1.49l.32-9.14a1.44,1.44,0,0,1,1.4-1.38l1.54-.05"/><path class="cls-1" d="M172.42,201.53a1.1,1.1,0,0,0-1.06,1.05l-.17,7.27h.68"/><path class="cls-1" d="M182.59,208l.39-5.59a1.12,1.12,0,0,0-.21-.7"/><path class="cls-1" d="M171.67,187.29a3,3,0,0,0-1.82,3.37,66.83,66.83,0,0,0,2.17,8.21s.65,2.91,0,3.31l10.88-.36s1.9-2.44-.67-4c0,0-.77-6.1-3.41-8.33"/><line class="cls-1" x1="171.38" y1="200.07" x2="171.55" y2="197.37"/><path class="cls-3" d="M198.12,147.54c-5.84.51-11.65,3-17.91,8.62-9.81,8.79-8.66,28.69-8.66,28.69a42.31,42.31,0,0,0,.47,6c.32,1.26,1.77,5.6,2.22,6.93a.29.29,0,0,1-.28.38h-1.22"/><path class="cls-3" d="M208.13,155.09a28.28,28.28,0,0,1,4.81,2.88c14.21,10.12,16.75,29.14,18.45,37.64a.29.29,0,0,1-.29.35h-1.69s-.87-.11-1,1.3c.13-.73.81-.94.86.3a3.88,3.88,0,0,1-.5,1.87.3.3,0,0,0,.26.44h10.15a.3.3,0,0,0,.2-.08,2.31,2.31,0,0,0,0-3.84.28.28,0,0,0-.18-.06h-1.34a.3.3,0,0,1-.3-.26c-.27-2.27-2.39-19-7.38-28-4.08-7.29-9.22-13.4-15.61-16.85"/><path class="cls-3" d="M182.23,197.84h-1.6a.29.29,0,0,1-.29-.21,46.82,46.82,0,0,1-1.48-9.26c-.34-5.53-1.59-16.25,3.37-23.33,3.14-4.47,8.83-10.23,16.25-11.25"/><path class="cls-1" d="M239.33,195.89s.33-5.1-3-8.46"/><path class="cls-1" d="M229,184.17s-2,1-1.5,4.62a71.53,71.53,0,0,0,1.5,7.29"/><path class="cls-1" d="M83.35,220.17c2.8,2.06.24,6.94.24,6.94s.23,1.25,1.77,15-1.25,18.2-1.25,18.2a28.72,28.72,0,0,1-2.91-11.07A108.32,108.32,0,0,0,78.92,233a40.06,40.06,0,0,1-.86-6.56,23.12,23.12,0,0,1-2.62-2.68c-.68-1-1.38-3.45,0-4.51h5.82"/><path class="cls-2" d="M82.06,227.17s.9,2.2,2.33,13.56c1.73,13.7-.44,17.56-.44,17.56a36.09,36.09,0,0,1-2.35-11.17,97.94,97.94,0,0,0-2.34-15.5,25.82,25.82,0,0,1-.59-5.05"/><path class="cls-1" d="M81.65,220a3.53,3.53,0,0,0-1.08,2.29,7,7,0,0,0,2.28,4.85s2.58,14.08,2.77,17.62"/><line class="cls-1" x1="78.06" y1="226.48" x2="82.85" y2="227.17"/><ellipse class="cls-1" cx="80.22" cy="230.8" rx="0.83" ry="2.18" transform="translate(-32.75 14.14) rotate(-8.37)"/><path class="cls-1" d="M76.39,219.46a12.51,12.51,0,0,1-1.92-6.07c-.35-3.68,2-1.74,4.54,1.6a18.48,18.48,0,0,1,3.29,8.84c.06.57.68.65,1.12.47s.45-.62.41-1.09c-.24-2.78-.7-5.32-4.18-10-3.09-4.11-7.49-6.29-7.07.09A13.25,13.25,0,0,0,74.65,220"/><path class="cls-1" d="M94.21,206.09s-.35-1.8-1.26-1.86-4.62,1.86-4.62,1.86L88,214.68s1.43,1.3,2.35.87,3.13-1.33,3.42-2.05a15.74,15.74,0,0,0,.46-2.76"/><path class="cls-1" d="M93,205l-.3,4.24a4.25,4.25,0,0,1-1.79,3.21,8.36,8.36,0,0,1-2.88,1.2"/><path class="cls-1" d="M78.22,211.61c.21-.19.43-.37.65-.54A13.62,13.62,0,0,1,82,209.33l6.37-2.57"/><path class="cls-1" d="M80.75,218l-.18.07s-3.92.87-4.32-2.5a3.83,3.83,0,0,1,.88-2.78"/><line class="cls-1" x1="88.36" y1="214.98" x2="82.21" y2="217.4"/><path class="cls-1" d="M79.47,213A6.1,6.1,0,0,1,81,211.85a11.63,11.63,0,0,1,2.42-1l5-1.51"/><path class="cls-1" d="M88.07,212.66l-6.21,2.65a3.74,3.74,0,0,1-.64.21"/><path class="cls-1" d="M93.55,207.19s4.49-2.4,5.22,0-2.1,3.12-2.1,3.12"/><path class="cls-1" d="M95,209.2a6.6,6.6,0,0,0,3.85,2.1,5.68,5.68,0,0,0,4.49-1.36l.74,1.21c-.39.84-2.1,2.62-5.23,2.32s-5.34-4-5.34-4Z"/><path class="cls-1" d="M102.53,199.31s-2.69-.17-5.6,3.55-2.23,3.51-2.23,3.51"/><path class="cls-1" d="M101.11,201.77a11.68,11.68,0,0,0-2.6,2.48c-.61.79-1.06,1.4-1.4,1.87"/><path class="cls-1" d="M100.64,211.35l.47-10.43a2.37,2.37,0,0,1,2.62-2c2.34.17,3.14,2.17,3.88,2.34s55.63,16.15,72.43,20.12c1.18.28,2.17.49,2.94.64,11.74,2.29,67.85,17.56,99.37,25.68,30.12,7.75,47.46,15.74,50.65,24s1.4,24.18-6.26,30.34"/><path class="cls-1" d="M103,212.41s1.82.29,3.45.47,82.81,22.44,122.5,33.4,91.48,22.52,99.47,31,3,17.83-1.7,23.22"/><path class="cls-2" d="M332.42,288.68c.73-4-.09-8.33-4-12.46-8-8.47-59.78-20.05-99.47-31s-120.87-34.31-122.5-34.48l.77-8.56c.74.17,63.09,18.43,74.83,20.71s67.84,17.55,99.36,25.67c30.12,7.76,47.47,15.75,50.66,24,3.06,7.86,1.55,22.81-5.29,29.49"/><path class="cls-1" d="M100.64,209.93a3,3,0,0,1,3.84,0l2.08,1.58,31,9.69"/><path class="cls-1" d="M326.74,288.43s4.56-4.69,4.46-7.31"/><path class="cls-4" d="M326.51,289.55s5-4.91,4.91-7.52"/><path class="cls-4" d="M326.73,299.56s4.95-5.78,5.93-12.19"/><path class="cls-1" d="M78.61,214.48a.78.78,0,0,0,0,1,1,1,0,0,0,.86.24"/><path class="cls-1" d="M162.32,189s1-19.25,11.18-30c8.44-8.89,16.88-9.52,16.88-9.52"/><path class="cls-1" d="M174,166.39s-4.45,7-5.82,18.5c0,0-5.42,3.14-6.73,5.31s-1.37,7.17-1.37,7.17a1,1,0,0,0-1,.7,2.36,2.36,0,0,1,0,2.51s-.19.67.33.67h9.95"/><path class="cls-2" d="M175.48,162.65s-7.21,8.13-8.75,23.11"/><path class="cls-1" d="M160.26,194.39s2.88-6.5,8.81-7.91c0,0,1.33.77,1.45,1.62"/><path class="cls-1" d="M171.67,187.29a13,13,0,0,0-1.86-2.27s.73-8.11,2.3-10.64"/><path class="cls-2" d="M160.94,197.6h.68s.26-8.9,6.63-10.31c0,0,1.78.94.82,5.78s-.73,4.75-.73,4.75h1.24"/><path class="cls-1" d="M159,200.58s-.64.25-1.28,4.37"/><path class="cls-1" d="M159,198.07s-2-.18-2.7,3.18a18.29,18.29,0,0,0-.64,3.75"/><path class="cls-1" d="M170.68,194.39l-.16,3.54s.8,0,.86.6"/><path class="cls-1" d="M313.41,257.53s-4.09-5.21-8.85-6.35-4.07-.55-7.61-1.19-33.2-9.42-34.68-10-6.18-3.08-8.34-3.31-11.21-.81-12.9.1"/><path class="cls-2" d="M310.62,256.41a16.39,16.39,0,0,0-7-4.31c-4.76-1.14-4.08-.56-7.61-1.19s-33.2-9.42-34.69-10-6.18-3.09-8.34-3.31a80.32,80.32,0,0,0-10.1-.42"/><path class="cls-1" d="M235.57,248.08s1.89,5.36,5.41,5.78,8.39.35,11.56,1.37,9.93,4.8,22.93,8,17.2,4.28,20.54,4.87,5,.52,6.59,1.12a38.87,38.87,0,0,1,5.65,3.33c1,.69,5.35,1.55,7.38-2"/><path class="cls-2" d="M237,250.86s2.8,1.89,8.36,2.15a35.52,35.52,0,0,1,13.26,3.4c3.26,1.48,25.42,8.83,35.86,10.12s10.27,2.22,13.35,3.93a21.56,21.56,0,0,0,5.59,2.23"/><path class="cls-5" d="M250,239.17s.59-.65,1-.25.68,2.91.22,6.57a32.86,32.86,0,0,1-1.71,6.6,18.77,18.77,0,0,1-4,.23c-1.71,0-8.08-.92-9-2.11"/><path class="cls-5" d="M258.78,241.48s-1-1.17-1.28-.79,0,3.37-.25,6.46c-.35,4.06-1.5,6.33-.9,6.8a46.65,46.65,0,0,0,9.24,4.19s10.66,3.26,21.21,6,13.8,2,14.26,0,.78-10.88.78-10.88"/><ellipse class="cls-4" cx="328.07" cy="293.08" rx="0.37" ry="0.94"/><path class="cls-1" d="M171.32,204.24a60.31,60.31,0,0,1,6.56,0l1.75,3.7"/><path class="cls-1" d="M169.07,210,166,204.85v-.4l3.19-.14"/><path class="cls-3" d="M208.13,158.54s9.15,6.93,10.69,17.2a108.32,108.32,0,0,1,1.21,18.4"/><path class="cls-3" d="M226.44,189.43s0-11.3-3-19.44"/><path class="cls-3" d="M225,189.43s.81-21.14-12.82-32"/><path class="cls-2" d="M211.33,156.9C225,167.78,224,190.12,224,190.12"/><path class="cls-3" d="M216.9,203.77a1.81,1.81,0,0,0,.67-.92c.09-.5-.24-5.46,1.73-7.77s5.11-5.85,6.67-5.86,1.62.35,1.62.35"/><path class="cls-3" d="M218.51,203.78c.09-.49-.25-5.46,1.72-7.77s4.37-5.64,5.93-5.65,2.2,3.18,2.2,3.18"/><path class="cls-2" d="M220,203.7s.25-11.19,4.93-11.36c0,0,3.37-.38,2.25,5.43"/><path class="cls-1" d="M228.36,210.74h-1.92l-4-6.72a.69.69,0,0,0-.62-.35l-37.12.74"/><path class="cls-1" d="M228.13,203c1.54,0,3.22,0,4.07,0a1.81,1.81,0,0,1,1.34.55l2,2"/><path class="cls-1" d="M221.48,203.67a.76.76,0,0,1,.76-.59l4.25-.05"/><path class="cls-5" d="M307.57,255.27s-1.76,12.48-.92,13.26c1.37,1.26,5,4.45,7.74,3.54"/><path class="cls-5" d="M229.31,197.56h-.86a2.07,2.07,0,0,0-2.07,2l-.24,8.46a1.35,1.35,0,0,0,1.35,1.39h.69"/><path class="cls-5" d="M228.82,199.38a2,2,0,0,0-.62,1.42l-.21,6.8"/><path class="cls-5" d="M240.46,208c-.35.82-.77,1.43-1.72,1.43h0"/><path class="cls-5" d="M240.46,197.56s.89-.1,1,.6a22.1,22.1,0,0,1,0,3.61"/><line class="cls-1" x1="239.82" y1="199.38" x2="239.82" y2="200.64"/><line class="cls-1" x1="232.88" y1="203.08" x2="235.11" y2="199.87"/><line class="cls-1" x1="234.96" y1="203.44" x2="237.44" y2="199.87"/><path class="cls-1" d="M238.48,199.87s8.78,5.16,16,9.55c5.66,3.46,9,5.65,10.23,6.76a.91.91,0,0,1,.13,1.23l-2.54,3.41a.49.49,0,0,1-.74.07,14.52,14.52,0,0,0-3-2.22c-2.11-1.2-20.18-11.91-20.18-11.91"/><path class="cls-4" d="M237.44,200.41s25,13.93,27.37,17"/><path class="cls-4" d="M235.11,203.44s25,13.92,27.37,17"/><line class="cls-1" x1="241.53" y1="199.38" x2="260.38" y2="209.42"/><circle class="cls-6" cx="239.79" cy="204.12" r="0.45"/><circle class="cls-6" cx="246.2" cy="207.79" r="0.45"/><path class="cls-5" d="M257.65,211.4c7.65-7.74,16.37-1,16.37-1l25.21,20.65L287.4,247.44"/><path class="cls-5" d="M272.64,243.2l-13.58-11a16.36,16.36,0,0,1-4.77-6.08,11.75,11.75,0,0,1-.06-10"/><path class="cls-5" d="M261.35,213.57c5-3.82,10.21.26,10.21.26l22.29,18.26"/><path class="cls-5" d="M283.68,246.38l-22.4-17.58a14.08,14.08,0,0,1-3.28-4.19,7.41,7.41,0,0,1-.26-6.42"/><path class="cls-5" d="M260.55,213.05a8.77,8.77,0,0,1,7.47-2,11,11,0,0,1,5,2.37l21.93,18"/><path class="cls-5" d="M281.21,245.73c-5.54-4.21-17.41-13.27-20.46-15.93a14.38,14.38,0,0,1-4-5.25,8.19,8.19,0,0,1,.1-6.65"/><line class="cls-2" x1="260.38" y1="231.1" x2="276.77" y2="244.37"/><polyline class="cls-2" points="274.02 212.41 297.21 231.1 286 246.78"/><path class="cls-1" d="M191.41,156.31s2.17,1.51,3.77.59a7.21,7.21,0,0,0,2.49-3"/><path class="cls-1" d="M194.15,157.2s13.35,2.08,14.89,1a7.43,7.43,0,0,0,1.84-1.58"/><path class="cls-4" d="M195.29,157.41s2.8-1.73,3.31-3.64"/><path class="cls-4" d="M210.35,156.32a9.41,9.41,0,0,1-2.22,2.22"/><path class="cls-1" d="M191.41,149.06s1.7-4.64,3.88-4.3a3.49,3.49,0,0,1,2.66,2.68"/><line class="cls-1" x1="195.29" y1="144.53" x2="197.47" y2="144.51"/><path class="cls-1" d="M206.69,153a20.08,20.08,0,0,1-4.47-.89,6.31,6.31,0,0,1-2.09-1.16,1,1,0,0,1-.17-1.22,8.76,8.76,0,0,0,.68-6.52,2.64,2.64,0,0,0-1.75-.91"/><path class="cls-1" d="M199.68,141.28c5.8.35,13.5,1.17,14.78,2.24,1.8,1.5.64,8.6-1.88,9.28a14.77,14.77,0,0,1-4.25.29"/><path class="cls-1" d="M196.89,142.16a11.82,11.82,0,0,1-2.74-.14c-.21-.07-.22-.89,0-.9.75,0,1.85,0,3.17,0"/><path class="cls-4" d="M199.3,141.8c1.06.32,1.87.86,1.94,1.78a9.93,9.93,0,0,1-.86,5.26"/><path class="cls-4" d="M194,141.46a21.37,21.37,0,0,1,3.14,0"/><path class="cls-1" d="M214.9,144.11s-.23-3.21-6.77-3.8-11.19-1.2-11.18,2.44S201,146,201,146"/><path class="cls-1" d="M200.82,144s-1.74-.22-1.74-.22"/><path class="cls-1" d="M200,144.74s-.86-.09-1.07-1.8,2.09-2.59,5.77-2.2c6.22.65,7.79,2,7.79,2"/><path class="cls-1" d="M206.6,153.46l-5.72-.49a1.43,1.43,0,0,1-1.31-1.42v-3.08A1.43,1.43,0,0,1,201,147h0"/><path class="cls-1" d="M214.28,151.41v1.15a1.42,1.42,0,0,1-1.55,1.42l-4.52-.38"/><path class="cls-1" d="M207.79,155.19l6.25.58a1.42,1.42,0,0,0,1.53-1.42s.16-2.54.13-4.57c0-1.2-.61-1-.61-1"/><path class="cls-1" d="M201,146h-1.34a1.43,1.43,0,0,0-1.43,1.43v5.81a1.43,1.43,0,0,0,1.32,1.43l6.91.43"/><path class="cls-1" d="M207.06,150.45l-.57,4.66s.1.34.77.42a.8.8,0,0,0,.66-.13l.58-4.78a.75.75,0,0,0-.57-.54A.79.79,0,0,0,207.06,150.45Z"/><ellipse class="cls-1" cx="208.33" cy="145.6" rx="0.93" ry="0.85"/><path class="cls-1" d="M194.89,204.3s0-2.66-1.82-2.59a4.18,4.18,0,0,0-3,2l-10.19,0a2.13,2.13,0,0,0-1.73.87h0"/><path class="cls-1" d="M191.19,204.28s.79-1.59,1.71-1.59,1.31,1.59,1.31,1.59"/><path class="cls-1" d="M194.89,204.3s0-2.66,1.83-2.59a2.09,2.09,0,0,1,2,1.78l12-.44a2.13,2.13,0,0,1,1.73.87"/><path class="cls-1" d="M197.9,204.15s-.1-1.46-1-1.46-1.31,1.59-1.31,1.59"/><g id="BVTmzF"><path class="cls-5" d="M253.06,275.21l4.76-.23-.22,2.31.07,0c.21-.27.4-.57.63-.81a7.62,7.62,0,0,1,8.22-2.33,5.9,5.9,0,0,1,3.44,3.12c0,.07.07.14.11.22l.05,0c.05-.08.11-.15.17-.23a9.44,9.44,0,0,1,5.93-4,6.85,6.85,0,0,1,4.45.45,5.33,5.33,0,0,1,2.74,3.63,13.17,13.17,0,0,1,.41,4.46c-.23,3.13-.53,6.27-.81,9.42-.22,2.56-.46,5.12-.69,7.69,0,.32-.05.64-.1,1,0,.09-.12.22-.2.22-2.14.14-4.3.26-6.45.38l-.09,0c0-.48.08-1,.13-1.46.28-3,.57-5.95.85-8.92.16-1.72.33-3.44.47-5.17a11.16,11.16,0,0,0-.14-3.6,2.24,2.24,0,0,0-2.77-2,3.65,3.65,0,0,0-2.64,2.18,11.58,11.58,0,0,0-1.1,3.89c-.24,1.94-.43,3.88-.62,5.82-.24,2.42-.47,4.85-.7,7.27-.08.79-.16,1.57-.23,2.39l-6.81.39q.06-.66.12-1.29.48-5,1-9.91c.15-1.55.32-3.1.46-4.65a10.51,10.51,0,0,0-.15-3.45,2.29,2.29,0,0,0-2.85-2,3.67,3.67,0,0,0-2.71,2.23,11.76,11.76,0,0,0-1.07,3.93c-.29,2.58-.54,5.18-.81,7.77s-.5,5-.77,7.52c0,.08-.13.22-.2.22l-.19,0"/><path class="cls-5" d="M186.18,305.14a7.53,7.53,0,0,1-1.6-.71,6.36,6.36,0,0,1-2-1.92q-1.12,8.39-2.25,16.86l-7.52.48q.08-.62.15-1.2.92-6.6,1.83-13.16,1-7.47,2.06-14.9c.53-3.89,1.07-7.76,1.59-11.63,0-.16.07-.26.25-.27l6.14-.28m11.8-.77a9.1,9.1,0,0,1,5.63,5.88,15.38,15.38,0,0,1,.4,8.51,18.92,18.92,0,0,1-4.47,8.89c-.15.17-.31.34-.47.5M185.4,286.8a9.34,9.34,0,0,0-.65.95,8.71,8.71,0,0,0-1,7.74,4.76,4.76,0,0,0,2.24,2.78"/><path class="cls-5" d="M126.83,296.6c.28.77.5,1.57.83,2.29a5.71,5.71,0,0,0,2.86,3.05,4.62,4.62,0,0,0,5.23-.83,8,8,0,0,0,2.68-5.63,4.46,4.46,0,0,0-1.94-4.26c-1-.72-3.28-1-4.39-1.51a15.58,15.58,0,0,1-4.73-2.83,7.88,7.88,0,0,1-2.53-5.8,16.27,16.27,0,0,1,3.57-10.69,15.64,15.64,0,0,1,8.65-4.93,11.28,11.28,0,0,1,6.57.72,10,10,0,0,1,4,2.74c.47.53.47.53,0,1.13l-3.53,5-.18.26-.38-.62c-2.42-3.92-7.46-3.14-9.37.82a4.29,4.29,0,0,0-.34,3.2,3.36,3.36,0,0,0,1.53,1.93c1.1.64,2.24,1.22,3.38,1.79a25.49,25.49,0,0,1,3.75,2.08,8.83,8.83,0,0,1,3.63,7.79A19.84,19.84,0,0,1,142,304.51a13.73,13.73,0,0,1-7.33,4.84,11.86,11.86,0,0,1-5.64.23,9.78,9.78,0,0,1-6.36-5c-.43-.72-.76-1.51-1.13-2.27a.29.29,0,0,1,.05-.41l5.21-5.25Z"/><path class="cls-5" d="M150.82,280.07l7.76-.37c-.06.43-.11.84-.17,1.24-.59,4.12-1.19,8.25-1.77,12.4-.19,1.33-.32,2.67-.42,4a5.29,5.29,0,0,0,.34,2.3,2.69,2.69,0,0,0,2.48,1.82c2.48.19,4.27-1,5.28-3.53a18.56,18.56,0,0,0,1-4.35l1.17-8.33c.27-1.91.55-3.81.81-5.71,0-.21.09-.29.29-.3l7.17-.34.26,0c-.11.75-.21,1.48-.31,2.22-.36,2.61-.71,5.23-1.1,7.86s-.75,5.48-1.27,8.21a13.69,13.69,0,0,1-3.16,6.55,12.1,12.1,0,0,1-5.4,3.56,17.43,17.43,0,0,1-10.05.48,7.1,7.1,0,0,1-5.44-6.32,18.83,18.83,0,0,1,.19-5.75c.4-2.65.78-5.29,1.17-7.93s.75-5,1.13-7.55C150.79,280.21,150.8,280.16,150.82,280.07Z"/><path class="cls-5" d="M207.36,277.38l7.45-.36-.35,2.83c2.67-3.36,5.84-4.83,9.92-3.53-.59,2.43-1.16,4.81-1.73,7.2-.05,0-.08,0-.1,0a5.67,5.67,0,0,0-7.82,2.14,11.73,11.73,0,0,0-1.49,4.34c-.34,2.25-.62,4.52-.91,6.79-.31,2.42-.6,4.84-.91,7.26,0,.1-.14.25-.22.25l-7.21.43-.12,0Q205.63,291,207.36,277.38Z"/><path class="cls-5" d="M307.79,278.48a8.37,8.37,0,0,0-5.68-5.86,12,12,0,0,0-5.62-.22,12.4,12.4,0,0,0-8.34,5.46,18.76,18.76,0,0,0-2.93,7.68,17,17,0,0,0,.25,7.53,9.1,9.1,0,0,0,6.52,6.79,12,12,0,0,0,6.25,0,13.73,13.73,0,0,0,9.42-8.22l.12-.31-.1-.05-6-.73a.34.34,0,0,0-.25.14c-.21.31-.38.65-.59.95a5.51,5.51,0,0,1-4.63,2.75,3.24,3.24,0,0,1-3.2-2.07,9.68,9.68,0,0,1-.59-2.14,9.42,9.42,0,0,1,0-2.6l.38,0,7.94-.42,7.36-.39c.2,0,.31,0,.32-.32,0-.86.14-1.72.16-2.58A16.43,16.43,0,0,0,307.79,278.48ZM293,282.86c.16-.49.28-1,.46-1.41a6.39,6.39,0,0,1,2.94-3.54,3.72,3.72,0,0,1,3.33-.2,4,4,0,0,1,2.16,2.75c.18.61.25,1.25.38,1.93Z"/><path class="cls-5" d="M242.23,276.48a8.4,8.4,0,0,0-2.21-1,11.84,11.84,0,0,0-5.36-.17,12.78,12.78,0,0,0-8.82,6.15A20.4,20.4,0,0,0,223.1,289a18,18,0,0,0,.18,7.59c.92,3.43,2.9,5.75,6,6.78a11.59,11.59,0,0,0,6.18.24,13.35,13.35,0,0,0,8.14-5.35m-.16-3.78c-1.18-.15-2.37-.29-3.55-.47a.81.81,0,0,0-1,.5,6.1,6.1,0,0,1-4.18,3.32,3.45,3.45,0,0,1-4.23-2.61,11,11,0,0,1-.34-4.08c0-.09.13-.18.22-.23a.55.55,0,0,1,.26,0l12.56-.67M231,286.08a9.1,9.1,0,0,1,.75-2.11,6.05,6.05,0,0,1,3.2-3.21,3.38,3.38,0,0,1,4.21,1.2,5.75,5.75,0,0,1,.93,2.46c0,.38.08.77.12,1.18Z"/></g><path class="cls-6" d="M305.87,303.36V303l1.77-.15v.42l-.2,0a.13.13,0,0,0-.12.2c.27.7.55,1.39.82,2.1l0,0s0,0,0-.05l.42-1.23c0-.17,0-.26-.17-.26h-.17c.05-.15.09-.3.14-.43a.05.05,0,0,1,.05,0l1.92-.14h0c-.05.15-.09.3-.15.45s0,0-.05,0l-.29,0a.53.53,0,0,0-.43.4l-.48,1.39c-.12.33-.23.66-.35,1a.17.17,0,0,0,0,.1c.15.39.3.78.46,1.18a0,0,0,0,0,0,0l0-.05q.87-2.29,1.77-4.6a.27.27,0,0,0-.27-.39h-.16v-.43l1.65-.14v.42H312a.65.65,0,0,0-.58.43c-.17.4-.32.79-.48,1.19q-.87,2.16-1.72,4.32a.13.13,0,0,1-.14.1,4.87,4.87,0,0,0-.54,0c-.05,0-.07,0-.09-.07l-.25-.7,0-.06-.42,1.15h.09l2.59,0A.7.7,0,0,0,311,309a3.25,3.25,0,0,0,.31-.42c.13-.21.24-.44.35-.66,0,0,.05-.07.11-.07h.36l0,.08c-.25.57-.49,1.13-.74,1.69,0,0,0,.06-.08.06l-5.42.06h0c.05-.14.09-.27.13-.4a.07.07,0,0,1,.06,0h.41a.7.7,0,0,0,.37-.11.63.63,0,0,0,.27-.35l.63-1.86a.17.17,0,0,0,0-.14l-1.18-3.07a.8.8,0,0,0-.13-.24.4.4,0,0,0-.35-.15Z"/></g></svg>